<?xml version="1.0" encoding="utf-8"?>
<svg id="Layer_1" xmlns="http://www.w3.org/2000/svg" version="1.1" viewBox="0 0 841.89 595.28">
  <defs>
    <style>
      .st0 {
        fill: #f6921e;
      }

      .st1 {
        fill: url(#linear-gradient3);
      }

      .st2 {
        fill: url(#linear-gradient6);
      }

      .st3 {
        fill: url(#linear-gradient7);
      }

      .st4 {
        fill: url(#linear-gradient5);
      }

      .st5 {
        fill: url(#linear-gradient4);
      }

      .st6 {
        fill: url(#linear-gradient1);
      }

      .st6, .st7 {
        opacity: .15;
      }

      .st7 {
        fill: url(#linear-gradient2);
      }

      .st8 {
        fill: url(#linear-gradient);
      }

      .st9 {
        fill: #47b6b0;
      }

      .st10 {
        fill: #fff;
      }

      .st11 {
        opacity: .5;
      }

      .st12 {
        fill: #f59120;
      }
    </style>
    <linearGradient id="linear-gradient" x1="396.74" y1="151.48" x2="458.98" y2="213.72" gradientUnits="userSpaceOnUse">
      <stop offset="0.2" stop-color="#06b9ad"/>
      <stop offset="1" stop-color="#00a69a"/>
    </linearGradient>
    <linearGradient id="linear-gradient1" x1="429.62" y1="184.02" x2="461.17" y2="215.57" gradientTransform="translate(-6.61 13.79) rotate(-1.81)" gradientUnits="userSpaceOnUse">
      <stop offset="0.6" stop-color="#06b9ad" stop-opacity="0"/>
      <stop offset="0.8" stop-color="#039187" stop-opacity=".48"/>
      <stop offset="1" stop-color="#01665e"/>
    </linearGradient>
    <linearGradient id="linear-gradient2" x1="412.2" y1="159.66" x2="434.52" y2="181.98" gradientUnits="userSpaceOnUse">
      <stop offset="0" stop-color="#fff"/>
      <stop offset="0.21" stop-color="#fff" stop-opacity=".81"/>
      <stop offset="0.69" stop-color="#fff" stop-opacity=".32"/>
      <stop offset="1" stop-color="#fff" stop-opacity="0"/>
    </linearGradient>
    <linearGradient id="linear-gradient3" x1="430.72" y1="200.14" x2="435.56" y2="204.98" gradientUnits="userSpaceOnUse">
      <stop offset="0" stop-color="#fff"/>
      <stop offset="0.08" stop-color="#fff" stop-opacity=".88"/>
      <stop offset="0.28" stop-color="#fff" stop-opacity=".61"/>
      <stop offset="0.46" stop-color="#fff" stop-opacity=".4"/>
      <stop offset="0.63" stop-color="#fff" stop-opacity=".22"/>
      <stop offset="0.78" stop-color="#fff" stop-opacity=".1"/>
      <stop offset="0.91" stop-color="#fff" stop-opacity=".03"/>
      <stop offset="1" stop-color="#fff" stop-opacity="0"/>
    </linearGradient>
    <linearGradient id="linear-gradient4" x1="435.45" y1="207.4" x2="446.51" y2="218.45" href="#linear-gradient3"/>
    <linearGradient id="linear-gradient5" x1="445.94" y1="198.36" x2="450.36" y2="202.78" href="#linear-gradient3"/>
    <linearGradient id="linear-gradient6" x1="438.13" y1="195.87" x2="442.86" y2="200.6" href="#linear-gradient3"/>
    <linearGradient id="linear-gradient7" x1="448.82" y1="206.49" x2="453.16" y2="210.83" href="#linear-gradient3"/>
  </defs>
  <g style="" transform="matrix(2.463592, 0, 0, 2.322352, -605.081421, -316.464081)">
    <path class="st8" d="M476.66,184.58c0,34.26-39.53,68.56-39.53,68.56,0,0-39.53-34.3-39.53-68.56,0-20.53,17.7-37.18,39.53-37.18s39.53,16.65,39.53,37.18Z"/>
    <g>
      <path class="st6" d="M474.15,178.33c4.55,30.37-34.85,71.11-37.75,69.96-30.57-12.08,28.92-128.92,37.75-69.96Z"/>
      <path class="st7" d="M403.21,201.2c-10.17-37.08,20.33-63.39,56.81-44.26l-56.81,44.26Z"/>
      <path class="st10" d="M416.44,194.87c-4.06.66-8.02-2.83-8.83-7.8-1.05-6.45,1.27-12.93,5.34-13.59,4.06-.66,8.41,5.2,9.38,11.19.81,4.97-1.82,9.54-5.89,10.2Z"/>
      <path class="st10" d="M449.45,214.76c-5.83.11-8.15-2.4-11.89-2.33-3.74.07-5.97,2.66-11.79,2.77-7.63.14-13.46-9.22-6.66-15.61,8.45-7.94,10.72-17.77,17.88-17.9,7.17-.13,9.79,9.61,18.53,17.23,7.03,6.13,1.55,15.7-6.08,15.84Z"/>
      <path class="st10" d="M438.63,168.98c.41-6.05,4.17-12.3,8.28-12.03,4.11.28,7.04,6.5,6.6,13.03-.34,5.03-3.94,8.88-8.05,8.6-4.11-.28-7.17-4.57-6.83-9.6Z"/>
      <path class="st10" d="M420.06,170.59c-.68-6.5,2.02-12.83,6.12-13.26,4.1-.43,8.09,5.68,8.72,11.71.52,5.01-2.37,9.42-6.47,9.85-4.1.43-7.84-3.29-8.36-8.3Z"/>
      <path class="st10" d="M458.02,194.11c-4.09-.51-6.89-4.98-6.26-9.98.76-6.02,4.88-12.04,8.97-11.52,4.09.51,6.65,6.9,5.83,13.39-.63,5-4.45,8.63-8.54,8.12Z"/>
    </g>
    <g>
      <path class="st12" d="M433.78,207.95c-1.65-.29-2.7-2.17-2.34-4.19.47-2.62,2.24-4.79,3.89-4.5,1.65.29,2.53,3.13,2.09,5.57-.36,2.02-1.99,3.42-3.64,3.12Z"/>
      <path class="st12" d="M443.76,220.05c-2.25-.75-2.81-2.02-4.25-2.5-1.44-.48-2.65.21-4.9-.53-2.95-.98-3.92-5.36-.45-6.9,4.32-1.91,6.52-5.38,9.29-4.46,2.77.92,2.46,5.01,4.79,9.12,1.87,3.31-1.53,6.24-4.48,5.26Z"/>
      <path class="st12" d="M445.8,201c.97-2.27,3.27-4.16,4.81-3.5,1.54.66,1.82,3.45.77,5.89-.81,1.89-2.71,2.88-4.26,2.22-1.54-.66-2.13-2.73-1.33-4.61Z"/>
      <path class="st12" d="M438.45,199.11c.62-2.59,2.51-4.66,4.14-4.27,1.63.39,2.34,3.28,1.77,5.68-.48,2-2.19,3.3-3.82,2.91-1.63-.39-2.57-2.32-2.09-4.32Z"/>
      <path class="st12" d="M449.85,213.27c-1.5-.75-1.97-2.84-1.06-4.68,1.1-2.21,3.5-3.96,5-3.21,1.5.75,1.62,3.55.43,5.93-.92,1.83-2.88,2.71-4.38,1.97Z"/>
    </g>
    <g class="st11">
      <path class="st1" d="M432.36,206.62c-1.59-.28-2.59-2.1-2.25-4.05.45-2.53,2.15-4.63,3.74-4.35,1.59.28,2.43,3.03,2.01,5.38-.35,1.95-1.91,3.3-3.5,3.02Z"/>
      <path class="st5" d="M443.16,218.91c-2.17-.72-2.7-1.95-4.09-2.42-1.39-.46-2.55.21-4.71-.51-2.83-.94-3.77-5.18-.43-6.66,4.15-1.84,6.27-5.19,8.93-4.31,2.66.89,2.37,4.84,4.6,8.81,1.8,3.19-1.47,6.03-4.3,5.09Z"/>
      <path class="st4" d="M445.11,199.9c.94-2.19,3.14-4.02,4.62-3.38,1.48.64,1.75,3.33.74,5.7-.78,1.82-2.61,2.78-4.09,2.14-1.48-.64-2.05-2.63-1.27-4.46Z"/>
      <path class="st2" d="M437.44,198.08c.6-2.5,2.41-4.5,3.98-4.12,1.57.38,2.25,3.17,1.7,5.49-.46,1.93-2.1,3.19-3.67,2.81-1.57-.38-2.47-2.25-2.01-4.17Z"/>
      <path class="st3" d="M449.01,212.36c-1.44-.72-1.9-2.75-1.02-4.52,1.06-2.13,3.37-3.83,4.81-3.11,1.44.72,1.56,3.43.41,5.73-.88,1.77-2.77,2.62-4.21,1.9Z"/>
    </g>
  </g>
  <path class="st0" d="M 246.508 285.559 L 163.559 285.559 L 163.559 490.483 L 100.565 490.483 L 100.565 285.559 L 17.221 285.559 L 17.221 233.423 L 246.508 233.423 L 246.508 285.559 Z" style="fill-rule: evenodd; paint-order: fill; fill: rgb(1, 169, 157);"/>
  <path class="st0" d="M 216.551 434.328 C 216.551 422.16 220.272 411.384 227.685 401.955 C 235.102 392.526 245.35 385.142 258.407 379.777 C 271.465 374.412 286.443 371.718 303.344 371.718 C 311.523 371.718 319.603 372.391 327.536 373.716 C 335.468 375.039 342.39 376.92 348.28 379.336 L 348.28 371.022 C 348.28 360.757 344.954 353 338.303 347.752 C 331.65 342.503 321.524 339.878 307.95 339.878 C 296.937 339.878 286.443 341.69 276.465 345.313 C 266.487 348.935 255.968 354.116 244.98 360.873 L 226.552 323.948 C 239.856 315.749 253.751 309.642 268.212 305.671 C 282.674 301.699 297.972 299.703 314.11 299.703 C 344.313 299.703 367.816 306.344 384.592 319.628 C 401.345 332.912 409.746 352.349 409.746 377.965 L 409.746 426.339 C 409.746 432.03 410.707 436.071 412.628 438.44 C 414.55 440.808 417.801 442.108 422.409 442.364 L 422.409 490.507 C 417.285 491.714 412.554 492.503 408.193 492.853 C 403.833 493.224 399.99 493.386 396.664 493.386 C 385.134 493.386 376.438 491.226 370.55 486.86 C 364.662 482.518 360.818 476.596 359.02 469.118 L 357.494 460.781 C 348.797 471.649 338.228 479.917 325.812 485.583 C 313.394 491.249 300.387 494.084 286.838 494.084 C 273.287 494.084 261.536 491.505 250.917 486.395 C 240.299 481.264 231.9 474.18 225.765 465.1 C 219.63 456.042 216.551 445.779 216.551 434.328 Z" style="fill: rgb(1, 169, 157); stroke-linejoin: round;"/>
  <path class="st0" d="M 440.836 490.46 L 440.836 300.399 L 502.278 300.399 L 502.278 490.46 L 440.836 490.46 Z" style="fill: rgb(1, 169, 157);"/>
  <path class="st0" d="M 530.315 226.176 L 591.755 226.176 L 591.755 422.763 C 591.755 430.729 593.283 436.396 596.363 439.786 C 599.442 443.177 603.902 444.85 609.813 444.85 C 613.387 444.85 617.181 444.362 621.147 443.408 C 625.113 442.456 628.636 440.994 631.716 439.067 L 639.771 482.866 C 632.084 486.001 623.265 488.649 613.262 490.832 C 603.285 493.015 593.925 494.084 585.227 494.084 C 567.564 494.084 553.989 489.67 544.504 480.869 C 535.02 472.067 530.289 459.457 530.289 443.037 L 530.289 226.176 L 530.315 226.176 Z" style="fill: rgb(1, 169, 157);"/>
  <path class="st0" d="M 636.322 519.071 C 641.446 520.511 646.25 521.673 650.733 522.508 C 655.219 523.345 659.234 523.785 662.83 523.785 C 667.955 524.018 672.118 523.112 675.321 521.069 C 678.524 519.025 681.455 515.519 684.165 510.572 C 686.85 505.625 689.092 499.123 690.89 491.11 L 614.471 302.582 L 677.833 302.582 L 725.086 432.216 L 765.021 302.582 L 822.619 302.582 L 745.804 521.65 C 742.207 531.938 736.713 541.041 729.298 548.936 C 721.858 556.833 712.842 563.057 702.224 567.632 C 691.606 572.184 680.149 574.344 667.856 574.111 C 662.731 574.111 657.558 573.694 652.311 572.834 C 647.063 571.975 641.743 570.605 636.372 568.676 L 636.372 519.071 L 636.322 519.071 Z" style="fill: rgb(1, 169, 157); stroke-linejoin: round;"/>
  <path class="st10" d="M 260.97 428.802 C 254.934 427.781 251.115 421.323 252.42 414.357 C 254.121 405.323 260.6 397.845 266.636 398.844 C 272.671 399.865 275.874 409.643 274.273 418.026 C 272.967 424.993 267.005 429.8 260.97 428.779 L 260.97 428.802 Z" style=""/>
  <path class="st10" d="M 297.48 470.511 C 289.252 467.933 287.231 463.544 281.935 461.896 C 276.662 460.246 272.252 462.638 264.025 460.061 C 253.258 456.692 249.686 441.575 262.398 436.303 C 278.19 429.731 286.221 417.771 296.347 420.952 C 306.472 424.11 305.339 438.23 313.862 452.374 C 320.711 463.754 308.269 473.878 297.505 470.511 L 297.48 470.511 Z" style=""/>
  <path class="st10" d="M 304.919 404.858 C 308.467 397.032 316.843 390.529 322.485 392.805 C 328.128 395.08 329.162 404.696 325.319 413.126 C 322.363 419.628 315.389 423.042 309.773 420.767 C 304.133 418.49 301.963 411.384 304.919 404.881 L 304.919 404.858 Z" style=""/>
  <path class="st10" d="M 278.043 398.355 C 280.31 389.437 287.208 382.308 293.169 383.655 C 299.131 385.002 301.718 394.942 299.623 403.209 C 297.875 410.083 291.642 414.566 285.679 413.218 C 279.718 411.872 276.292 405.206 278.043 398.332 L 278.043 398.355 Z" style=""/>
  <path class="st10" d="M 319.726 447.172 C 314.232 444.594 312.507 437.371 315.858 431.054 C 319.898 423.437 328.669 417.399 334.138 419.977 C 339.632 422.554 340.074 432.193 335.716 440.413 C 332.364 446.731 325.195 449.772 319.726 447.195 L 319.726 447.172 Z" style=""/>
  <g style="" transform="matrix(2.463592, 0, 0, 2.322352, -605.081421, -316.464081)">
    <path class="st9" d="M257.01,365.78h2.38l4.44,12.07h-2.41l-1-3.01h-4.43l-1.01,3.01h-2.41l4.45-12.07ZM259.86,373.19l-1.66-4.98-1.67,4.98h3.33Z"/>
    <path class="st9" d="M269.68,378.02c-.69,0-1.3-.16-1.84-.47-.53-.31-.95-.73-1.24-1.24v5.17h-2.26v-12.44h1.99v1.53c.34-.51.77-.92,1.29-1.22s1.12-.45,1.79-.45c.6,0,1.15.12,1.66.35.5.24.95.56,1.33.98.38.42.67.9.88,1.45.2.55.31,1.13.31,1.75,0,.85-.17,1.63-.5,2.32-.33.7-.79,1.25-1.38,1.66-.58.41-1.26.61-2.01.61ZM268.91,376.09c.34,0,.66-.07.94-.22.29-.14.54-.34.74-.58.2-.24.36-.53.48-.86.11-.33.17-.66.17-1.01s-.06-.69-.18-1.01c-.12-.32-.29-.59-.52-.83-.23-.23-.49-.42-.79-.55-.3-.13-.63-.2-.99-.2-.2,0-.42.04-.64.11-.22.07-.43.17-.64.31s-.38.28-.53.46c-.15.17-.27.37-.36.59v2.07c.15.32.34.61.57.88s.5.47.81.62.62.22.93.22Z"/>
    <path class="st9" d="M279.86,378.02c-.69,0-1.3-.16-1.84-.47-.53-.31-.95-.73-1.24-1.24v5.17h-2.26v-12.44h1.99v1.53c.34-.51.77-.92,1.29-1.22s1.12-.45,1.79-.45c.6,0,1.15.12,1.66.35.5.24.95.56,1.33.98.38.42.67.9.88,1.45.2.55.31,1.13.31,1.75,0,.85-.17,1.63-.5,2.32-.33.7-.79,1.25-1.38,1.66s-1.25.61-2.01.61ZM279.1,376.09c.34,0,.65-.07.94-.22s.54-.34.74-.58c.2-.24.36-.53.48-.86.11-.33.17-.66.17-1.01s-.06-.69-.18-1.01c-.12-.32-.29-.59-.52-.83s-.49-.42-.79-.55c-.3-.13-.63-.2-1-.2-.2,0-.42.04-.64.11-.22.07-.43.17-.64.31s-.38.28-.53.46-.27.37-.36.59v2.07c.15.32.34.61.57.88.23.27.5.47.81.62.31.15.62.22.94.22Z"/>
    <path class="st9" d="M284.6,374.55v-5.52h2.29v5.02c0,.67.12,1.18.37,1.52.25.34.62.51,1.1.51.29,0,.59-.06.88-.17.29-.12.55-.29.8-.52.24-.23.45-.53.62-.88v-5.47h2.29v6.28c0,.23.04.4.12.5.08.1.22.16.41.19v1.85c-.23.03-.42.06-.57.08-.15.02-.29.03-.42.03-.4,0-.72-.09-.98-.29-.25-.19-.41-.44-.47-.76l-.05-.71c-.4.59-.9,1.05-1.52,1.36-.62.31-1.31.46-2.07.46-.92,0-1.62-.29-2.1-.88-.48-.59-.72-1.45-.72-2.59Z"/>
    <path class="st9" d="M302.9,377.85h-2.28v-4.93c0-.7-.12-1.22-.37-1.54-.24-.32-.59-.49-1.05-.49-.31,0-.61.08-.93.23-.31.16-.59.37-.83.64-.24.27-.43.58-.57.94v5.14h-2.26v-8.82h2.06v1.65c.23-.38.51-.7.87-.96.35-.26.75-.46,1.21-.6s.94-.22,1.46-.22c.56,0,1.01.1,1.37.29.36.2.63.46.82.8.19.34.32.71.39,1.12.07.41.11.82.11,1.23v5.51Z"/>
    <path class="st9" d="M309.58,377.41c-.2.09-.44.18-.71.28-.27.1-.55.17-.87.24-.31.06-.63.09-.94.09-.43,0-.82-.07-1.17-.22-.35-.15-.63-.38-.84-.7-.21-.32-.32-.74-.32-1.25v-5.09h-1.16v-1.73h1.16v-2.89h2.3v2.89h1.87v1.73h-1.87v4.31c.01.3.1.52.25.66.16.14.36.21.61.21.23,0,.45-.04.68-.13.23-.08.41-.16.56-.23l.44,1.82Z"/>
    <path class="st9" d="M309.56,375.25c0-.57.16-1.07.49-1.5.32-.43.77-.76,1.34-1s1.24-.36,2-.36c.37,0,.75.03,1.14.08.38.06.72.15,1,.27v-.49c0-.54-.17-.97-.49-1.27-.33-.3-.82-.45-1.48-.45-.5,0-.97.08-1.41.25-.44.17-.91.41-1.39.73l-.71-1.48c.58-.4,1.18-.69,1.79-.88.62-.19,1.27-.28,1.95-.28,1.27,0,2.26.31,2.97.93.71.62,1.06,1.52,1.06,2.69v2.8c0,.23.04.4.13.5s.22.16.42.18v1.85c-.2.03-.39.06-.55.08-.17.02-.3.03-.42.02-.45,0-.8-.1-1.03-.3s-.37-.45-.42-.74l-.05-.46c-.4.5-.88.88-1.46,1.16-.58.27-1.17.41-1.77.41s-1.12-.12-1.59-.37c-.47-.25-.84-.58-1.1-1-.27-.42-.4-.89-.4-1.4ZM315.1,375.68c.12-.11.23-.24.31-.38.08-.14.12-.26.12-.36v-.88c-.27-.11-.57-.2-.88-.26s-.62-.09-.9-.09c-.59,0-1.07.12-1.45.37-.38.25-.57.58-.57.99,0,.22.06.43.19.64.12.21.3.37.54.49.23.12.52.18.86.18s.67-.07,1-.2c.33-.13.6-.3.8-.5Z"/>
    <path class="st9" d="M333.17,377.85h-2.28v-4.93c0-.7-.12-1.22-.37-1.54-.24-.32-.58-.49-1.01-.49-.45,0-.88.17-1.28.51-.4.34-.68.78-.85,1.32v5.13h-2.29v-4.93c0-.7-.12-1.22-.36-1.54-.24-.32-.57-.49-1-.49s-.87.17-1.27.5-.7.77-.87,1.31v5.14h-2.26v-8.82h2.06v1.65c.34-.57.8-1.01,1.37-1.32.57-.31,1.22-.46,1.95-.46s1.31.18,1.72.54c.41.36.68.8.79,1.33.36-.61.82-1.07,1.39-1.39.56-.32,1.2-.48,1.91-.48.54,0,.99.1,1.33.29.35.2.61.46.81.79.19.33.33.7.4,1.12.07.41.11.83.11,1.24v5.51Z"/>
    <path class="st9" d="M338.7,378.02c-.71,0-1.36-.12-1.94-.36s-1.07-.57-1.48-.99c-.41-.42-.72-.9-.94-1.44-.21-.54-.32-1.12-.32-1.73,0-.83.19-1.59.57-2.3.38-.7.92-1.26,1.62-1.68.7-.42,1.53-.63,2.51-.63s1.79.21,2.48.63,1.22.97,1.6,1.66.56,1.43.56,2.24c0,.15,0,.28-.02.41s-.02.24-.03.33h-6.87c.03.47.16.86.38,1.19.22.33.5.58.85.76.34.18.71.27,1.1.27.46,0,.9-.11,1.3-.33s.68-.52.82-.89l1.94.54c-.2.45-.5.86-.9,1.21-.4.35-.87.63-1.41.82-.54.2-1.15.3-1.82.3ZM336.37,372.74h4.66c-.05-.44-.17-.83-.38-1.15-.21-.33-.48-.58-.82-.76s-.72-.27-1.14-.27-.78.09-1.11.27-.61.44-.82.76c-.21.33-.34.71-.38,1.15Z"/>
    <path class="st9" d="M352.43,377.85h-2.28v-4.93c0-.7-.12-1.22-.37-1.54-.24-.32-.59-.49-1.04-.49-.31,0-.62.08-.93.23-.31.16-.59.37-.83.64-.24.27-.43.58-.57.94v5.14h-2.26v-8.82h2.06v1.65c.23-.38.52-.7.87-.96.35-.26.75-.46,1.21-.6.45-.15.94-.22,1.46-.22.55,0,1.01.1,1.37.29.36.2.63.46.82.8.19.34.32.71.39,1.12.07.41.11.82.11,1.23v5.51Z"/>
    <path class="st9" d="M359.11,377.41c-.2.09-.44.18-.71.28-.27.1-.56.17-.87.24s-.63.09-.94.09c-.43,0-.82-.07-1.17-.22-.35-.15-.63-.38-.84-.7-.21-.32-.31-.74-.31-1.25v-5.09h-1.16v-1.73h1.16v-2.89h2.29v2.89h1.87v1.73h-1.87v4.31c.01.3.1.52.25.66.16.14.36.21.61.21.23,0,.45-.04.68-.13s.41-.16.56-.23l.44,1.82Z"/>
    <path class="st9" d="M363.7,378.02c-.72,0-1.37-.12-1.95-.37-.57-.25-1.06-.58-1.47-1.01-.41-.43-.72-.91-.93-1.45-.21-.54-.31-1.12-.31-1.72s.1-1.22.31-1.77c.21-.55.52-1.03.92-1.45.4-.42.89-.75,1.47-.99.58-.24,1.22-.36,1.94-.36s1.39.12,1.96.36c.57.24,1.06.57,1.47.99.41.42.72.91.94,1.45.21.55.32,1.14.32,1.77s-.11,1.18-.32,1.72c-.22.54-.53,1.03-.94,1.45-.41.43-.9.76-1.47,1.01-.57.25-1.22.37-1.95.37ZM361.37,373.47c0,.5.1.95.31,1.35s.48.71.84.93c.36.22.75.33,1.18.33s.82-.11,1.17-.34c.35-.23.63-.54.84-.93.21-.39.31-.85.31-1.36s-.1-.95-.31-1.34-.49-.71-.84-.93c-.35-.23-.75-.34-1.19-.34s-.82.11-1.17.34c-.35.23-.63.54-.83.93s-.31.85-.31,1.36Z"/>
    <path class="st9" d="M372.17,375.25c0-.57.16-1.07.48-1.5s.77-.76,1.34-1,1.24-.36,2-.36c.37,0,.75.03,1.14.08.38.06.72.15,1,.27v-.49c0-.54-.16-.97-.49-1.27-.33-.3-.82-.45-1.48-.45-.5,0-.97.08-1.41.25s-.91.41-1.39.73l-.71-1.48c.58-.4,1.18-.69,1.79-.88.62-.19,1.27-.28,1.95-.28,1.27,0,2.26.31,2.97.93.71.62,1.06,1.52,1.06,2.69v2.8c0,.23.04.4.13.5s.22.16.42.18v1.85c-.2.03-.39.06-.55.08s-.3.03-.42.02c-.45,0-.8-.1-1.03-.3s-.37-.45-.42-.74l-.05-.46c-.4.5-.88.88-1.46,1.16-.58.27-1.17.41-1.77.41s-1.12-.12-1.59-.37c-.47-.25-.84-.58-1.11-1s-.4-.89-.4-1.4ZM377.71,375.68c.12-.11.23-.24.31-.38s.12-.26.12-.36v-.88c-.27-.11-.57-.2-.88-.26s-.62-.09-.9-.09c-.59,0-1.07.12-1.45.37-.38.25-.57.58-.57.99,0,.22.06.43.19.64.12.21.3.37.54.49.23.12.52.18.86.18s.67-.07,1-.2c.33-.13.59-.3.8-.5Z"/>
    <path class="st9" d="M388.79,378.02c-.57,0-1.09-.12-1.56-.35-.48-.24-.89-.56-1.24-.98-.35-.42-.62-.91-.81-1.47-.19-.56-.28-1.15-.28-1.78s.11-1.23.32-1.77c.21-.54.5-1.03.88-1.45.37-.42.82-.75,1.33-.98s1.06-.34,1.65-.34c.68,0,1.28.15,1.8.46.52.31.95.71,1.27,1.22v-1.54h1.99v12.44h-2.28v-5.17c-.68,1.14-1.7,1.71-3.06,1.71ZM389.64,376.09c.33,0,.63-.06.9-.18.27-.12.52-.29.73-.5.22-.21.41-.45.58-.73v-2.1c-.06-.24-.16-.47-.31-.69-.15-.22-.33-.4-.54-.56-.21-.16-.43-.28-.67-.37-.24-.08-.48-.12-.71-.12-.36,0-.69.07-.98.22-.29.14-.54.34-.75.59-.21.25-.37.53-.49.85-.12.32-.18.65-.18.99,0,.49.1.93.31,1.32s.5.7.86.93.78.35,1.26.35Z"/>
    <path class="st9" d="M395.51,374.55v-5.52h2.29v5.02c0,.67.12,1.18.37,1.52.25.34.62.51,1.1.51.29,0,.59-.06.88-.17.29-.12.55-.29.8-.52.24-.23.45-.53.62-.88v-5.47h2.29v6.28c0,.23.04.4.12.5.08.1.22.16.41.19v1.85c-.23.03-.42.06-.57.08-.15.02-.29.03-.42.03-.4,0-.72-.09-.98-.29-.25-.19-.41-.44-.47-.76l-.05-.71c-.4.59-.9,1.05-1.52,1.36-.62.31-1.31.46-2.07.46-.92,0-1.62-.29-2.1-.88-.48-.59-.72-1.45-.72-2.59Z"/>
    <path class="st9" d="M404.91,375.25c0-.57.16-1.07.48-1.5s.77-.76,1.34-1,1.24-.36,2-.36c.37,0,.75.03,1.14.08.38.06.72.15,1,.27v-.49c0-.54-.16-.97-.49-1.27-.33-.3-.82-.45-1.48-.45-.5,0-.97.08-1.41.25s-.91.41-1.39.73l-.71-1.48c.58-.4,1.18-.69,1.79-.88.62-.19,1.27-.28,1.95-.28,1.27,0,2.26.31,2.97.93.71.62,1.06,1.52,1.06,2.69v2.8c0,.23.04.4.13.5s.22.16.42.18v1.85c-.2.03-.39.06-.55.08s-.3.03-.42.02c-.45,0-.8-.1-1.03-.3s-.37-.45-.42-.74l-.05-.46c-.4.5-.88.88-1.46,1.16-.58.27-1.17.41-1.77.41s-1.12-.12-1.59-.37c-.47-.25-.84-.58-1.11-1s-.4-.89-.4-1.4ZM410.45,375.68c.12-.11.23-.24.31-.38s.12-.26.12-.36v-.88c-.27-.11-.57-.2-.88-.26s-.62-.09-.9-.09c-.59,0-1.07.12-1.45.37-.38.25-.57.58-.57.99,0,.22.06.43.19.64.12.21.3.37.54.49.23.12.52.18.86.18s.67-.07,1-.2c.33-.13.59-.3.8-.5Z"/>
    <path class="st9" d="M419.94,377.41c-.2.09-.44.18-.71.28-.27.1-.56.17-.87.24s-.63.09-.94.09c-.43,0-.82-.07-1.17-.22-.35-.15-.63-.38-.84-.7-.21-.32-.31-.74-.31-1.25v-5.09h-1.16v-1.73h1.16v-2.89h2.29v2.89h1.87v1.73h-1.87v4.31c.01.3.1.52.25.66.16.14.36.21.61.21.23,0,.45-.04.68-.13s.41-.16.56-.23l.44,1.82Z"/>
    <path class="st9" d="M425.84,377.41c-.2.09-.44.18-.71.28-.27.1-.56.17-.87.24s-.63.09-.94.09c-.43,0-.82-.07-1.17-.22-.35-.15-.63-.38-.84-.7-.21-.32-.31-.74-.31-1.25v-5.09h-1.16v-1.73h1.16v-2.89h2.29v2.89h1.87v1.73h-1.87v4.31c.01.3.1.52.25.66.16.14.36.21.61.21.23,0,.45-.04.68-.13s.41-.16.56-.23l.44,1.82Z"/>
    <path class="st9" d="M431.75,370.92c-.7.01-1.33.14-1.87.4-.54.25-.94.63-1.19,1.13v5.41h-2.26v-8.82h2.09v1.82c.32-.61.72-1.09,1.21-1.45.49-.35,1.01-.54,1.56-.58.11.01.2.01.27,0,.07,0,.13,0,.19.03v2.06Z"/>
    <path class="st9" d="M436.41,378.02c-.72,0-1.37-.12-1.95-.37-.57-.25-1.06-.58-1.47-1.01-.41-.43-.72-.91-.93-1.45-.21-.54-.31-1.12-.31-1.72s.1-1.22.31-1.77c.21-.55.52-1.03.92-1.45.4-.42.89-.75,1.47-.99.58-.24,1.22-.36,1.94-.36s1.39.12,1.96.36c.57.24,1.06.57,1.47.99.41.42.72.91.94,1.45.21.55.32,1.14.32,1.77s-.11,1.18-.32,1.72c-.22.54-.53,1.03-.94,1.45-.41.43-.9.76-1.47,1.01-.57.25-1.22.37-1.95.37ZM434.08,373.47c0,.5.1.95.31,1.35s.48.71.84.93c.36.22.75.33,1.18.33s.82-.11,1.17-.34c.35-.23.63-.54.84-.93.21-.39.31-.85.31-1.36s-.1-.95-.31-1.34-.49-.71-.84-.93c-.35-.23-.75-.34-1.19-.34s-.82.11-1.17.34c-.35.23-.63.54-.83.93s-.31.85-.31,1.36Z"/>
    <path class="st9" d="M444.89,376.48l4.93-5.85h-4.71v-1.6h7.14v1.39l-4.88,5.83h4.96v1.6h-7.45v-1.38Z"/>
    <path class="st9" d="M452.66,375.25c0-.57.16-1.07.48-1.5s.77-.76,1.34-1,1.24-.36,2-.36c.37,0,.75.03,1.14.08.38.06.72.15,1,.27v-.49c0-.54-.16-.97-.49-1.27-.33-.3-.82-.45-1.48-.45-.5,0-.97.08-1.41.25s-.91.41-1.39.73l-.71-1.48c.58-.4,1.18-.69,1.79-.88.62-.19,1.27-.28,1.95-.28,1.27,0,2.26.31,2.97.93.71.62,1.06,1.52,1.06,2.69v2.8c0,.23.04.4.13.5s.22.16.42.18v1.85c-.2.03-.39.06-.55.08s-.3.03-.42.02c-.45,0-.8-.1-1.03-.3s-.37-.45-.42-.74l-.05-.46c-.4.5-.88.88-1.46,1.16-.58.27-1.17.41-1.77.41s-1.12-.12-1.59-.37c-.47-.25-.84-.58-1.11-1s-.4-.89-.4-1.4ZM458.2,375.68c.12-.11.23-.24.31-.38s.12-.26.12-.36v-.88c-.27-.11-.57-.2-.88-.26s-.62-.09-.9-.09c-.59,0-1.07.12-1.45.37-.38.25-.57.58-.57.99,0,.22.06.43.19.64.12.21.3.37.54.49.23.12.52.18.86.18s.67-.07,1-.2c.33-.13.59-.3.8-.5Z"/>
    <path class="st9" d="M476.28,377.85h-2.28v-4.93c0-.7-.12-1.22-.37-1.54-.24-.32-.58-.49-1.01-.49-.45,0-.88.17-1.28.51-.4.34-.68.78-.85,1.32v5.13h-2.3v-4.93c0-.7-.12-1.22-.36-1.54-.24-.32-.57-.49-1-.49s-.87.17-1.28.5-.7.77-.87,1.31v5.14h-2.26v-8.82h2.06v1.65c.34-.57.8-1.01,1.37-1.32.57-.31,1.22-.46,1.95-.46s1.31.18,1.73.54c.41.36.68.8.79,1.33.36-.61.83-1.07,1.39-1.39.56-.32,1.2-.48,1.91-.48.54,0,.99.1,1.33.29.35.2.62.46.81.79.19.33.33.7.4,1.12.07.41.11.83.11,1.24v5.51Z"/>
    <path class="st9" d="M483.01,378.02c-.69,0-1.3-.16-1.84-.47-.53-.31-.95-.73-1.24-1.24v5.17h-2.26v-12.44h1.99v1.53c.34-.51.77-.92,1.29-1.22s1.12-.45,1.79-.45c.6,0,1.15.12,1.66.35.5.24.95.56,1.33.98.38.42.67.9.88,1.45.2.55.31,1.13.31,1.75,0,.85-.17,1.63-.5,2.32-.33.7-.79,1.25-1.38,1.66-.58.41-1.26.61-2.01.61ZM482.24,376.09c.34,0,.66-.07.94-.22.29-.14.54-.34.74-.58.2-.24.36-.53.48-.86.11-.33.17-.66.17-1.01s-.06-.69-.18-1.01c-.12-.32-.29-.59-.52-.83-.23-.23-.49-.42-.79-.55-.3-.13-.63-.2-.99-.2-.2,0-.42.04-.64.11-.22.07-.43.17-.64.31s-.38.28-.53.46c-.15.17-.27.37-.36.59v2.07c.15.32.34.61.57.88s.5.47.81.62.62.22.93.22Z"/>
    <path class="st9" d="M491.98,378.02c-.71,0-1.36-.12-1.94-.36s-1.07-.57-1.48-.99c-.41-.42-.72-.9-.93-1.44-.22-.54-.32-1.12-.32-1.73,0-.83.19-1.59.57-2.3.38-.7.92-1.26,1.62-1.68.7-.42,1.53-.63,2.51-.63s1.79.21,2.48.63,1.22.97,1.6,1.66.56,1.43.56,2.24c0,.15,0,.28-.02.41-.01.13-.02.24-.03.33h-6.87c.03.47.16.86.38,1.19.22.33.5.58.85.76.35.18.71.27,1.1.27.46,0,.9-.11,1.3-.33.4-.22.68-.52.82-.89l1.94.54c-.2.45-.5.86-.9,1.21-.4.35-.87.63-1.41.82-.54.2-1.15.3-1.82.3ZM489.65,372.74h4.66c-.04-.44-.17-.83-.38-1.15-.21-.33-.48-.58-.82-.76s-.72-.27-1.14-.27-.78.09-1.11.27c-.33.18-.61.44-.82.76-.21.33-.34.71-.38,1.15Z"/>
  </g>
</svg>