<?xml version="1.0" encoding="utf-8"?>
<svg xmlns="http://www.w3.org/2000/svg" viewBox="0 0 500 500">
  <defs>
    <linearGradient id="linear-gradient" x1="335.46" y1="211.95" x2="436.29" y2="312.78" gradientUnits="userSpaceOnUse">
      <stop offset="0.2" stop-color="#00bbaf"/>
      <stop offset="1" stop-color="#00a79b"/>
    </linearGradient>
    <linearGradient id="linear-gradient1" x1="388.77" y1="264.11" x2="439.89" y2="315.23" gradientTransform="translate(-9.84 13.18) rotate(-1.81)" gradientUnits="userSpaceOnUse">
      <stop offset="0.6" stop-color="#00bbaf" stop-opacity="0"/>
      <stop offset="0.8" stop-color="#009187" stop-opacity=".48"/>
      <stop offset="1" stop-color="#00655e"/>
    </linearGradient>
    <linearGradient id="linear-gradient2" x1="360.51" y1="225.2" x2="396.66" y2="261.36" gradientUnits="userSpaceOnUse">
      <stop offset="0" stop-color="#fff"/>
      <stop offset="0.21" stop-color="#fff" stop-opacity=".81"/>
      <stop offset="0.69" stop-color="#fff" stop-opacity=".32"/>
      <stop offset="1" stop-color="#fff" stop-opacity="0"/>
    </linearGradient>
    <linearGradient id="linear-gradient3" x1="390.51" y1="290.78" x2="398.34" y2="298.61" gradientUnits="userSpaceOnUse">
      <stop offset="0" stop-color="#fff"/>
      <stop offset="0.08" stop-color="#fff" stop-opacity=".88"/>
      <stop offset="0.28" stop-color="#fff" stop-opacity=".61"/>
      <stop offset="0.46" stop-color="#fff" stop-opacity=".4"/>
      <stop offset="0.63" stop-color="#fff" stop-opacity=".22"/>
      <stop offset="0.78" stop-color="#fff" stop-opacity=".1"/>
      <stop offset="0.91" stop-color="#fff" stop-opacity=".03"/>
      <stop offset="1" stop-color="#fff" stop-opacity="0"/>
    </linearGradient>
    <linearGradient id="linear-gradient4" x1="398.17" y1="302.53" x2="416.08" y2="320.45" href="#linear-gradient3"/>
    <linearGradient id="linear-gradient5" x1="415.16" y1="287.89" x2="422.32" y2="295.05" href="#linear-gradient3"/>
    <linearGradient id="linear-gradient6" x1="402.51" y1="283.87" x2="410.16" y2="291.52" href="#linear-gradient3"/>
    <linearGradient id="linear-gradient7" x1="419.83" y1="301.07" x2="426.86" y2="308.1" href="#linear-gradient3"/>
  </defs>
  <g id="Layer_1" style="" transform="matrix(1.138172, 0, 0, 1.348259, -0.53759, -81.350616)">
    <g class="st12" style="display: none;" transform="matrix(1, 0, 0, 1, -150.477829, -148.424454)">
      <g>
        <path class="st9" d="M464.92,265.57c0,55.5-64.04,111.07-64.04,111.07,0,0-64.04-55.56-64.04-111.07,0-33.26,28.67-60.23,64.04-60.23s64.04,26.97,64.04,60.23Z" style="fill: url(&quot;#linear-gradient&quot;);"/>
        <g>
          <path class="st6" d="M460.86,255.45c7.37,49.2-56.46,115.19-61.16,113.34-49.53-19.56,46.85-208.85,61.16-113.34Z" style="fill: url(&quot;#linear-gradient1&quot;); opacity: 0.15;"/>
          <path class="st7" d="M345.94,292.5c-16.47-60.07,32.94-102.7,92.04-71.7l-92.04,71.7Z" style="fill: url(&quot;#linear-gradient2&quot;); opacity: 0.15;"/>
          <path class="st10" d="M367.37,282.24c-6.58,1.08-12.99-4.58-14.3-12.64-1.71-10.46,2.06-20.94,8.65-22.02,6.58-1.08,13.62,8.43,15.2,18.12,1.31,8.05-2.96,15.46-9.54,16.53Z" style="fill: rgb(255, 255, 255);"/>
          <path class="st10" d="M420.84,314.47c-9.44.17-13.2-3.88-19.25-3.77-6.05.11-9.66,4.31-19.1,4.48-12.35.23-21.8-14.94-10.79-25.29,13.69-12.86,17.36-28.78,28.97-28.99,11.61-.21,15.87,15.56,30.02,27.91,11.39,9.93,2.5,25.44-9.85,25.67Z" style="fill: rgb(255, 255, 255);"/>
          <path class="st10" d="M403.32,240.29c.66-9.8,6.76-19.93,13.42-19.48,6.66.45,11.4,10.53,10.69,21.1-.55,8.14-6.39,14.38-13.04,13.94-6.66-.45-11.61-7.41-11.06-15.55Z" style="fill: rgb(255, 255, 255);"/>
          <path class="st10" d="M373.23,242.9c-1.1-10.54,3.27-20.79,9.91-21.48,6.64-.69,13.11,9.2,14.12,18.98.85,8.12-3.85,15.26-10.48,15.95-6.64.69-12.7-5.33-13.55-13.45Z" style="fill: rgb(255, 255, 255);"/>
          <path class="st10" d="M434.74,281c-6.62-.83-11.16-8.07-10.14-16.17,1.23-9.75,7.91-19.5,14.52-18.67,6.62.83,10.77,11.17,9.45,21.68-1.02,8.1-7.21,13.99-13.83,13.16Z" style="fill: rgb(255, 255, 255);"/>
        </g>
        <g>
          <path class="st0" d="M395.45,303.42c-2.67-.48-4.37-3.52-3.79-6.79.76-4.25,3.62-7.77,6.3-7.29,2.67.48,4.09,5.08,3.39,9.02-.58,3.27-3.22,5.54-5.9,5.06Z" style="fill: rgb(246, 146, 30);"/>
          <path class="st0" d="M411.64,323.03c-3.65-1.21-4.55-3.28-6.89-4.05-2.34-.78-4.29.35-7.94-.86-4.78-1.58-6.36-8.69-.73-11.17,7-3.09,10.56-8.71,15.05-7.22,4.49,1.49,3.99,8.12,7.76,14.78,3.03,5.36-2.48,10.11-7.25,8.53Z" style="fill: rgb(246, 146, 30);"/>
          <path class="st0" d="M414.93,292.17c1.58-3.68,5.29-6.74,7.79-5.67,2.5,1.07,2.96,5.59,1.25,9.55-1.31,3.05-4.4,4.66-6.89,3.59-2.5-1.07-3.46-4.42-2.15-7.47Z" style="fill: rgb(246, 146, 30);"/>
          <path class="st0" d="M403.02,289.11c1-4.2,4.07-7.54,6.71-6.91,2.64.63,3.79,5.31,2.86,9.2-.77,3.23-3.54,5.34-6.18,4.71-2.64-.63-4.16-3.76-3.39-7Z" style="fill: rgb(246, 146, 30);"/>
          <path class="st0" d="M421.5,312.05c-2.43-1.21-3.2-4.61-1.71-7.58,1.79-3.58,5.67-6.42,8.1-5.21,2.43,1.21,2.63,5.75.7,9.61-1.49,2.97-4.66,4.4-7.09,3.18Z" style="fill: rgb(246, 146, 30);"/>
        </g>
        <g class="st11" style="opacity: 0.5;">
          <path class="st1" d="M393.15,301.27c-2.57-.46-4.2-3.4-3.64-6.56.73-4.1,3.48-7.51,6.05-7.04,2.57.46,3.93,4.91,3.26,8.71-.56,3.16-3.1,5.35-5.67,4.89Z" style="fill: url(&quot;#linear-gradient3&quot;);"/>
          <path class="st5" d="M410.65,321.18c-3.51-1.17-4.37-3.17-6.62-3.92-2.25-.75-4.13.34-7.64-.83-4.59-1.53-6.11-8.39-.7-10.8,6.73-2.98,10.15-8.42,14.47-6.98,4.32,1.44,3.84,7.85,7.46,14.28,2.92,5.18-2.38,9.77-6.97,8.24Z" style="fill: url(&quot;#linear-gradient4&quot;);"/>
          <path class="st4" d="M413.82,290.39c1.52-3.55,5.09-6.51,7.49-5.48,2.4,1.04,2.84,5.4,1.21,9.23-1.26,2.95-4.23,4.5-6.63,3.47-2.4-1.04-3.32-4.27-2.06-7.22Z" style="fill: url(&quot;#linear-gradient5&quot;);"/>
          <path class="st2" d="M401.4,287.43c.96-4.05,3.91-7.29,6.45-6.68,2.54.61,3.64,5.13,2.75,8.89-.74,3.12-3.4,5.16-5.94,4.55-2.54-.61-4-3.64-3.26-6.76Z" style="fill: url(&quot;#linear-gradient6&quot;);"/>
          <path class="st3" d="M420.13,310.58c-2.34-1.17-3.07-4.45-1.64-7.33,1.72-3.46,5.45-6.21,7.79-5.03,2.34,1.17,2.53,5.55.67,9.28-1.43,2.87-4.48,4.25-6.82,3.08Z" style="fill: url(&quot;#linear-gradient7&quot;);"/>
        </g>
      </g>
      <g>
        <path class="st0" d="M94.91,487.74v-127.41h54.37c6.1,0,11.66,1.26,16.69,3.77,5.03,2.51,9.42,5.8,13.19,9.87,3.77,4.07,6.67,8.67,8.7,13.82,2.03,5.14,3.05,10.41,3.05,15.79,0,7.18-1.7,14.09-5.11,20.73-3.41,6.64-8.14,12.02-14.18,16.15-6.04,4.13-13.13,6.19-21.27,6.19h-26.02v41.09h-29.43Z" style="fill: rgb(246, 146, 30);"/>
        <path class="st0" d="M257.85,418.11c-6.94,0-13.22,1.11-18.84,3.32-5.63,2.21-9.69,5.47-12.2,9.78v56.53h-28.71v-93.14h26.2v17.95c3.35-6.34,7.6-11.31,12.74-14.9,5.14-3.59,10.53-5.44,16.15-5.56h2.87c.6,0,1.19.06,1.79.18v25.84Z" style="fill: rgb(246, 146, 30);"/>
        <path class="st0" d="M263.59,382.94v-26.2h28.71v26.2h-28.71ZM263.59,487.74v-94.21h28.71v94.21h-28.71Z" style="fill: rgb(246, 146, 30);"/>
        <path class="st0" d="M350.8,489.53c-8.02,0-15.14-1.27-21.35-3.81-6.22-2.54-11.52-6-15.88-10.38-4.37-4.38-7.69-9.44-9.96-15.17-2.27-5.74-3.41-11.74-3.41-18.01,0-8.96,2-17.13,6.01-24.5,4.01-7.37,9.78-13.29,17.32-17.77s16.63-6.72,27.28-6.72,19.74,2.21,27.28,6.64,13.25,10.31,17.14,17.63c3.89,7.32,5.83,15.18,5.83,23.57,0,1.65-.09,3.28-.27,4.87-.18,1.59-.33,2.98-.45,4.16h-69.63c.24,4.07,1.37,7.5,3.41,10.29,2.03,2.79,4.6,4.89,7.72,6.28,3.11,1.4,6.34,2.09,9.69,2.09,4.43,0,8.52-1.01,12.29-3.05,3.77-2.03,6.31-4.72,7.63-8.07l24.4,7c-2.39,4.91-5.74,9.18-10.05,12.83-4.31,3.65-9.42,6.58-15.34,8.79-5.92,2.21-12.47,3.32-19.65,3.32ZM330.16,432.47h40.74c-.36-3.8-1.5-7.11-3.41-9.94-1.92-2.82-4.31-5.01-7.18-6.57-2.87-1.56-6.22-2.34-10.05-2.34-3.47,0-6.7.78-9.69,2.34-2.99,1.56-5.38,3.72-7.18,6.48-1.79,2.76-2.87,6.11-3.23,10.02Z" style="fill: rgb(246, 146, 30);"/>
        <path class="st0" d="M498.84,487.74h-28.71v-52c0-6.11-1.23-10.54-3.68-13.31-2.45-2.76-5.54-4.14-9.24-4.14-2.63,0-5.32.69-8.07,2.08-2.75,1.39-5.27,3.3-7.54,5.73-2.27,2.43-3.95,5.21-5.02,8.33v53.31h-28.71v-93.14h25.84v15.92c2.39-3.78,5.38-6.96,8.97-9.56s7.72-4.55,12.38-5.85c4.67-1.3,9.69-1.95,15.07-1.95,6.22,0,11.22,1.06,14.98,3.19,3.77,2.12,6.64,4.93,8.61,8.41,1.97,3.48,3.32,7.29,4.04,11.42.72,4.13,1.08,8.15,1.08,12.04v59.5Z" style="fill: rgb(246, 146, 30);"/>
        <path class="st0" d="M506.02,441.17c0-8.98,1.79-17.1,5.38-24.36,3.59-7.26,8.49-13.02,14.71-17.27,6.22-4.25,13.4-6.38,21.53-6.38,6.58,0,12.56,1.56,17.95,4.67,5.38,3.11,9.45,7.24,12.2,12.38v-53.48h28.71v99.06c0,2.87.45,4.91,1.35,6.1.9,1.2,2.54,1.86,4.93,1.97v23.87c-5.14.96-9.27,1.43-12.38,1.43-5.02,0-9.04-1.08-12.02-3.23-2.99-2.15-4.85-5.14-5.56-8.97l-.36-4.84c-3.47,5.86-8.07,10.23-13.82,13.1-5.74,2.87-11.78,4.31-18.13,4.31s-12.41-1.21-17.86-3.63c-5.45-2.42-10.17-5.82-14.18-10.18-4.01-4.37-7.09-9.48-9.24-15.32-2.15-5.85-3.23-12.25-3.23-19.22ZM577.98,452.54v-19.24c-1.2-3.15-2.9-5.89-5.11-8.22-2.21-2.33-4.73-4.23-7.54-5.68-2.81-1.46-5.59-2.19-8.34-2.19-3.23,0-6.16.7-8.79,2.1-2.63,1.4-4.88,3.2-6.73,5.42-1.86,2.21-3.29,4.78-4.31,7.7-1.02,2.92-1.53,6.06-1.53,9.44s.57,6.47,1.7,9.27c1.14,2.8,2.69,5.25,4.67,7.35,1.97,2.1,4.36,3.76,7.18,4.98,2.81,1.23,5.83,1.84,9.06,1.84,2.03,0,4.01-.29,5.92-.87,1.91-.58,3.74-1.45,5.47-2.62,1.73-1.17,3.32-2.51,4.76-4.02,1.43-1.51,2.63-3.26,3.59-5.25Z" style="fill: rgb(246, 146, 30);"/>
        <path class="st0" d="M658.55,489.53c-8.02,0-15.82-1.34-23.42-4.04-7.6-2.69-14.09-6.61-19.47-11.75l10.05-17.95c5.62,4.19,11.15,7.33,16.6,9.42,5.44,2.09,10.56,3.14,15.34,3.14,3.59,0,6.43-.54,8.52-1.61,2.09-1.07,3.14-2.79,3.14-5.16,0-1.77-.63-3.12-1.88-4.07-1.26-.94-3.08-1.86-5.47-2.74-2.39-.88-5.38-1.8-8.97-2.74-7.18-2.47-13.16-4.8-17.95-6.98-4.79-2.18-8.38-4.89-10.77-8.13-2.39-3.24-3.59-7.45-3.59-12.64,0-6.25,1.61-11.7,4.84-16.36,3.23-4.65,7.74-8.28,13.55-10.87,5.8-2.59,12.77-3.89,20.91-3.89,6.46,0,12.8,1.02,19.02,3.05,6.22,2.04,12.02,5.5,17.41,10.41l-11.31,17.76c-5.27-3.71-10.02-6.4-14.27-8.07-4.25-1.67-8.35-2.51-12.29-2.51-2.04,0-3.89.24-5.56.7-1.68.47-3.02,1.23-4.04,2.29-1.02,1.06-1.52,2.52-1.52,4.4,0,1.64.51,3.02,1.52,4.14,1.02,1.12,2.63,2.06,4.85,2.82,2.21.76,4.93,1.62,8.17,2.55,7.9,2.35,14.45,4.64,19.65,6.87,5.2,2.23,9.09,5.05,11.66,8.45,2.57,3.4,3.86,7.86,3.86,13.38,0,9.39-3.47,16.76-10.41,22.1-6.94,5.34-16.33,8.01-28.17,8.01Z" style="fill: rgb(246, 146, 30);"/>
      </g>
      <g>
        <path class="st13" d="M102.5,515.25h3.32l12.68,31.06h-4.2l-3.48-9.1h-13.36l-3.5,9.1h-4.2l12.73-31.06ZM109.66,534.15l-5.49-14.35-5.52,14.35h11.01Z" style="fill: rgb(0, 167, 155);"/>
        <path class="st13" d="M132.81,546.75c-1.87,0-3.53-.46-4.99-1.39-1.46-.93-2.61-2.1-3.46-3.52v13.79h-3.85v-32.02h3.41v4.3c.9-1.39,2.08-2.51,3.54-3.37,1.46-.85,3.05-1.28,4.77-1.28,1.57,0,3.02.32,4.33.95,1.31.64,2.45,1.51,3.41,2.61.96,1.1,1.71,2.35,2.25,3.76.54,1.4.81,2.87.81,4.41,0,2.14-.43,4.11-1.29,5.91-.86,1.79-2.06,3.22-3.61,4.28s-3.32,1.58-5.34,1.58ZM131.63,543.42c1.14,0,2.17-.24,3.08-.71.92-.48,1.71-1.11,2.36-1.9.66-.79,1.16-1.7,1.51-2.71.35-1.01.53-2.05.53-3.12,0-1.12-.2-2.19-.59-3.2-.39-1.01-.95-1.9-1.66-2.68-.72-.78-1.55-1.39-2.49-1.84s-1.98-.67-3.08-.67c-.7,0-1.42.13-2.17.39s-1.45.63-2.12,1.1c-.67.48-1.24,1.02-1.71,1.62-.47.61-.77,1.25-.92,1.94v6.47c.44.98,1.02,1.87,1.75,2.68.73.81,1.57,1.45,2.54,1.92.96.47,1.95.71,2.97.71Z" style="fill: rgb(0, 167, 155);"/>
        <path class="st13" d="M158.53,546.75c-1.87,0-3.53-.46-4.99-1.39-1.46-.93-2.61-2.1-3.46-3.52v13.79h-3.85v-32.02h3.41v4.3c.9-1.39,2.08-2.51,3.54-3.37,1.46-.85,3.05-1.28,4.77-1.28,1.57,0,3.02.32,4.33.95,1.31.64,2.45,1.51,3.41,2.61.96,1.1,1.71,2.35,2.25,3.76.54,1.4.81,2.87.81,4.41,0,2.14-.43,4.11-1.29,5.91-.86,1.79-2.06,3.22-3.61,4.28s-3.32,1.58-5.34,1.58ZM157.35,543.42c1.14,0,2.17-.24,3.08-.71.92-.48,1.71-1.11,2.36-1.9.66-.79,1.16-1.7,1.51-2.71.35-1.01.53-2.05.53-3.12,0-1.12-.2-2.19-.59-3.2-.39-1.01-.95-1.9-1.66-2.68-.72-.78-1.55-1.39-2.49-1.84s-1.98-.67-3.08-.67c-.7,0-1.42.13-2.17.39s-1.45.63-2.12,1.1c-.67.48-1.24,1.02-1.71,1.62-.47.61-.77,1.25-.92,1.94v6.47c.44.98,1.02,1.87,1.75,2.68.73.81,1.57,1.45,2.54,1.92.96.47,1.95.71,2.97.71Z" style="fill: rgb(0, 167, 155);"/>
        <path class="st13" d="M171.74,537.22v-13.61h3.85v12.86c0,2.32.41,4.06,1.22,5.22.82,1.16,2.03,1.74,3.63,1.74,1.05,0,2.06-.22,3.04-.67.98-.45,1.86-1.09,2.65-1.93.79-.84,1.4-1.83,1.84-2.99v-14.22h3.85v18.34c0,.46.09.8.28,1.02.19.22.5.34.94.37v2.97c-.44.06-.78.09-1.03.11s-.49.02-.72.02c-.73,0-1.36-.22-1.88-.67-.52-.45-.8-1.01-.83-1.67l-.09-2.65c-.99,1.68-2.33,2.99-4,3.92s-3.51,1.39-5.49,1.39c-2.39,0-4.2-.8-5.42-2.41s-1.84-3.98-1.84-7.11Z" style="fill: rgb(0, 167, 155);"/>
        <path class="st13" d="M216.53,546.31h-3.85v-12.66c0-2.4-.37-4.15-1.12-5.27-.74-1.11-1.87-1.67-3.39-1.67-1.05,0-2.09.26-3.13.78-1.04.52-1.95,1.22-2.76,2.1-.8.88-1.38,1.89-1.73,3.05v13.67h-3.85v-22.7h3.5v4.9c.61-1.07,1.4-2,2.36-2.78.96-.78,2.06-1.39,3.28-1.82,1.22-.43,2.51-.65,3.85-.65s2.41.24,3.3.72c.89.48,1.59,1.14,2.1,2s.87,1.86,1.09,3.02c.22,1.16.33,2.42.33,3.78v13.54Z" style="fill: rgb(0, 167, 155);"/>
        <path class="st13" d="M232.59,545.3c-.32.15-.76.34-1.31.57-.55.23-1.2.44-1.92.61-.73.17-1.5.26-2.32.26-.93,0-1.79-.17-2.58-.5-.79-.34-1.42-.86-1.88-1.58-.47-.71-.7-1.61-.7-2.69v-15.35h-3.11v-3.02h3.11v-7.61h3.85v7.61h5.12v3.02h-5.12v14.17c.06.82.34,1.42.83,1.82.5.39,1.08.59,1.75.59.76,0,1.46-.13,2.1-.39s1.06-.45,1.27-.57l.92,3.06Z" style="fill: rgb(0, 167, 155);"/>
        <path class="st13" d="M232.85,539.75c0-1.45.42-2.7,1.25-3.76.83-1.06,1.98-1.88,3.43-2.46,1.46-.58,3.15-.87,5.07-.87,1.02,0,2.1.08,3.24.24,1.14.16,2.14.4,3.02.72v-1.65c0-1.73-.52-3.09-1.57-4.08-1.05-.99-2.54-1.49-4.46-1.49-1.25,0-2.46.23-3.61.68s-2.37,1.1-3.65,1.95l-1.4-2.71c1.49-1.02,2.97-1.79,4.46-2.3,1.49-.51,3.03-.76,4.64-.76,2.92,0,5.22.8,6.91,2.41s2.54,3.84,2.54,6.7v9.58c0,.46.09.8.28,1.02.19.22.5.34.94.37v2.97c-.38.06-.71.1-.98.13-.28.03-.5.04-.68.04-.9,0-1.58-.25-2.03-.74-.45-.5-.71-1.02-.77-1.58l-.09-1.44c-.99,1.28-2.29,2.28-3.89,2.97s-3.19,1.05-4.77,1.05-2.87-.31-4.07-.93c-1.2-.62-2.13-1.46-2.8-2.52-.67-1.06-1.01-2.24-1.01-3.54ZM247.72,541.35c.35-.4.63-.81.83-1.23.2-.42.31-.77.31-1.06v-2.81c-.9-.35-1.85-.61-2.84-.8-.99-.19-1.97-.28-2.93-.28-1.95,0-3.54.38-4.75,1.15-1.21.77-1.82,1.81-1.82,3.14,0,.72.2,1.42.59,2.1.39.68.98,1.23,1.75,1.67.77.43,1.73.65,2.87.65,1.2,0,2.33-.24,3.41-.72,1.08-.48,1.94-1.08,2.58-1.8Z" style="fill: rgb(0, 167, 155);"/>
        <path class="st13" d="M291.77,546.31h-3.85v-12.66c0-2.37-.39-4.12-1.16-5.25-.77-1.13-1.92-1.69-3.43-1.69s-2.95.56-4.2,1.67c-1.25,1.11-2.14,2.55-2.67,4.31v13.61h-3.85v-12.66c0-2.4-.38-4.15-1.14-5.27-.76-1.11-1.9-1.67-3.41-1.67s-2.91.54-4.18,1.62c-1.27,1.08-2.17,2.51-2.69,4.3v13.67h-3.85v-22.7h3.5v4.9c.93-1.68,2.14-2.97,3.63-3.89s3.16-1.37,5.03-1.37,3.41.51,4.55,1.54c1.14,1.03,1.84,2.35,2.1,3.97,1.02-1.79,2.26-3.16,3.72-4.1,1.46-.94,3.12-1.41,4.99-1.41,1.31,0,2.41.24,3.3.72.89.48,1.6,1.14,2.12,2,.52.85.9,1.86,1.14,3.02.23,1.16.35,2.42.35,3.78v13.54Z" style="fill: rgb(0, 167, 155);"/>
        <path class="st13" d="M306.33,546.75c-1.72,0-3.29-.31-4.7-.93s-2.64-1.48-3.67-2.56c-1.04-1.09-1.84-2.34-2.41-3.76-.57-1.42-.85-2.92-.85-4.52,0-2.14.5-4.09,1.49-5.86.99-1.77,2.37-3.18,4.13-4.25,1.76-1.07,3.78-1.61,6.06-1.61s4.31.54,6.01,1.63c1.71,1.09,3.03,2.51,3.98,4.26.95,1.75,1.42,3.64,1.42,5.67,0,.29,0,.57-.02.85-.02.28-.04.49-.07.63h-18.94c.12,1.47.53,2.77,1.25,3.91.71,1.14,1.64,2.03,2.78,2.68,1.14.65,2.36.97,3.67.97,1.4,0,2.72-.35,3.96-1.05,1.24-.7,2.09-1.62,2.56-2.76l3.32.92c-.5,1.11-1.23,2.1-2.21,2.97s-2.13,1.56-3.46,2.06c-1.33.5-2.76.74-4.31.74ZM298.63,533.62h15.57c-.12-1.47-.54-2.77-1.27-3.89-.73-1.12-1.66-2-2.8-2.64s-2.39-.95-3.76-.95-2.58.32-3.72.95c-1.14.63-2.06,1.51-2.78,2.64-.72,1.12-1.13,2.42-1.25,3.89Z" style="fill: rgb(0, 167, 155);"/>
        <path class="st13" d="M340.36,546.31h-3.85v-12.66c0-2.4-.37-4.15-1.12-5.27-.74-1.11-1.87-1.67-3.39-1.67-1.05,0-2.09.26-3.13.78-1.04.52-1.95,1.22-2.76,2.1-.8.88-1.38,1.89-1.73,3.05v13.67h-3.85v-22.7h3.5v4.9c.61-1.07,1.4-2,2.36-2.78.96-.78,2.06-1.39,3.28-1.82,1.22-.43,2.51-.65,3.85-.65s2.41.24,3.3.72c.89.48,1.59,1.14,2.1,2s.87,1.86,1.09,3.02c.22,1.16.33,2.42.33,3.78v13.54Z" style="fill: rgb(0, 167, 155);"/>
        <path class="st13" d="M356.41,545.3c-.32.15-.76.34-1.31.57-.55.23-1.2.44-1.92.61-.73.17-1.5.26-2.32.26-.93,0-1.79-.17-2.58-.5-.79-.34-1.42-.86-1.88-1.58-.47-.71-.7-1.61-.7-2.69v-15.35h-3.11v-3.02h3.11v-7.61h3.85v7.61h5.12v3.02h-5.12v14.17c.06.82.34,1.42.83,1.82.5.39,1.08.59,1.75.59.76,0,1.46-.13,2.1-.39s1.06-.45,1.27-.57l.92,3.06Z" style="fill: rgb(0, 167, 155);"/>
        <path class="st13" d="M368.14,546.75c-1.72,0-3.28-.31-4.68-.93-1.4-.62-2.61-1.48-3.63-2.56-1.02-1.09-1.81-2.34-2.36-3.76-.55-1.42-.83-2.91-.83-4.47s.28-3.1.83-4.52c.55-1.42,1.34-2.67,2.36-3.76,1.02-1.09,2.24-1.94,3.65-2.56,1.41-.62,2.97-.93,4.66-.93s3.28.31,4.68.93c1.4.62,2.62,1.48,3.65,2.56,1.03,1.09,1.83,2.34,2.38,3.76.55,1.42.83,2.92.83,4.52s-.28,3.05-.83,4.47c-.55,1.42-1.34,2.67-2.36,3.76-1.02,1.09-2.24,1.94-3.65,2.56-1.42.62-2.98.93-4.7.93ZM360.57,535.07c0,1.56.34,2.97,1.03,4.24.68,1.27,1.6,2.27,2.73,3.01,1.14.74,2.41,1.1,3.81,1.1s2.67-.37,3.83-1.12c1.15-.75,2.07-1.77,2.76-3.05.68-1.28,1.03-2.71,1.03-4.27s-.34-2.97-1.03-4.24c-.69-1.27-1.6-2.28-2.76-3.03-1.15-.75-2.43-1.12-3.83-1.12s-2.67.38-3.81,1.15c-1.14.76-2.05,1.78-2.73,3.05-.69,1.27-1.03,2.7-1.03,4.29Z" style="fill: rgb(0, 167, 155);"/>
        <path class="st13" d="M390.58,539.75c0-1.45.42-2.7,1.25-3.76.83-1.06,1.98-1.88,3.43-2.46,1.46-.58,3.15-.87,5.07-.87,1.02,0,2.1.08,3.24.24,1.14.16,2.14.4,3.02.72v-1.65c0-1.73-.52-3.09-1.57-4.08-1.05-.99-2.54-1.49-4.46-1.49-1.25,0-2.46.23-3.61.68s-2.37,1.1-3.65,1.95l-1.4-2.71c1.49-1.02,2.97-1.79,4.46-2.3,1.49-.51,3.03-.76,4.64-.76,2.92,0,5.22.8,6.91,2.41s2.54,3.84,2.54,6.7v9.58c0,.46.09.8.28,1.02.19.22.5.34.94.37v2.97c-.38.06-.71.1-.98.13-.28.03-.5.04-.68.04-.9,0-1.58-.25-2.03-.74-.45-.5-.71-1.02-.77-1.58l-.09-1.44c-.99,1.28-2.29,2.28-3.89,2.97s-3.19,1.05-4.77,1.05-2.87-.31-4.07-.93c-1.2-.62-2.13-1.46-2.8-2.52-.67-1.06-1.01-2.24-1.01-3.54ZM405.45,541.35c.35-.4.63-.81.83-1.23.2-.42.31-.77.31-1.06v-2.81c-.9-.35-1.85-.61-2.84-.8-.99-.19-1.97-.28-2.93-.28-1.95,0-3.54.38-4.75,1.15-1.21.77-1.82,1.81-1.82,3.14,0,.72.2,1.42.59,2.1.39.68.98,1.23,1.75,1.67.77.43,1.73.65,2.87.65,1.2,0,2.33-.24,3.41-.72,1.08-.48,1.94-1.08,2.58-1.8Z" style="fill: rgb(0, 167, 155);"/>
        <path class="st13" d="M433.35,546.75c-1.52,0-2.9-.32-4.16-.95-1.25-.64-2.33-1.5-3.24-2.58-.9-1.09-1.6-2.34-2.1-3.76-.5-1.42-.74-2.91-.74-4.47s.28-3.1.83-4.52c.55-1.42,1.32-2.66,2.3-3.73.98-1.07,2.12-1.92,3.43-2.54,1.31-.62,2.73-.93,4.24-.93,1.78,0,3.4.44,4.86,1.32,1.46.88,2.61,2,3.46,3.36v-4.34h3.41v32.02h-3.85v-13.79c-2.1,3.27-4.91,4.91-8.44,4.91ZM434.67,543.42c1.08,0,2.06-.22,2.95-.65.89-.43,1.68-1.02,2.38-1.75s1.3-1.55,1.79-2.44v-6.51c-.12-.75-.41-1.45-.87-2.1s-1.04-1.23-1.71-1.75c-.67-.52-1.39-.92-2.17-1.21-.77-.29-1.54-.43-2.3-.43-1.14,0-2.17.24-3.11.71-.93.48-1.74,1.12-2.43,1.93-.69.81-1.22,1.72-1.6,2.73-.38,1.01-.57,2.05-.57,3.12,0,1.5.33,2.89.98,4.16.66,1.27,1.55,2.29,2.69,3.05,1.14.77,2.45,1.15,3.94,1.15Z" style="fill: rgb(0, 167, 155);"/>
        <path class="st13" d="M450.11,537.22v-13.61h3.85v12.86c0,2.32.41,4.06,1.22,5.22.82,1.16,2.03,1.74,3.63,1.74,1.05,0,2.06-.22,3.04-.67.98-.45,1.86-1.09,2.65-1.93.79-.84,1.4-1.83,1.84-2.99v-14.22h3.85v18.34c0,.46.09.8.28,1.02.19.22.5.34.94.37v2.97c-.44.06-.78.09-1.03.11s-.49.02-.72.02c-.73,0-1.36-.22-1.88-.67-.52-.45-.8-1.01-.83-1.67l-.09-2.65c-.99,1.68-2.33,2.99-4,3.92s-3.51,1.39-5.49,1.39c-2.39,0-4.2-.8-5.42-2.41s-1.84-3.98-1.84-7.11Z" style="fill: rgb(0, 167, 155);"/>
        <path class="st13" d="M473.29,539.75c0-1.45.42-2.7,1.25-3.76.83-1.06,1.98-1.88,3.43-2.46,1.46-.58,3.15-.87,5.07-.87,1.02,0,2.1.08,3.24.24s2.14.4,3.02.72v-1.65c0-1.73-.53-3.09-1.57-4.08-1.05-.99-2.54-1.49-4.46-1.49-1.25,0-2.46.23-3.61.68s-2.37,1.1-3.65,1.95l-1.4-2.71c1.49-1.02,2.97-1.79,4.46-2.3,1.49-.51,3.03-.76,4.64-.76,2.92,0,5.22.8,6.91,2.41s2.54,3.84,2.54,6.7v9.58c0,.46.09.8.28,1.02.19.22.5.34.94.37v2.97c-.38.06-.71.1-.98.13-.28.03-.5.04-.68.04-.9,0-1.58-.25-2.03-.74-.45-.5-.71-1.02-.77-1.58l-.09-1.44c-.99,1.28-2.29,2.28-3.89,2.97-1.6.7-3.19,1.05-4.77,1.05s-2.87-.31-4.07-.93c-1.2-.62-2.13-1.46-2.8-2.52-.67-1.06-1.01-2.24-1.01-3.54ZM488.16,541.35c.35-.4.63-.81.83-1.23.2-.42.31-.77.31-1.06v-2.81c-.9-.35-1.85-.61-2.84-.8-.99-.19-1.97-.28-2.93-.28-1.95,0-3.54.38-4.75,1.15-1.21.77-1.82,1.81-1.82,3.14,0,.72.2,1.42.59,2.1.39.68.98,1.23,1.75,1.67.77.43,1.73.65,2.87.65,1.2,0,2.33-.24,3.41-.72,1.08-.48,1.94-1.08,2.58-1.8Z" style="fill: rgb(0, 167, 155);"/>
        <path class="st13" d="M509.42,545.3c-.32.15-.76.34-1.31.57-.55.23-1.2.44-1.92.61-.73.17-1.5.26-2.32.26-.93,0-1.79-.17-2.58-.5-.79-.34-1.41-.86-1.88-1.58-.47-.71-.7-1.61-.7-2.69v-15.35h-3.11v-3.02h3.11v-7.61h3.85v7.61h5.12v3.02h-5.12v14.17c.06.82.34,1.42.83,1.82s1.08.59,1.75.59c.76,0,1.46-.13,2.1-.39.64-.26,1.06-.45,1.27-.57l.92,3.06Z" style="fill: rgb(0, 167, 155);"/>
        <path class="st13" d="M523.28,545.3c-.32.15-.76.34-1.31.57-.55.23-1.2.44-1.92.61-.73.17-1.5.26-2.32.26-.93,0-1.79-.17-2.58-.5-.79-.34-1.41-.86-1.88-1.58-.47-.71-.7-1.61-.7-2.69v-15.35h-3.11v-3.02h3.11v-7.61h3.85v7.61h5.12v3.02h-5.12v14.17c.06.82.34,1.42.83,1.82s1.08.59,1.75.59c.76,0,1.46-.13,2.1-.39.64-.26,1.06-.45,1.27-.57l.92,3.06Z" style="fill: rgb(0, 167, 155);"/>
        <path class="st13" d="M537.41,526.85c-1.92.03-3.62.52-5.1,1.46s-2.52,2.25-3.13,3.91v14.09h-3.85v-22.7h3.59v5.16c.79-1.57,1.83-2.85,3.13-3.83,1.3-.98,2.66-1.52,4.09-1.64h.74c.2,0,.38.02.53.04v3.5Z" style="fill: rgb(0, 167, 155);"/>
        <path class="st13" d="M549.13,546.75c-1.72,0-3.28-.31-4.68-.93-1.4-.62-2.61-1.48-3.63-2.56-1.02-1.09-1.81-2.34-2.36-3.76-.55-1.42-.83-2.91-.83-4.47s.28-3.1.83-4.52c.55-1.42,1.34-2.67,2.36-3.76,1.02-1.09,2.24-1.94,3.65-2.56,1.41-.62,2.97-.93,4.66-.93s3.28.31,4.68.93c1.4.62,2.62,1.48,3.65,2.56,1.03,1.09,1.83,2.34,2.38,3.76.55,1.42.83,2.92.83,4.52s-.28,3.05-.83,4.47c-.56,1.42-1.34,2.67-2.36,3.76-1.02,1.09-2.24,1.94-3.65,2.56s-2.98.93-4.7.93ZM541.57,535.07c0,1.56.34,2.97,1.03,4.24.68,1.27,1.6,2.27,2.73,3.01,1.14.74,2.4,1.1,3.8,1.1s2.68-.37,3.83-1.12c1.15-.75,2.07-1.77,2.76-3.05s1.03-2.71,1.03-4.27-.34-2.97-1.03-4.24c-.69-1.27-1.6-2.28-2.76-3.03-1.15-.75-2.43-1.12-3.83-1.12s-2.67.38-3.8,1.15c-1.14.76-2.05,1.78-2.73,3.05-.69,1.27-1.03,2.7-1.03,4.29Z" style="fill: rgb(0, 167, 155);"/>
        <path class="st13" d="M571.57,543.82l14.39-17.41h-14v-2.8h18.33v2.49l-14.3,17.41h14.35v2.8h-18.76v-2.49Z" style="fill: rgb(0, 167, 155);"/>
        <path class="st13" d="M591.6,539.75c0-1.45.41-2.7,1.25-3.76.83-1.06,1.97-1.88,3.43-2.46,1.46-.58,3.15-.87,5.07-.87,1.02,0,2.1.08,3.24.24s2.14.4,3.02.72v-1.65c0-1.73-.53-3.09-1.57-4.08-1.05-.99-2.54-1.49-4.46-1.49-1.25,0-2.46.23-3.61.68s-2.37,1.1-3.65,1.95l-1.4-2.71c1.49-1.02,2.97-1.79,4.46-2.3,1.49-.51,3.03-.76,4.64-.76,2.92,0,5.22.8,6.91,2.41s2.54,3.84,2.54,6.7v9.58c0,.46.09.8.28,1.02.19.22.5.34.94.37v2.97c-.38.06-.71.1-.98.13-.28.03-.5.04-.68.04-.9,0-1.58-.25-2.03-.74-.45-.5-.71-1.02-.77-1.58l-.09-1.44c-.99,1.28-2.29,2.28-3.89,2.97-1.6.7-3.19,1.05-4.77,1.05s-2.87-.31-4.07-.93c-1.2-.62-2.13-1.46-2.8-2.52-.67-1.06-1.01-2.24-1.01-3.54ZM606.48,541.35c.35-.4.63-.81.83-1.23.2-.42.31-.77.31-1.06v-2.81c-.9-.35-1.85-.61-2.84-.8-.99-.19-1.97-.28-2.93-.28-1.95,0-3.54.38-4.74,1.15-1.21.77-1.82,1.81-1.82,3.14,0,.72.2,1.42.59,2.1.39.68.98,1.23,1.75,1.67s1.73.65,2.87.65c1.2,0,2.33-.24,3.41-.72,1.08-.48,1.94-1.08,2.58-1.8Z" style="fill: rgb(0, 167, 155);"/>
        <path class="st13" d="M650.52,546.31h-3.85v-12.66c0-2.37-.39-4.12-1.16-5.25-.77-1.13-1.92-1.69-3.43-1.69s-2.95.56-4.2,1.67c-1.25,1.11-2.14,2.55-2.67,4.31v13.61h-3.85v-12.66c0-2.4-.38-4.15-1.14-5.27-.76-1.11-1.9-1.67-3.41-1.67s-2.91.54-4.18,1.62-2.16,2.51-2.69,4.3v13.67h-3.85v-22.7h3.5v4.9c.93-1.68,2.14-2.97,3.63-3.89s3.16-1.37,5.03-1.37,3.41.51,4.55,1.54c1.14,1.03,1.84,2.35,2.1,3.97,1.02-1.79,2.26-3.16,3.72-4.1,1.46-.94,3.12-1.41,4.99-1.41,1.31,0,2.41.24,3.3.72.89.48,1.6,1.14,2.12,2,.52.85.9,1.86,1.14,3.02.23,1.16.35,2.42.35,3.78v13.54Z" style="fill: rgb(0, 167, 155);"/>
        <path class="st13" d="M667.28,546.75c-1.87,0-3.53-.46-4.99-1.39-1.46-.93-2.61-2.1-3.46-3.52v13.79h-3.85v-32.02h3.41v4.3c.9-1.39,2.08-2.51,3.54-3.37,1.46-.85,3.05-1.28,4.77-1.28,1.58,0,3.02.32,4.33.95,1.31.64,2.45,1.51,3.41,2.61s1.71,2.35,2.25,3.76c.54,1.4.81,2.87.81,4.41,0,2.14-.43,4.11-1.29,5.91-.86,1.79-2.06,3.22-3.61,4.28-1.54,1.06-3.32,1.58-5.33,1.58ZM666.1,543.42c1.14,0,2.16-.24,3.08-.71s1.71-1.11,2.36-1.9c.65-.79,1.16-1.7,1.51-2.71.35-1.01.52-2.05.52-3.12,0-1.12-.2-2.19-.59-3.2-.4-1.01-.95-1.9-1.66-2.68-.72-.78-1.55-1.39-2.49-1.84-.95-.45-1.98-.67-3.09-.67-.7,0-1.42.13-2.16.39s-1.45.63-2.12,1.1c-.67.48-1.24,1.02-1.71,1.62-.47.61-.77,1.25-.92,1.94v6.47c.44.98,1.02,1.87,1.75,2.68.73.81,1.57,1.45,2.54,1.92.96.47,1.95.71,2.97.71Z" style="fill: rgb(0, 167, 155);"/>
        <path class="st13" d="M690.81,546.75c-1.72,0-3.29-.31-4.7-.93-1.42-.62-2.64-1.48-3.68-2.56s-1.84-2.34-2.41-3.76c-.57-1.42-.85-2.92-.85-4.52,0-2.14.5-4.09,1.49-5.86.99-1.77,2.37-3.18,4.13-4.25s3.78-1.61,6.06-1.61,4.31.54,6.01,1.63c1.71,1.09,3.03,2.51,3.98,4.26.95,1.75,1.42,3.64,1.42,5.67,0,.29,0,.57-.02.85-.02.28-.04.49-.07.63h-18.94c.12,1.47.53,2.77,1.25,3.91.71,1.14,1.64,2.03,2.78,2.68s2.36.97,3.68.97c1.4,0,2.72-.35,3.96-1.05,1.24-.7,2.09-1.62,2.56-2.76l3.32.92c-.5,1.11-1.23,2.1-2.21,2.97s-2.13,1.56-3.46,2.06c-1.33.5-2.76.74-4.31.74ZM683.11,533.62h15.57c-.12-1.47-.54-2.77-1.27-3.89-.73-1.12-1.66-2-2.8-2.64s-2.39-.95-3.76-.95-2.58.32-3.72.95-2.06,1.51-2.78,2.64c-.72,1.12-1.13,2.42-1.25,3.89Z" style="fill: rgb(0, 167, 155);"/>
      </g>
      <g>
        <path class="st10" d="M126.64,401.78c-2.82-.5-4.61-3.71-3.99-7.16.8-4.48,3.82-8.19,6.64-7.68,2.82.5,4.31,5.35,3.57,9.51-.62,3.45-3.4,5.84-6.22,5.33Z" style="fill: rgb(255, 255, 255);"/>
        <path class="st10" d="M143.7,422.45c-3.85-1.27-4.79-3.45-7.26-4.27-2.47-.82-4.53.37-8.37-.91-5.04-1.67-6.7-9.16-.77-11.78,7.38-3.26,11.13-9.18,15.86-7.61,4.73,1.57,4.21,8.56,8.18,15.58,3.2,5.65-2.61,10.66-7.65,8.99Z" style="fill: rgb(255, 255, 255);"/>
        <path class="st10" d="M147.17,389.91c1.66-3.88,5.58-7.11,8.21-5.98,2.63,1.13,3.12,5.89,1.32,10.07-1.38,3.22-4.64,4.91-7.27,3.78-2.63-1.13-3.65-4.66-2.26-7.87Z" style="fill: rgb(255, 255, 255);"/>
        <path class="st10" d="M134.62,386.69c1.06-4.42,4.29-7.95,7.07-7.29,2.79.67,4,5.59,3.02,9.7-.81,3.41-3.73,5.63-6.52,4.97-2.79-.67-4.38-3.97-3.57-7.38Z" style="fill: rgb(255, 255, 255);"/>
        <path class="st10" d="M154.09,410.88c-2.56-1.28-3.37-4.86-1.8-7.99,1.89-3.77,5.98-6.77,8.54-5.49,2.56,1.28,2.77,6.06.74,10.13-1.57,3.13-4.91,4.64-7.48,3.36Z" style="fill: rgb(255, 255, 255);"/>
      </g>
    </g>
    <g transform="matrix(1, 0, 0, 1, -150.477829, -148.424454)">
      <g>
        <path class="st8" d="M235.44,352.93c.77-15.18-16.97-8.1-6.35,13.5,23.7-6.87,17.73-24.2,6.35-13.5Z" style="fill: rgb(209, 211, 212);"/>
        <path class="st8" d="M427.49,349.32c2.81-14.94-15.72-10.32-8.12,12.51,24.41-3.6,20.84-21.58,8.12-12.51Z" style="fill: rgb(209, 211, 212);"/>
        <path class="st8" d="M75.4,227.18c7.01-13.49-12.07-14.42-11.39,9.64,24.41,3.6,26.18-14.65,11.39-9.64Z" style="fill: rgb(209, 211, 212);"/>
        <path class="st8" d="M304.23,569.47c-9.91-11.53-17.88,5.83,4.7,14.16,12.43-21.31-3.84-29.75-4.7-14.16Z" style="fill: rgb(209, 211, 212);"/>
        <path class="st8" d="M720.5,227.74c-7.4-13.28-18.69,2.14,1.78,14.81,16.44-18.4,2.18-29.92-1.78-14.81Z" style="fill: rgb(209, 211, 212);"/>
        <path class="st8" d="M684.92,406.83c-11.04-10.45-17.19,7.63,6.13,13.6,10.18-22.48-6.87-29.2-6.13-13.6Z" style="fill: rgb(209, 211, 212);"/>
        <path class="st8" d="M248.17,280.57c3.28-14.84-15.39-10.81-8.51,12.25,24.51-2.84,21.5-20.92,8.51-12.25Z" style="fill: rgb(209, 211, 212);"/>
        <path class="st8" d="M546.13,526.18c-5.69-14.1-18.81-.21-.09,14.92,18.61-16.2,5.91-29.41.09-14.92Z" style="fill: rgb(209, 211, 212);"/>
        <path class="st8" d="M647.46,527.6c.89-15.17-16.91-8.23-6.46,13.45,23.75-6.69,17.92-24.06,6.46-13.45Z" style="fill: rgb(209, 211, 212);"/>
        <path class="st8" d="M347.2,328.82c-9.42-11.93-18.11,5.09,4.11,14.34,13.3-20.78-2.61-29.89-4.11-14.34Z" style="fill: rgb(209, 211, 212);"/>
        <path class="st8" d="M120.23,476.93c-12.39-8.81-15.95,9.96,7.97,12.61,6.94-23.68-10.89-27.96-7.97-12.61Z" style="fill: rgb(209, 211, 212);"/>
        <path class="st8" d="M42.27,444.85c-5.25-14.27-18.79-.79-.55,14.91,19.1-15.62,6.81-29.22.55-14.91Z" style="fill: rgb(209, 211, 212);"/>
        <path class="st8" d="M364.82,532.64c1.59-15.12-16.51-9.01-7.07,13.13,24.04-5.57,19.02-23.2,7.07-13.13Z" style="fill: rgb(209, 211, 212);"/>
        <path class="st8" d="M206.35,420.64c-2.54-14.99-18.33-4.22-3.27,14.55,21.64-11.85,12.05-27.47,3.27-14.55Z" style="fill: rgb(209, 211, 212);"/>
        <path class="st8" d="M467.2,564.68c.34-15.2-17.2-7.62-5.97,13.67,23.49-7.54,17.04-24.69,5.97-13.67Z" style="fill: rgb(209, 211, 212);"/>
        <path class="st8" d="M380.75,449.81c-4.14-14.63-18.68-2.23-1.69,14.82,20.24-14.11,9.03-28.61,1.69-14.82Z" style="fill: rgb(209, 211, 212);"/>
        <path class="st8" d="M725.55,309.24c-3.62-14.76-18.59-2.88-2.21,14.75,20.72-13.39,10.03-28.27,2.21-14.75Z" style="fill: rgb(209, 211, 212);"/>
        <path class="st8" d="M358.1,233.42c-14.05-5.81-13.32,13.28,10.59,10.51,1.46-24.63-16.86-24.81-10.59-10.51Z" style="fill: rgb(209, 211, 212);"/>
        <path class="st8" d="M714.25,520.04c-13.48-7.03-14.44,12.05,9.62,11.4,3.63-24.41-14.61-26.2-9.62-11.4Z" style="fill: rgb(209, 211, 212);"/>
        <path class="st8" d="M256.54,219.7c-6.88-13.55-18.75,1.41,1.2,14.87,17.14-17.75,3.35-29.81-1.2-14.87Z" style="fill: rgb(209, 211, 212);"/>
        <path class="st8" d="M613.91,319.99c1.91-15.08-16.32-9.35-7.35,12.98,24.15-5.07,19.5-22.8,7.35-12.98Z" style="fill: rgb(209, 211, 212);"/>
        <path class="st8" d="M193.75,545.27c-13.88-6.19-13.67,12.91,10.3,10.79,2.13-24.58-16.19-25.26-10.3-10.79Z" style="fill: rgb(209, 211, 212);"/>
        <path class="st8" d="M434.65,241.19c-8.37-12.69-18.48,3.52,2.87,14.64,15.03-19.57-.04-30-2.87-14.64Z" style="fill: rgb(209, 211, 212);"/>
        <path class="st8" d="M628.2,232.29c-4.8-14.42-18.76-1.37-1.01,14.88,19.58-15.02,7.71-28.99,1.01-14.88Z" style="fill: rgb(209, 211, 212);"/>
        <path class="st8" d="M334.37,397.63c-13.82-6.34-13.81,12.77,10.18,10.9,2.39-24.56-15.91-25.43-10.18-10.9Z" style="fill: rgb(209, 211, 212);"/>
        <path class="st8" d="M158.58,272.26c1.84-15.09-16.36-9.28-7.29,13.02,24.12-5.18,19.39-22.89,7.29-13.02Z" style="fill: rgb(209, 211, 212);"/>
        <path class="st8" d="M527.59,325.5c-5.54-14.16-18.8-.41-.25,14.91,18.78-16,6.22-29.35.25-14.91Z" style="fill: rgb(209, 211, 212);"/>
        <path class="st8" d="M572.33,443.84c-5.92-14-18.81.1.16,14.92,18.34-16.51,5.42-29.51-.16-14.92Z" style="fill: rgb(209, 211, 212);"/>
        <path class="st8" d="M276.12,471.91c-7.76-13.07-18.62,2.64,2.18,14.76,15.94-18.84,1.38-29.97-2.18-14.76Z" style="fill: rgb(209, 211, 212);"/>
        <path class="st8" d="M105.23,368.03c.03-15.2-17.35-7.27-5.69,13.79,23.34-8.02,16.53-25.03,5.69-13.79Z" style="fill: rgb(209, 211, 212);"/>
        <path class="st8" d="M525.93,256.7c-2.19-15.04-18.22-4.66-3.62,14.47,21.92-11.33,12.7-27.18,3.62-14.47Z" style="fill: rgb(209, 211, 212);"/>
        <path class="st8" d="M459.44,430.12c2.03-15.06-16.24-9.49-7.45,12.92,24.19-4.88,19.68-22.64,7.45-12.92Z" style="fill: rgb(209, 211, 212);"/>
        <path class="st8" d="M40.85,545.36c4.01-14.66-14.84-11.56-9.1,11.82,24.62-1.62,22.52-19.82,9.1-11.82Z" style="fill: rgb(209, 211, 212);"/>
        <path class="st8" d="M118.6,578.87c-14.36-4.97-12.51,14.04,11.19,9.86,0-24.67-18.3-23.77-11.19-9.86Z" style="fill: rgb(209, 211, 212);"/>
        <path class="st8" d="M54.83,304.26c6.13-13.91-12.97-13.62-10.74,10.35,24.59,2.02,25.19-16.29,10.74-10.35Z" style="fill: rgb(209, 211, 212);"/>
      </g>
      <g>
        <g>
          <path class="st8" d="M208.67,242.67c-3.01-1.51-5.19.9-9.23,1.99-5.92,1.6-6.9,5.22-4.84,7.18,2.05,1.96,5.57.34,8.16,1.8,0,0,.02,0,.02.01,0,0,.02,0,.02.01,2.64,1.35,3.24,5.17,6.01,5.8,2.77.63,5.25-2.19,3.3-8.01-1.32-3.97-.52-7.11-3.45-8.78Z" style="fill: rgb(209, 211, 212);"/>
          <path class="st8" d="M202.68,236.63c.43,3.14-.86,5.91-2.88,6.19-2.02.28-4.01-2.04-4.44-5.18-.43-3.14.86-5.91,2.88-6.19s4.01,2.04,4.44,5.18Z" style="fill: rgb(209, 211, 212);"/>
          <path class="st8" d="M217.01,244.31c-2.85,1.38-4.45,3.98-3.56,5.82.89,1.84,3.92,2.21,6.77.84,2.85-1.38,4.45-3.98,3.56-5.82-.89-1.84-3.92-2.21-6.77-.84Z" style="fill: rgb(209, 211, 212);"/>
          <path class="st8" d="M212.12,234.38c-1.04,3.18-3.54,5.21-5.59,4.54-2.05-.67-2.86-3.79-1.83-6.96,1.04-3.18,3.54-5.21,5.59-4.54,2.05.67,2.87,3.79,1.83,6.96Z" style="fill: rgb(209, 211, 212);"/>
          <path class="st8" d="M213.66,235.2c-2.07,2.62-2.38,5.83-.69,7.16,1.69,1.33,4.74.29,6.81-2.33,2.07-2.62,2.38-5.83.69-7.16-1.69-1.33-4.74-.29-6.81,2.33Z" style="fill: rgb(209, 211, 212);"/>
        </g>
        <g>
          <path class="st8" d="M84.14,259.16c-3.33.49-3.73,3.71-6.41,6.92-3.93,4.71-2.65,8.23.16,8.66,2.81.43,4.75-2.91,7.71-3.21,0,0,.02,0,.03,0,0,0,.02,0,.03,0,2.94-.41,5.62,2.38,8.25,1.3,2.63-1.08,3.04-4.8-1.89-8.45-3.36-2.49-4.51-5.53-7.86-5.22Z" style="fill: rgb(209, 211, 212);"/>
          <path class="st8" d="M75.77,257.65c2.15,2.32,2.69,5.33,1.19,6.72-1.5,1.39-4.46.63-6.61-1.69-2.15-2.32-2.69-5.33-1.19-6.72,1.5-1.39,4.46-.63,6.61,1.69Z" style="fill: rgb(209, 211, 212);"/>
          <path class="st8" d="M91.92,255.72c-1.55,2.76-1.35,5.81.43,6.81,1.78,1,4.48-.44,6.03-3.2,1.55-2.76,1.35-5.81-.43-6.81-1.78-1-4.48.44-6.03,3.2Z" style="fill: rgb(209, 211, 212);"/>
          <path class="st8" d="M82.21,250.39c.97,3.2.09,6.3-1.97,6.92-2.06.63-4.52-1.46-5.49-4.65-.97-3.2-.09-6.3,1.97-6.92,2.06-.63,4.52,1.46,5.49,4.65Z" style="fill: rgb(209, 211, 212);"/>
          <path class="st8" d="M83.95,250.18c-.19,3.34,1.4,6.14,3.55,6.26,2.15.12,4.05-2.48,4.24-5.82.19-3.34-1.4-6.14-3.55-6.26-2.15-.12-4.05,2.48-4.24,5.82Z" style="fill: rgb(209, 211, 212);"/>
        </g>
        <g>
          <path class="st8" d="M579.73,271.21c-3.36.25-3.99,3.43-6.9,6.44-4.26,4.41-3.24,8.02-.47,8.65,2.77.63,4.95-2.56,7.92-2.64,0,0,.02,0,.03,0,0,0,.02,0,.03,0,2.96-.2,5.43,2.78,8.13,1.9,2.7-.88,3.38-4.57-1.27-8.57-3.17-2.73-4.1-5.84-7.47-5.77Z" style="fill: rgb(209, 211, 212);"/>
          <path class="st8" d="M571.49,269.1c1.98,2.47,2.29,5.51.7,6.79-1.59,1.28-4.49.31-6.47-2.17-1.98-2.47-2.29-5.51-.7-6.79,1.59-1.28,4.49-.31,6.47,2.17Z" style="fill: rgb(209, 211, 212);"/>
          <path class="st8" d="M587.73,268.34c-1.74,2.65-1.77,5.7-.07,6.82,1.71,1.12,4.5-.11,6.24-2.76,1.74-2.65,1.77-5.7.07-6.82-1.71-1.12-4.5.11-6.24,2.76Z" style="fill: rgb(209, 211, 212);"/>
          <path class="st8" d="M578.44,262.32c.74,3.26-.37,6.29-2.47,6.76-2.1.48-4.4-1.78-5.14-5.04-.74-3.26.37-6.29,2.47-6.76,2.1-.48,4.4,1.78,5.14,5.04Z" style="fill: rgb(209, 211, 212);"/>
          <path class="st8" d="M580.18,262.24c-.43,3.31.95,6.22,3.08,6.5,2.14.28,4.22-2.18,4.65-5.49.43-3.31-.95-6.22-3.08-6.5-2.14-.28-4.22,2.18-4.65,5.49Z" style="fill: rgb(209, 211, 212);"/>
        </g>
        <g>
          <path class="st8" d="M273.64,391.42c-3.34.46-3.76,3.68-6.47,6.87-3.97,4.68-2.72,8.21.08,8.66,2.8.45,4.78-2.87,7.74-3.14,0,0,.02,0,.03,0,0,0,.02,0,.03,0,2.95-.39,5.6,2.42,8.24,1.37,2.64-1.05,3.08-4.78-1.82-8.47-3.34-2.52-4.46-5.56-7.82-5.28Z" style="fill: rgb(209, 211, 212);"/>
          <path class="st8" d="M265.28,389.84c2.14,2.34,2.64,5.35,1.13,6.73-1.51,1.38-4.46.59-6.6-1.75-2.13-2.34-2.64-5.35-1.13-6.73,1.51-1.38,4.46-.59,6.6,1.75Z" style="fill: rgb(209, 211, 212);"/>
          <path class="st8" d="M281.44,388.04c-1.57,2.75-1.4,5.8.37,6.81,1.77,1.01,4.48-.4,6.05-3.15,1.57-2.75,1.4-5.8-.37-6.81-1.77-1.01-4.48.4-6.05,3.15Z" style="fill: rgb(209, 211, 212);"/>
          <path class="st8" d="M271.78,382.63c.95,3.2.04,6.3-2.03,6.91s-4.51-1.49-5.45-4.7c-.95-3.2-.04-6.3,2.03-6.91,2.07-.61,4.51,1.49,5.45,4.7Z" style="fill: rgb(209, 211, 212);"/>
          <path class="st8" d="M273.51,382.44c-.22,3.33,1.35,6.15,3.5,6.29,2.15.14,4.07-2.45,4.29-5.78.22-3.33-1.35-6.15-3.5-6.29-2.15-.14-4.07,2.45-4.29,5.78Z" style="fill: rgb(209, 211, 212);"/>
        </g>
        <g>
          <path class="st8" d="M486.24,230.25c-2.5,2.26-1.05,5.16-1.49,9.32-.66,6.1,2.36,8.32,4.94,7.12,2.57-1.2,2.34-5.06,4.63-6.95,0,0,.01-.01.02-.02,0,0,.01-.01.02-.02,2.22-1.97,6-1.14,7.58-3.5,1.59-2.35-.14-5.68-6.26-5.98-4.18-.2-6.82-2.1-9.44.03Z" style="fill: rgb(209, 211, 212);"/>
          <path class="st8" d="M478.44,233.63c3.08.74,5.19,2.94,4.72,4.93-.47,1.99-3.36,3-6.44,2.26-3.08-.74-5.19-2.94-4.72-4.93.47-1.99,3.36-3,6.44-2.26Z" style="fill: rgb(209, 211, 212);"/>
          <path class="st8" d="M490.8,223.06c.25,3.16,2.1,5.59,4.14,5.43,2.04-.16,3.49-2.85,3.24-6.01-.25-3.16-2.1-5.59-4.14-5.43-2.04.16-3.49,2.85-3.24,6.01Z" style="fill: rgb(209, 211, 212);"/>
          <path class="st8" d="M479.76,224.02c2.58,2.12,3.57,5.19,2.2,6.85-1.37,1.66-4.57,1.3-7.15-.82-2.58-2.12-3.57-5.19-2.2-6.85s4.57-1.3,7.15.82Z" style="fill: rgb(209, 211, 212);"/>
          <path class="st8" d="M481.09,222.88c1.69,2.88,4.57,4.33,6.43,3.24s1.99-4.31.3-7.19c-1.69-2.88-4.57-4.33-6.43-3.24-1.86,1.09-1.99,4.31-.3,7.19Z" style="fill: rgb(209, 211, 212);"/>
        </g>
        <g>
          <path class="st8" d="M389.03,389.52c-3.36-.3-4.49,2.75-7.84,5.25-4.91,3.67-4.48,7.4-1.85,8.46,2.63,1.06,5.3-1.74,8.24-1.34,0,0,.02,0,.03,0,0,0,.02,0,.03,0,2.96.28,4.92,3.61,7.73,3.17,2.81-.44,4.07-3.97.11-8.66-2.7-3.2-3.11-6.42-6.45-6.89Z" style="fill: rgb(209, 211, 212);"/>
          <path class="st8" d="M381.24,386.12c1.56,2.76,1.38,5.81-.4,6.81-1.78,1.01-4.48-.42-6.04-3.17-1.56-2.76-1.38-5.81.4-6.81,1.78-1.01,4.48.42,6.04,3.17Z" style="fill: rgb(209, 211, 212);"/>
          <path class="st8" d="M397.4,387.97c-2.14,2.33-2.66,5.34-1.16,6.73,1.5,1.38,4.46.61,6.6-1.72,2.14-2.33,2.66-5.34,1.16-6.73-1.5-1.38-4.46-.61-6.6,1.72Z" style="fill: rgb(209, 211, 212);"/>
          <path class="st8" d="M389.19,380.54c.21,3.33-1.37,6.15-3.52,6.28-2.15.13-4.06-2.46-4.27-5.8-.21-3.33,1.37-6.15,3.52-6.28,2.15-.13,4.06,2.46,4.27,5.8Z" style="fill: rgb(209, 211, 212);"/>
          <path class="st8" d="M390.92,380.74c-.96,3.2-.06,6.3,2,6.91,2.06.62,4.51-1.48,5.47-4.68.96-3.2.06-6.3-2-6.91-2.06-.62-4.51,1.48-5.47,4.68Z" style="fill: rgb(209, 211, 212);"/>
        </g>
        <g>
          <path class="st8" d="M675.43,219.41c-3.18,1.12-2.95,4.36-4.96,8.03-2.95,5.38-1.01,8.59,1.82,8.47,2.84-.12,4.1-3.78,6.95-4.64,0,0,.02,0,.03,0,0,0,.02,0,.03,0,2.81-.97,5.97,1.25,8.35-.31,2.37-1.56,2.06-5.3-3.49-7.93-3.78-1.79-5.49-4.55-8.72-3.6Z" style="fill: rgb(209, 211, 212);"/>
          <path class="st8" d="M666.92,219.53c2.56,1.86,3.66,4.71,2.46,6.36-1.2,1.65-4.25,1.48-6.81-.38-2.56-1.86-3.66-4.71-2.46-6.36,1.2-1.65,4.25-1.48,6.81.38Z" style="fill: rgb(209, 211, 212);"/>
          <path class="st8" d="M682.4,214.53c-.98,3.01-.21,5.97,1.73,6.6,1.94.63,4.31-1.29,5.3-4.3.98-3.01.21-5.97-1.73-6.6-1.94-.63-4.31,1.29-5.3,4.3Z" style="fill: rgb(209, 211, 212);"/>
          <path class="st8" d="M671.84,211.17c1.57,2.95,1.3,6.16-.6,7.17-1.9,1.01-4.72-.56-6.29-3.51-1.57-2.95-1.3-6.16.6-7.17,1.9-1.01,4.72.56,6.29,3.51Z" style="fill: rgb(209, 211, 212);"/>
          <path class="st8" d="M673.51,210.63c.46,3.31,2.55,5.75,4.69,5.46,2.13-.29,3.49-3.21,3.04-6.52-.46-3.31-2.55-5.75-4.69-5.46-2.13.29-3.49,3.21-3.04,6.52Z" style="fill: rgb(209, 211, 212);"/>
        </g>
        <g>
          <path class="st8" d="M292.11,312.79c-3-1.53-5.19.88-9.23,1.95-5.93,1.58-6.92,5.19-4.87,7.16,2.05,1.97,5.56.36,8.15,1.83,0,0,.02,0,.02.01,0,0,.02,0,.02.01,2.64,1.36,3.22,5.19,5.98,5.82,2.77.64,5.26-2.17,3.34-7.99-1.31-3.97-.49-7.12-3.41-8.8Z" style="fill: rgb(209, 211, 212);"/>
          <path class="st8" d="M286.15,306.73c.42,3.14-.88,5.9-2.91,6.17-2.02.27-4-2.06-4.42-5.2s.88-5.9,2.91-6.17c2.02-.27,4,2.06,4.42,5.2Z" style="fill: rgb(209, 211, 212);"/>
          <path class="st8" d="M300.45,314.47c-2.86,1.37-4.46,3.97-3.58,5.81.88,1.84,3.91,2.23,6.77.86,2.86-1.37,4.46-3.97,3.58-5.81-.88-1.84-3.91-2.23-6.77-.87Z" style="fill: rgb(209, 211, 212);"/>
          <path class="st8" d="M295.6,304.51c-1.05,3.17-3.56,5.19-5.61,4.51-2.04-.68-2.85-3.8-1.8-6.97,1.05-3.17,3.56-5.19,5.61-4.51,2.04.68,2.85,3.8,1.8,6.97Z" style="fill: rgb(209, 211, 212);"/>
          <path class="st8" d="M297.14,305.35c-2.08,2.61-2.4,5.82-.72,7.16,1.68,1.34,4.74.31,6.82-2.3,2.08-2.61,2.4-5.82.72-7.16-1.68-1.34-4.74-.31-6.82,2.3Z" style="fill: rgb(209, 211, 212);"/>
        </g>
        <g>
          <path class="st8" d="M520.76,567c-3.32.6-3.61,3.83-6.18,7.13-3.77,4.84-2.38,8.32.44,8.65,2.82.33,4.65-3.07,7.6-3.46,0,0,.02,0,.03,0,0,0,.02,0,.03,0,2.93-.51,5.7,2.19,8.29,1.03,2.59-1.16,2.88-4.9-2.17-8.39-3.44-2.38-4.69-5.38-8.03-4.95Z" style="fill: rgb(209, 211, 212);"/>
          <path class="st8" d="M512.34,565.76c2.23,2.25,2.86,5.24,1.41,6.68-1.45,1.44-4.43.78-6.66-1.47-2.23-2.25-2.86-5.24-1.41-6.68,1.45-1.44,4.43-.78,6.66,1.47Z" style="fill: rgb(209, 211, 212);"/>
          <path class="st8" d="M528.42,563.3c-1.45,2.81-1.16,5.86.65,6.79,1.81.94,4.46-.58,5.92-3.4,1.45-2.81,1.16-5.86-.65-6.79-1.81-.94-4.46.58-5.92,3.4Z" style="fill: rgb(209, 211, 212);"/>
          <path class="st8" d="M518.54,558.29c1.08,3.16.3,6.29-1.74,6.98-2.04.69-4.56-1.31-5.64-4.47-1.08-3.16-.3-6.29,1.74-6.98s4.56,1.31,5.64,4.47Z" style="fill: rgb(209, 211, 212);"/>
          <path class="st8" d="M520.26,558.03c-.08,3.34,1.6,6.09,3.75,6.14,2.15.05,3.96-2.61,4.04-5.95.08-3.34-1.6-6.09-3.75-6.14-2.15-.05-3.96,2.61-4.04,5.95Z" style="fill: rgb(209, 211, 212);"/>
        </g>
        <g>
          <path class="st8" d="M177,322.62c-2.65-2.08-5.26-.15-9.44.12-6.12.4-7.8,3.75-6.17,6.08,1.62,2.33,5.39,1.44,7.64,3.38,0,0,.01.01.02.02,0,0,.01.01.02.02,2.32,1.85,2.15,5.71,4.74,6.88,2.59,1.16,5.58-1.1,4.83-7.19-.51-4.15.9-7.08-1.64-9.29Z" style="fill: rgb(209, 211, 212);"/>
          <path class="st8" d="M172.33,315.51c-.2,3.16-2.01,5.62-4.05,5.49-2.04-.13-3.53-2.8-3.33-5.96.2-3.16,2.01-5.62,4.05-5.49,2.04.13,3.53,2.8,3.33,5.96Z" style="fill: rgb(209, 211, 212);"/>
          <path class="st8" d="M184.86,325.89c-3.07.78-5.15,3.02-4.64,5,.51,1.98,3.4,2.95,6.47,2.16,3.07-.78,5.15-3.02,4.64-5-.51-1.98-3.4-2.95-6.47-2.16Z" style="fill: rgb(209, 211, 212);"/>
          <path class="st8" d="M182.04,315.18c-1.65,2.91-4.5,4.4-6.38,3.34-1.87-1.06-2.06-4.28-.41-7.19,1.65-2.91,4.5-4.4,6.38-3.34,1.87,1.06,2.06,4.28.41,7.19Z" style="fill: rgb(209, 211, 212);"/>
          <path class="st8" d="M183.38,316.29c-2.55,2.16-3.49,5.24-2.1,6.89,1.39,1.64,4.59,1.23,7.14-.93,2.55-2.16,3.49-5.24,2.1-6.89-1.39-1.64-4.59-1.23-7.14.93Z" style="fill: rgb(209, 211, 212);"/>
        </g>
        <g>
          <path class="st8" d="M157.99,404.41c-2.14,2.6-.28,5.26-.11,9.44.25,6.13,3.56,7.88,5.93,6.32,2.37-1.57,1.57-5.35,3.56-7.55,0,0,.01-.01.02-.02,0,0,.01-.01.02-.02,1.91-2.28,5.76-2.01,6.99-4.57,1.23-2.56-.97-5.6-7.08-5-4.16.41-7.05-1.07-9.33,1.41Z" style="fill: rgb(209, 211, 212);"/>
          <path class="st8" d="M150.77,408.91c3.16.28,5.57,2.15,5.39,4.18-.18,2.03-2.88,3.46-6.04,3.18-3.16-.28-5.57-2.15-5.39-4.18.18-2.03,2.88-3.46,6.04-3.18Z" style="fill: rgb(209, 211, 212);"/>
          <path class="st8" d="M161.45,396.64c.71,3.09,2.9,5.22,4.89,4.76,1.99-.46,3.03-3.33,2.32-6.42-.71-3.09-2.9-5.22-4.89-4.76-1.99.46-3.03,3.33-2.32,6.42Z" style="fill: rgb(209, 211, 212);"/>
          <path class="st8" d="M150.67,399.2c2.87,1.72,4.29,4.61,3.19,6.45-1.11,1.85-4.33,1.95-7.19.24-2.87-1.72-4.29-4.61-3.19-6.45,1.11-1.85,4.33-1.95,7.19-.24Z" style="fill: rgb(209, 211, 212);"/>
          <path class="st8" d="M151.82,397.88c2.1,2.6,5.16,3.61,6.83,2.26,1.68-1.35,1.34-4.56-.76-7.16-2.1-2.6-5.16-3.61-6.83-2.26-1.68,1.35-1.34,4.56.76,7.16Z" style="fill: rgb(209, 211, 212);"/>
        </g>
        <g>
          <path class="st8" d="M579.89,501.45c-2.41-2.35-5.22-.71-9.4-.89-6.13-.26-8.15,2.89-6.79,5.38,1.37,2.49,5.2,2.01,7.23,4.18,0,0,.01.01.02.02,0,0,.01.01.02.02,2.11,2.09,1.52,5.91,3.98,7.34,2.45,1.43,5.66-.5,5.57-6.64-.06-4.18,1.65-6.94-.63-9.42Z" style="fill: rgb(209, 211, 212);"/>
          <ellipse class="st8" cx="572.37" cy="493.26" rx="5.74" ry="3.7" transform="translate(-10.75 973.76) rotate(-80.24)" style="fill: rgb(209, 211, 212);"/>
          <path class="st8" d="M587.35,505.54c-3.14.45-5.44,2.46-5.15,4.48.29,2.02,3.07,3.29,6.2,2.84,3.14-.45,5.44-2.46,5.15-4.48-.29-2.02-3.07-3.29-6.2-2.84Z" style="fill: rgb(209, 211, 212);"/>
          <path class="st8" d="M585.69,494.59c-1.95,2.71-4.95,3.89-6.7,2.64-1.75-1.26-1.59-4.47.36-7.19,1.95-2.71,4.95-3.89,6.7-2.64,1.75,1.26,1.59,4.47-.36,7.19Z" style="fill: rgb(209, 211, 212);"/>
          <path class="st8" d="M586.91,495.84c-2.77,1.87-4.03,4.84-2.82,6.62,1.21,1.78,4.43,1.71,7.2-.16,2.77-1.87,4.03-4.84,2.82-6.62-1.21-1.78-4.43-1.71-7.2.16Z" style="fill: rgb(209, 211, 212);"/>
        </g>
        <g>
          <path class="st8" d="M308.59,228.65c-3.34-.41-4.58,2.59-8.02,4.97-5.04,3.5-4.74,7.24-2.15,8.39,2.59,1.16,5.36-1.55,8.28-1.05,0,0,.02,0,.03,0,0,0,.02,0,.03,0,2.95.38,4.79,3.78,7.61,3.44,2.82-.34,4.21-3.82.42-8.65-2.58-3.29-2.88-6.53-6.2-7.12Z" style="fill: rgb(209, 211, 212);"/>
          <path class="st8" d="M300.92,224.97c1.46,2.81,1.18,5.85-.64,6.79-1.81.94-4.47-.57-5.93-3.38-1.46-2.81-1.18-5.85.64-6.8,1.81-.94,4.47.57,5.93,3.38Z" style="fill: rgb(209, 211, 212);"/>
          <path class="st8" d="M317,227.4c-2.22,2.26-2.85,5.25-1.39,6.68,1.45,1.43,4.44.77,6.66-1.49,2.22-2.26,2.85-5.25,1.39-6.68-1.45-1.43-4.44-.77-6.66,1.49Z" style="fill: rgb(209, 211, 212);"/>
          <path class="st8" d="M309.06,219.68c.09,3.34-1.58,6.09-3.74,6.15-2.15.06-3.97-2.6-4.06-5.94-.09-3.34,1.58-6.09,3.74-6.15,2.15-.06,3.97,2.6,4.06,5.94Z" style="fill: rgb(209, 211, 212);"/>
          <path class="st8" d="M310.78,219.94c-1.07,3.17-.28,6.29,1.76,6.98,2.04.69,4.56-1.32,5.63-4.48,1.07-3.17.28-6.29-1.76-6.98-2.04-.69-4.56,1.32-5.63,4.48Z" style="fill: rgb(209, 211, 212);"/>
        </g>
        <g>
          <path class="st8" d="M724.37,562.73c-2.3,2.47-.59,5.23-.67,9.41-.12,6.14,3.08,8.08,5.54,6.66,2.46-1.42,1.89-5.25,4.01-7.33,0,0,.01-.01.02-.02,0,0,.01-.01.02-.02,2.04-2.16,5.87-1.66,7.25-4.14,1.38-2.48-.63-5.65-6.76-5.41-4.18.16-6.98-1.49-9.4.85Z" style="fill: rgb(209, 211, 212);"/>
          <path class="st8" d="M716.89,566.78c3.13.46,5.43,2.48,5.13,4.5-.3,2.02-3.08,3.28-6.22,2.82-3.13-.46-5.43-2.48-5.13-4.5.3-2.02,3.08-3.28,6.22-2.82Z" style="fill: rgb(209, 211, 212);"/>
          <path class="st8" d="M728.28,555.18c.52,3.12,2.58,5.38,4.59,5.05,2.01-.34,3.22-3.14,2.7-6.27-.52-3.12-2.58-5.38-4.59-5.05-2.01.34-3.22,3.14-2.7,6.27Z" style="fill: rgb(209, 211, 212);"/>
          <path class="st8" d="M717.37,557.09c2.76,1.89,4.01,4.86,2.79,6.63-1.22,1.78-4.44,1.69-7.19-.2-2.76-1.89-4.01-4.86-2.79-6.63,1.22-1.78,4.44-1.69,7.19.2Z" style="fill: rgb(209, 211, 212);"/>
          <path class="st8" d="M718.6,555.84c1.94,2.72,4.93,3.92,6.68,2.67,1.75-1.25,1.61-4.47-.33-7.19-1.94-2.72-4.93-3.92-6.68-2.67-1.75,1.25-1.61,4.47.33,7.19Z" style="fill: rgb(209, 211, 212);"/>
        </g>
        <g>
          <path class="st8" d="M382.05,269.11c-2.77,1.92-1.7,4.98-2.68,9.05-1.44,5.97,1.27,8.56,3.98,7.69,2.71-.86,2.97-4.72,5.49-6.29,0,0,.02,0,.02-.01,0,0,.02-.01.02-.02,2.46-1.67,6.09-.36,7.97-2.49,1.88-2.13.6-5.65-5.44-6.74-4.12-.74-6.49-2.96-9.36-1.19Z" style="fill: rgb(209, 211, 212);"/>
          <path class="st8" d="M373.87,271.46c2.96,1.13,4.77,3.59,4.05,5.5-.73,1.91-3.72,2.54-6.68,1.42-2.96-1.13-4.77-3.59-4.05-5.5.73-1.91,3.72-2.54,6.68-1.42Z" style="fill: rgb(209, 211, 212);"/>
          <path class="st8" d="M387.49,262.57c-.16,3.16,1.36,5.81,3.4,5.92,2.04.1,3.82-2.38,3.98-5.54.16-3.16-1.36-5.81-3.4-5.92-2.04-.1-3.82,2.38-3.98,5.54Z" style="fill: rgb(209, 211, 212);"/>
          <path class="st8" d="M376.43,262.1c2.29,2.43,2.87,5.6,1.3,7.08-1.57,1.48-4.7.7-6.98-1.74-2.29-2.43-2.87-5.6-1.3-7.08,1.57-1.48,4.7-.7,6.98,1.74Z" style="fill: rgb(209, 211, 212);"/>
          <path class="st8" d="M377.89,261.14c1.31,3.07,3.97,4.88,5.96,4.04,1.98-.84,2.53-4.02,1.22-7.09-1.31-3.07-3.97-4.88-5.96-4.04-1.98.84-2.53,4.02-1.22,7.09Z" style="fill: rgb(209, 211, 212);"/>
        </g>
        <g>
          <path class="st8" d="M729.63,375.98c-2.34,2.42-.69,5.22-.85,9.4-.24,6.13,2.93,8.14,5.41,6.76,2.48-1.38,1.98-5.21,4.15-7.25,0,0,.01-.01.02-.02,0,0,.01-.01.02-.02,2.08-2.12,5.9-1.55,7.33-4.01,1.42-2.46-.52-5.66-6.66-5.54-4.18.08-6.95-1.62-9.41.67Z" style="fill: rgb(209, 211, 212);"/>
          <path class="st8" d="M722.07,379.9c3.12.52,5.38,2.58,5.05,4.59-.34,2.01-3.14,3.22-6.27,2.7-3.12-.52-5.38-2.58-5.05-4.59.34-2.01,3.14-3.22,6.27-2.7Z" style="fill: rgb(209, 211, 212);"/>
          <path class="st8" d="M733.68,368.51c.46,3.13,2.48,5.43,4.5,5.13,2.02-.3,3.28-3.08,2.82-6.22-.46-3.13-2.48-5.43-4.5-5.13-2.02.3-3.28,3.08-2.82,6.22Z" style="fill: rgb(209, 211, 212);"/>
          <path class="st8" d="M722.74,370.21c2.72,1.94,3.92,4.93,2.67,6.69-1.25,1.75-4.47,1.61-7.19-.33-2.72-1.94-3.92-4.93-2.67-6.68,1.25-1.75,4.47-1.61,7.19.33Z" style="fill: rgb(209, 211, 212);"/>
          <path class="st8" d="M723.99,368.99c1.89,2.76,4.86,4.01,6.63,2.79,1.78-1.22,1.69-4.44-.19-7.19-1.89-2.76-4.86-4.01-6.63-2.79-1.78,1.22-1.69,4.44.19,7.19Z" style="fill: rgb(209, 211, 212);"/>
        </g>
        <g>
          <path class="st8" d="M70.75,573.72c-2.94-1.65-5.22.65-9.31,1.55-5.99,1.32-7.14,4.89-5.18,6.95,1.96,2.06,5.54.6,8.06,2.18,0,0,.02,0,.02.01,0,0,.02,0,.02.01,2.58,1.48,2.99,5.32,5.73,6.08,2.74.76,5.34-1.94,3.68-7.84-1.14-4.03-.19-7.13-3.03-8.94Z" style="fill: rgb(209, 211, 212);"/>
          <path class="st8" d="M65.05,567.4c.28,3.16-1.14,5.86-3.17,6.04-2.03.18-3.91-2.23-4.2-5.38-.28-3.16,1.14-5.86,3.17-6.04,2.03-.18,3.91,2.23,4.2,5.38Z" style="fill: rgb(209, 211, 212);"/>
          <path class="st8" d="M79.01,575.75c-2.91,1.24-4.63,3.77-3.83,5.65.8,1.88,3.81,2.4,6.73,1.15,2.91-1.24,4.63-3.77,3.83-5.65-.8-1.88-3.81-2.4-6.73-1.15Z" style="fill: rgb(209, 211, 212);"/>
          <path class="st8" d="M74.59,565.6c-1.19,3.12-3.78,5.03-5.79,4.27-2.01-.77-2.68-3.92-1.5-7.04,1.19-3.12,3.78-5.03,5.79-4.27s2.68,3.92,1.5,7.04Z" style="fill: rgb(209, 211, 212);"/>
          <path class="st8" d="M76.09,566.49c-2.19,2.52-2.65,5.71-1.03,7.12,1.63,1.41,4.72.51,6.91-2.01,2.19-2.52,2.65-5.71,1.03-7.12-1.63-1.41-4.72-.51-6.91,2.01Z" style="fill: rgb(209, 211, 212);"/>
        </g>
        <g>
          <path class="st8" d="M635.58,570.28c-3.02,1.5-2.39,4.69-3.94,8.57-2.27,5.7.04,8.65,2.84,8.18,2.8-.47,3.61-4.25,6.33-5.45,0,0,.02,0,.03-.01,0,0,.02,0,.02-.01,2.67-1.3,6.08.51,8.24-1.33,2.16-1.84,1.4-5.51-4.42-7.45-3.97-1.32-6-3.85-9.1-2.51Z" style="fill: rgb(209, 211, 212);"/>
          <path class="st8" d="M627.15,571.45c2.77,1.54,4.21,4.23,3.22,6.02-.99,1.79-4.04,1.99-6.81.45-2.77-1.54-4.21-4.23-3.22-6.02.99-1.79,4.04-1.99,6.81-.45Z" style="fill: rgb(209, 211, 212);"/>
          <path class="st8" d="M641.9,564.59c-.61,3.11.52,5.95,2.52,6.34,2,.39,4.12-1.81,4.73-4.92.61-3.11-.52-5.95-2.52-6.34-2-.39-4.12,1.81-4.73,4.92Z" style="fill: rgb(209, 211, 212);"/>
          <path class="st8" d="M631.02,562.54c1.92,2.74,2.04,5.96.28,7.19-1.76,1.24-4.75.02-6.67-2.72-1.92-2.74-2.04-5.96-.28-7.19,1.76-1.24,4.75-.02,6.67,2.72Z" style="fill: rgb(209, 211, 212);"/>
          <path class="st8" d="M632.6,561.81c.86,3.23,3.24,5.4,5.32,4.85,2.08-.55,3.08-3.62,2.22-6.85-.86-3.23-3.24-5.4-5.32-4.85-2.08.55-3.08,3.62-2.22,6.85Z" style="fill: rgb(209, 211, 212);"/>
        </g>
        <g>
          <path class="st8" d="M733.61,467.27c-3.01,1.52-2.36,4.71-3.88,8.6-2.23,5.72.11,8.65,2.9,8.16,2.8-.49,3.58-4.28,6.29-5.5,0,0,.02,0,.03-.01,0,0,.02,0,.02-.01,2.66-1.33,6.09.46,8.23-1.39,2.15-1.86,1.35-5.52-4.48-7.41-3.98-1.29-6.03-3.8-9.12-2.44Z" style="fill: rgb(209, 211, 212);"/>
          <path class="st8" d="M725.19,468.5c2.78,1.52,4.24,4.2,3.27,5.99-.98,1.79-4.02,2.02-6.81.5-2.78-1.52-4.24-4.2-3.27-5.99.98-1.79,4.02-2.02,6.81-.5Z" style="fill: rgb(209, 211, 212);"/>
          <path class="st8" d="M739.88,461.53c-.59,3.11.57,5.94,2.57,6.32,2.01.38,4.11-1.84,4.69-4.95.59-3.11-.57-5.94-2.57-6.32-2.01-.38-4.11,1.84-4.69,4.95Z" style="fill: rgb(209, 211, 212);"/>
          <path class="st8" d="M728.99,459.57c1.94,2.72,2.09,5.94.34,7.19-1.75,1.25-4.75.06-6.69-2.66-1.94-2.72-2.09-5.94-.33-7.19,1.75-1.25,4.75-.06,6.69,2.66Z" style="fill: rgb(209, 211, 212);"/>
          <path class="st8" d="M730.56,458.82c.88,3.22,3.28,5.38,5.36,4.81,2.08-.57,3.05-3.64,2.17-6.86-.88-3.22-3.28-5.38-5.36-4.81-2.08.57-3.05,3.64-2.17,6.86Z" style="fill: rgb(209, 211, 212);"/>
        </g>
        <g>
          <path class="st8" d="M493.56,466.21c-2.94-1.64-5.22.67-9.3,1.59-5.99,1.34-7.12,4.92-5.15,6.96,1.97,2.05,5.55.58,8.07,2.15,0,0,.02,0,.02.01,0,0,.02,0,.02.01,2.58,1.47,3.01,5.31,5.75,6.06,2.74.75,5.34-1.96,3.65-7.86-1.15-4.02-.21-7.13-3.06-8.93Z" style="fill: rgb(209, 211, 212);"/>
          <path class="st8" d="M487.84,459.91c.29,3.15-1.12,5.87-3.15,6.05-2.03.19-3.92-2.21-4.21-5.37-.29-3.15,1.12-5.87,3.15-6.05,2.03-.19,3.92,2.21,4.21,5.37Z" style="fill: rgb(209, 211, 212);"/>
          <path class="st8" d="M501.82,468.21c-2.91,1.25-4.62,3.79-3.81,5.66.81,1.88,3.82,2.38,6.73,1.13,2.91-1.25,4.62-3.79,3.81-5.66-.81-1.88-3.82-2.38-6.73-1.13Z" style="fill: rgb(209, 211, 212);"/>
          <path class="st8" d="M497.37,458.07c-1.18,3.13-3.76,5.05-5.78,4.29-2.02-.76-2.7-3.91-1.52-7.03,1.18-3.13,3.76-5.05,5.78-4.29,2.02.76,2.7,3.91,1.52,7.03Z" style="fill: rgb(209, 211, 212);"/>
          <path class="st8" d="M498.87,458.96c-2.18,2.53-2.63,5.72-1,7.13,1.63,1.41,4.72.5,6.9-2.03,2.18-2.53,2.63-5.72,1-7.13-1.63-1.41-4.72-.5-6.9,2.03Z" style="fill: rgb(209, 211, 212);"/>
        </g>
        <g>
          <path class="st8" d="M409.73,483.88c-3.29-.72-4.8,2.16-8.44,4.22-5.34,3.02-5.38,6.77-2.91,8.16,2.48,1.39,5.48-1.05,8.35-.29,0,0,.02,0,.03,0,0,0,.02,0,.03,0,2.9.65,4.42,4.21,7.26,4.12,2.84-.08,4.54-3.42,1.21-8.58-2.27-3.51-2.27-6.76-5.52-7.65Z" style="fill: rgb(209, 211, 212);"/>
          <path class="st8" d="M402.43,479.51c1.2,2.93.64,5.94-1.25,6.71-1.89.77-4.39-.98-5.59-3.91-1.2-2.93-.64-5.94,1.25-6.71,1.89-.77,4.39.98,5.59,3.91Z" style="fill: rgb(209, 211, 212);"/>
          <path class="st8" d="M418.22,483.4c-2.42,2.04-3.32,4.96-2,6.53,1.32,1.56,4.35,1.17,6.77-.87,2.42-2.04,3.32-4.96,2-6.53-1.32-1.56-4.35-1.17-6.77.87Z" style="fill: rgb(209, 211, 212);"/>
          <path class="st8" d="M411.01,474.99c-.22,3.33-2.13,5.92-4.28,5.78-2.15-.14-3.72-2.96-3.5-6.29.22-3.33,2.13-5.92,4.28-5.78,2.15.14,3.72,2.96,3.5,6.29Z" style="fill: rgb(209, 211, 212);"/>
          <path class="st8" d="M412.71,475.4c-1.35,3.05-.86,6.24,1.11,7.11,1.97.87,4.66-.9,6.02-3.95,1.35-3.05.86-6.24-1.11-7.11-1.97-.87-4.66.9-6.02,3.95Z" style="fill: rgb(209, 211, 212);"/>
        </g>
        <g>
          <path class="st8" d="M147.85,543.57c-2.17,2.58-.32,5.25-.19,9.44.19,6.13,3.49,7.92,5.87,6.37,2.38-1.55,1.62-5.34,3.63-7.52,0,0,.01-.01.02-.02,0,0,.01-.01.02-.02,1.93-2.26,5.78-1.96,7.03-4.51,1.25-2.55-.92-5.61-7.03-5.06-4.17.37-7.04-1.13-9.34,1.33Z" style="fill: rgb(209, 211, 212);"/>
          <path class="st8" d="M140.59,548c3.15.3,5.55,2.2,5.35,4.23-.2,2.03-2.91,3.43-6.06,3.13-3.15-.3-5.55-2.2-5.35-4.23.2-2.03,2.91-3.43,6.06-3.13Z" style="fill: rgb(209, 211, 212);"/>
          <path class="st8" d="M151.37,535.83c.68,3.09,2.85,5.24,4.85,4.81,1.99-.44,3.06-3.3,2.38-6.4-.68-3.09-2.85-5.25-4.85-4.81-1.99.44-3.06,3.3-2.38,6.4Z" style="fill: rgb(209, 211, 212);"/>
          <path class="st8" d="M140.58,538.29c2.85,1.74,4.25,4.64,3.13,6.48-1.12,1.84-4.34,1.91-7.2.17-2.85-1.74-4.25-4.64-3.13-6.48,1.12-1.84,4.34-1.91,7.2-.17Z" style="fill: rgb(209, 211, 212);"/>
          <path class="st8" d="M141.73,536.99c2.07,2.62,5.12,3.66,6.81,2.32,1.69-1.34,1.38-4.54-.7-7.16-2.07-2.62-5.12-3.66-6.81-2.32-1.69,1.34-1.38,4.54.7,7.16Z" style="fill: rgb(209, 211, 212);"/>
        </g>
        <g>
          <path class="st8" d="M603.36,411.19c-2.32,2.44-.65,5.22-.78,9.41-.19,6.13,2.99,8.12,5.46,6.72,2.47-1.4,1.94-5.23,4.09-7.28,0,0,.01-.01.02-.02,0,0,.01-.01.02-.02,2.06-2.14,5.89-1.6,7.3-4.06,1.4-2.47-.57-5.66-6.7-5.49-4.18.11-6.96-1.57-9.41.74Z" style="fill: rgb(209, 211, 212);"/>
          <path class="st8" d="M595.84,415.16c3.13.5,5.4,2.54,5.08,4.56-.32,2.02-3.12,3.25-6.25,2.75-3.13-.5-5.4-2.54-5.08-4.56.32-2.02,3.12-3.25,6.25-2.75Z" style="fill: rgb(209, 211, 212);"/>
          <path class="st8" d="M607.36,403.68c.49,3.13,2.52,5.41,4.54,5.1,2.02-.31,3.26-3.11,2.77-6.24-.49-3.13-2.52-5.41-4.54-5.1-2.02.31-3.26,3.11-2.77,6.24Z" style="fill: rgb(209, 211, 212);"/>
          <path class="st8" d="M596.43,405.47c2.74,1.92,3.95,4.9,2.72,6.66-1.24,1.76-4.46,1.64-7.19-.28-2.74-1.92-3.95-4.9-2.72-6.66,1.24-1.76,4.46-1.64,7.19.28Z" style="fill: rgb(209, 211, 212);"/>
          <path class="st8" d="M597.67,404.24c1.91,2.74,4.89,3.97,6.65,2.74,1.77-1.23,1.66-4.45-.25-7.19-1.91-2.74-4.89-3.97-6.65-2.74-1.77,1.23-1.66,4.45.25,7.19Z" style="fill: rgb(209, 211, 212);"/>
        </g>
        <g>
          <path class="st8" d="M461.6,312.44c-3.36.26-3.98,3.45-6.87,6.47-4.25,4.43-3.21,8.03-.44,8.65,2.77.62,4.94-2.58,7.91-2.67,0,0,.02,0,.03,0h.03c2.96-.21,5.44,2.76,8.14,1.86,2.7-.89,3.36-4.58-1.3-8.56-3.18-2.71-4.12-5.82-7.49-5.74Z" style="fill: rgb(209, 211, 212);"/>
          <path class="st8" d="M453.36,310.35c1.99,2.47,2.31,5.5.73,6.79-1.59,1.28-4.49.32-6.48-2.14-1.99-2.47-2.31-5.5-.72-6.79,1.59-1.28,4.49-.32,6.48,2.14Z" style="fill: rgb(209, 211, 212);"/>
          <path class="st8" d="M469.6,309.54c-1.73,2.65-1.75,5.71-.04,6.82,1.71,1.12,4.5-.13,6.23-2.78,1.73-2.65,1.75-5.71.04-6.82-1.71-1.12-4.5.13-6.23,2.78Z" style="fill: rgb(209, 211, 212);"/>
          <path class="st8" d="M460.28,303.55c.75,3.26-.34,6.29-2.44,6.77-2.1.48-4.41-1.76-5.16-5.02-.75-3.26.34-6.29,2.44-6.77,2.1-.48,4.41,1.76,5.16,5.02Z" style="fill: rgb(209, 211, 212);"/>
          <path class="st8" d="M462.03,303.46c-.42,3.31.97,6.22,3.11,6.49s4.21-2.2,4.63-5.51c.42-3.31-.97-6.22-3.11-6.49-2.14-.27-4.21,2.2-4.63,5.51Z" style="fill: rgb(209, 211, 212);"/>
        </g>
        <g>
          <path class="st8" d="M206.8,476.54c-3.22-1-4.97,1.73-8.78,3.46-5.58,2.54-5.96,6.28-3.61,7.88,2.35,1.6,5.55-.57,8.34.44,0,0,.02,0,.03,0,0,0,.02,0,.03,0,2.83.9,4.04,4.58,6.87,4.74,2.83.17,4.82-3.01,1.96-8.44-1.95-3.7-1.67-6.93-4.83-8.11Z" style="fill: rgb(209, 211, 212);"/>
          <path class="st8" d="M199.91,471.55c.94,3.03.11,5.97-1.84,6.57-1.95.6-4.29-1.36-5.23-4.39-.94-3.03-.11-5.97,1.84-6.57,1.95-.6,4.29,1.36,5.23,4.39Z" style="fill: rgb(209, 211, 212);"/>
          <path class="st8" d="M215.3,476.8c-2.59,1.82-3.74,4.66-2.56,6.33,1.18,1.67,4.23,1.55,6.82-.28,2.59-1.82,3.74-4.66,2.56-6.33-1.18-1.67-4.23-1.55-6.82.28Z" style="fill: rgb(209, 211, 212);"/>
          <path class="st8" d="M208.86,467.79c-.51,3.3-2.64,5.71-4.77,5.39-2.13-.33-3.44-3.27-2.94-6.57.51-3.3,2.64-5.71,4.77-5.39,2.13.33,3.44,3.27,2.94,6.57Z" style="fill: rgb(209, 211, 212);"/>
          <path class="st8" d="M210.51,468.36c-1.62,2.92-1.4,6.14.49,7.18,1.88,1.04,4.72-.48,6.34-3.41,1.62-2.92,1.4-6.14-.49-7.18-1.88-1.04-4.72.48-6.34,3.41Z" style="fill: rgb(209, 211, 212);"/>
        </g>
        <g>
          <path class="st8" d="M673.75,282.77c-3.03,1.47-2.45,4.66-4.04,8.53-2.34,5.67-.06,8.65,2.75,8.22,2.81-.44,3.66-4.21,6.39-5.38,0,0,.02,0,.03-.01,0,0,.02,0,.02-.01,2.68-1.27,6.08.58,8.26-1.23,2.18-1.82,1.46-5.49-4.34-7.5-3.95-1.37-5.96-3.92-9.07-2.61Z" style="fill: rgb(209, 211, 212);"/>
          <path class="st8" d="M665.31,283.84c2.75,1.57,4.16,4.28,3.15,6.05-1.01,1.77-4.06,1.94-6.81.37-2.75-1.57-4.16-4.28-3.15-6.05,1.01-1.77,4.06-1.94,6.81-.37Z" style="fill: rgb(209, 211, 212);"/>
          <path class="st8" d="M680.13,277.15c-.64,3.1.45,5.95,2.45,6.37,2,.42,4.14-1.76,4.79-4.86.65-3.1-.45-5.95-2.45-6.37-2-.42-4.14,1.76-4.79,4.86Z" style="fill: rgb(209, 211, 212);"/>
          <path class="st8" d="M669.28,274.98c1.89,2.76,1.97,5.98.2,7.19-1.78,1.22-4.75-.03-6.63-2.79-1.89-2.76-1.97-5.98-.2-7.19,1.78-1.22,4.75.03,6.63,2.79Z" style="fill: rgb(209, 211, 212);"/>
          <path class="st8" d="M670.87,274.26c.82,3.24,3.18,5.44,5.26,4.91,2.09-.53,3.12-3.58,2.3-6.82-.82-3.24-3.18-5.44-5.26-4.91-2.09.53-3.12,3.58-2.3,6.82Z" style="fill: rgb(209, 211, 212);"/>
        </g>
        <g>
          <path class="st8" d="M518.05,375.72c-3.35-.39-4.56,2.62-7.98,5.03-5.01,3.54-4.69,7.27-2.08,8.41s5.34-1.59,8.28-1.11h.03s.02,0,.03,0c2.95.36,4.82,3.75,7.63,3.39,2.82-.36,4.18-3.85.36-8.66-2.61-3.27-2.93-6.5-6.25-7.07Z" style="fill: rgb(209, 211, 212);"/>
          <path class="st8" d="M510.36,372.09c1.48,2.8,1.22,5.84-.58,6.8-1.8.96-4.47-.54-5.95-3.34-1.48-2.8-1.22-5.84.58-6.8,1.8-.96,4.47.54,5.95,3.34Z" style="fill: rgb(209, 211, 212);"/>
          <path class="st8" d="M526.45,374.4c-2.21,2.27-2.81,5.27-1.34,6.69,1.46,1.42,4.44.73,6.65-1.54,2.21-2.27,2.81-5.27,1.34-6.69-1.46-1.42-4.44-.73-6.65,1.54Z" style="fill: rgb(209, 211, 212);"/>
          <path class="st8" d="M518.45,366.74c.11,3.34-1.54,6.11-3.69,6.18-2.15.07-3.99-2.57-4.1-5.91-.11-3.34,1.54-6.11,3.69-6.18,2.15-.07,3.99,2.57,4.1,5.91Z" style="fill: rgb(209, 211, 212);"/>
          <path class="st8" d="M520.18,366.99c-1.05,3.17-.23,6.29,1.81,6.97,2.05.67,4.55-1.35,5.6-4.53,1.05-3.17.23-6.29-1.81-6.97-2.05-.67-4.55,1.35-5.6,4.53Z" style="fill: rgb(209, 211, 212);"/>
        </g>
        <g>
          <path class="st8" d="M68.8,386.21c-2.77,1.92-1.69,4.99-2.65,9.06-1.42,5.97,1.3,8.55,4,7.68,2.7-.87,2.96-4.73,5.47-6.31,0,0,.02,0,.02-.01,0,0,.02-.01.02-.02,2.45-1.68,6.09-.38,7.96-2.51,1.87-2.14.58-5.65-5.46-6.72-4.12-.73-6.5-2.94-9.37-1.16Z" style="fill: rgb(209, 211, 212);"/>
          <path class="st8" d="M60.63,388.59c2.96,1.12,4.78,3.57,4.06,5.49-.72,1.91-3.71,2.55-6.67,1.43-2.96-1.12-4.78-3.57-4.06-5.48.72-1.91,3.71-2.55,6.67-1.43Z" style="fill: rgb(209, 211, 212);"/>
          <path class="st8" d="M74.22,379.66c-.15,3.16,1.38,5.81,3.42,5.91,2.04.1,3.82-2.39,3.97-5.55.15-3.16-1.38-5.81-3.42-5.91-2.04-.1-3.82,2.39-3.97,5.55Z" style="fill: rgb(209, 211, 212);"/>
          <path class="st8" d="M63.16,379.22c2.3,2.43,2.89,5.6,1.32,7.07-1.57,1.48-4.69.71-6.99-1.72-2.3-2.43-2.89-5.6-1.32-7.07,1.57-1.48,4.69-.71,6.99,1.72Z" style="fill: rgb(209, 211, 212);"/>
          <path class="st8" d="M64.62,378.26c1.32,3.07,3.99,4.87,5.97,4.02,1.98-.85,2.52-4.03,1.2-7.1-1.32-3.07-3.99-4.87-5.97-4.02-1.98.85-2.52,4.03-1.2,7.1Z" style="fill: rgb(209, 211, 212);"/>
        </g>
        <g>
          <path class="st8" d="M315.6,477.97c-3.33-.55-4.69,2.4-8.22,4.65-5.18,3.29-5.03,7.04-2.49,8.3,2.54,1.26,5.41-1.33,8.32-.71,0,0,.02,0,.03,0,0,0,.02,0,.03,0,2.93.5,4.63,3.97,7.46,3.75,2.83-.23,4.36-3.65.77-8.63-2.45-3.39-2.62-6.64-5.91-7.36Z" style="fill: rgb(209, 211, 212);"/>
          <path class="st8" d="M308.09,473.99c1.35,2.87.94,5.9-.91,6.76-1.85.87-4.44-.75-5.78-3.62-1.35-2.87-.94-5.9.91-6.76,1.85-.87,4.44.75,5.78,3.62Z" style="fill: rgb(209, 211, 212);"/>
          <path class="st8" d="M324.06,477.06c-2.31,2.16-3.06,5.13-1.66,6.62,1.4,1.49,4.4.95,6.72-1.22,2.31-2.16,3.06-5.13,1.66-6.62-1.4-1.49-4.4-.95-6.72,1.22Z" style="fill: rgb(209, 211, 212);"/>
          <path class="st8" d="M316.44,469.03c-.05,3.34-1.83,6.02-3.98,6-2.15-.03-3.86-2.76-3.82-6.1.05-3.34,1.83-6.02,3.98-6,2.15.03,3.86,2.76,3.82,6.1Z" style="fill: rgb(209, 211, 212);"/>
          <path class="st8" d="M318.15,469.36c-1.2,3.12-.54,6.27,1.48,7.04,2.01.77,4.61-1.13,5.81-4.25,1.2-3.12.54-6.27-1.48-7.04-2.01-.77-4.61,1.13-5.81,4.25Z" style="fill: rgb(209, 211, 212);"/>
        </g>
        <g>
          <path class="st8" d="M399.55,565.54c-2.56,2.2-1.17,5.13-1.72,9.28-.8,6.08,2.16,8.38,4.76,7.24,2.6-1.14,2.46-5.01,4.8-6.84,0,0,.01-.01.02-.02,0,0,.01-.01.02-.02,2.27-1.92,6.02-1,7.67-3.31,1.64-2.32,0-5.68-6.12-6.13-4.17-.31-6.77-2.26-9.44-.2Z" style="fill: rgb(209, 211, 212);"/>
          <path class="st8" d="M391.67,568.74c3.06.81,5.12,3.07,4.6,5.04-.52,1.97-3.43,2.92-6.49,2.11-3.06-.81-5.12-3.07-4.6-5.04.52-1.97,3.43-2.92,6.49-2.11Z" style="fill: rgb(209, 211, 212);"/>
          <path class="st8" d="M404.28,558.47c.17,3.16,1.97,5.64,4,5.53,2.04-.11,3.55-2.77,3.38-5.93-.17-3.16-1.97-5.64-4-5.53-2.04.11-3.55,2.77-3.38,5.93Z" style="fill: rgb(209, 211, 212);"/>
          <path class="st8" d="M393.23,559.16c2.53,2.18,3.44,5.27,2.04,6.9-1.41,1.63-4.6,1.19-7.13-.99-2.53-2.18-3.44-5.27-2.04-6.9,1.41-1.63,4.6-1.19,7.13.99Z" style="fill: rgb(209, 211, 212);"/>
          <path class="st8" d="M394.58,558.06c1.62,2.92,4.46,4.44,6.35,3.39,1.88-1.05,2.09-4.26.47-7.18-1.62-2.92-4.46-4.44-6.35-3.39-1.88,1.05-2.09,4.26-.47,7.18Z" style="fill: rgb(209, 211, 212);"/>
        </g>
        <g>
          <path class="st8" d="M740.86,262.14c-2.26,2.5-.52,5.24-.54,9.42-.04,6.14,3.19,8.04,5.63,6.58,2.44-1.46,1.81-5.27,3.91-7.38,0,0,.01-.01.02-.02,0,0,.01-.01.02-.02,2.01-2.19,5.85-1.74,7.19-4.25,1.34-2.5-.71-5.64-6.84-5.32-4.18.22-7-1.39-9.39.98Z" style="fill: rgb(209, 211, 212);"/>
          <path class="st8" d="M733.44,266.3c3.14.42,5.47,2.4,5.19,4.43-.27,2.02-3.04,3.32-6.18,2.9-3.14-.42-5.47-2.4-5.19-4.43.27-2.02,3.04-3.32,6.18-2.9Z" style="fill: rgb(209, 211, 212);"/>
          <path class="st8" d="M744.67,254.54c.57,3.12,2.65,5.35,4.66,4.98,2.01-.37,3.18-3.19,2.61-6.3-.57-3.12-2.65-5.35-4.66-4.98-2.01.37-3.18,3.19-2.61,6.3Z" style="fill: rgb(209, 211, 212);"/>
          <path class="st8" d="M733.79,256.6c2.78,1.85,4.07,4.8,2.88,6.59-1.19,1.79-4.41,1.75-7.2-.1-2.78-1.85-4.07-4.8-2.88-6.59,1.19-1.79,4.41-1.75,7.2.1Z" style="fill: rgb(209, 211, 212);"/>
          <path class="st8" d="M734.99,255.34c1.97,2.69,4.98,3.85,6.72,2.57,1.74-1.27,1.54-4.49-.43-7.18-1.97-2.69-4.98-3.85-6.72-2.57-1.74,1.27-1.54,4.49.43,7.18Z" style="fill: rgb(209, 211, 212);"/>
        </g>
        <g>
          <path class="st8" d="M668.48,486.7c-2.99,1.56-2.3,4.74-3.77,8.65-2.16,5.75.22,8.65,3.01,8.12,2.79-.52,3.52-4.32,6.22-5.57,0,0,.02,0,.03-.01,0,0,.02,0,.02-.01,2.64-1.36,6.09.39,8.22-1.5,2.12-1.88,1.29-5.54-4.58-7.36-4-1.24-6.08-3.73-9.15-2.33Z" style="fill: rgb(209, 211, 212);"/>
          <path class="st8" d="M660.08,488.03c2.8,1.48,4.3,4.15,3.34,5.95-.95,1.81-4,2.07-6.8.59-2.8-1.48-4.3-4.14-3.34-5.95.95-1.81,4-2.07,6.8-.59Z" style="fill: rgb(209, 211, 212);"/>
          <path class="st8" d="M674.69,480.88c-.55,3.12.64,5.94,2.65,6.29,2.01.35,4.09-1.89,4.63-5.01.55-3.12-.64-5.94-2.65-6.29-2.01-.35-4.09,1.89-4.63,5.01Z" style="fill: rgb(209, 211, 212);"/>
          <path class="st8" d="M663.77,479.05c1.97,2.7,2.16,5.91.43,7.18-1.74,1.27-4.75.12-6.72-2.58-1.97-2.7-2.16-5.91-.43-7.18,1.74-1.27,4.75-.12,6.72,2.58Z" style="fill: rgb(209, 211, 212);"/>
          <path class="st8" d="M665.33,478.29c.92,3.21,3.35,5.33,5.42,4.74,2.07-.59,3-3.68,2.08-6.89-.92-3.21-3.35-5.33-5.42-4.74-2.07.59-3,3.68-2.08,6.89Z" style="fill: rgb(209, 211, 212);"/>
        </g>
        <g>
          <path class="st8" d="M65.5,488.7c-2.32-2.44-5.19-.91-9.36-1.24-6.12-.49-8.26,2.59-6.98,5.13,1.27,2.54,5.12,2.2,7.07,4.45,0,0,.01.01.02.02,0,0,.01.01.02.02,2.03,2.17,1.3,5.96,3.7,7.49,2.4,1.52,5.68-.29,5.81-6.42.09-4.18,1.91-6.87-.28-9.43Z" style="fill: rgb(209, 211, 212);"/>
          <path class="st8" d="M61.91,480.99c-.65,3.1-2.8,5.27-4.8,4.85-2-.42-3.09-3.28-2.43-6.38.65-3.1,2.8-5.27,4.8-4.85,2,.42,3.09,3.28,2.43,6.38Z" style="fill: rgb(209, 211, 212);"/>
          <path class="st8" d="M72.8,493.07c-3.15.33-5.53,2.25-5.32,4.28.21,2.03,2.94,3.41,6.09,3.07,3.15-.33,5.53-2.25,5.32-4.28-.21-2.03-2.94-3.41-6.09-3.07Z" style="fill: rgb(209, 211, 212);"/>
          <path class="st8" d="M71.56,482.06c-2.05,2.64-5.09,3.71-6.79,2.38s-1.42-4.53.63-7.17c2.05-2.64,5.09-3.71,6.79-2.38,1.7,1.32,1.42,4.53-.63,7.17Z" style="fill: rgb(209, 211, 212);"/>
          <path class="st8" d="M72.73,483.36c-2.83,1.77-4.21,4.68-3.07,6.51,1.14,1.83,4.36,1.87,7.2.11,2.83-1.77,4.21-4.68,3.07-6.51-1.14-1.83-4.36-1.87-7.2-.11Z" style="fill: rgb(209, 211, 212);"/>
        </g>
        <g>
          <path class="st8" d="M659.16,356.56c-2.93-1.66-5.23.64-9.31,1.54-6,1.31-7.14,4.88-5.19,6.94,1.96,2.06,5.54.61,8.06,2.19,0,0,.02,0,.02.01,0,0,.02,0,.02.01,2.58,1.48,2.98,5.33,5.72,6.09,2.74.76,5.35-1.93,3.69-7.84-1.13-4.03-.17-7.13-3.01-8.94Z" style="fill: rgb(209, 211, 212);"/>
          <path class="st8" d="M653.47,350.23c.28,3.16-1.15,5.86-3.18,6.04-2.03.18-3.91-2.23-4.19-5.39-.28-3.16,1.15-5.86,3.18-6.04,2.03-.18,3.91,2.23,4.19,5.39Z" style="fill: rgb(209, 211, 212);"/>
          <path class="st8" d="M667.41,358.6c-2.92,1.24-4.64,3.76-3.84,5.64.8,1.88,3.81,2.4,6.72,1.17,2.92-1.24,4.64-3.76,3.84-5.64-.8-1.88-3.81-2.4-6.72-1.17Z" style="fill: rgb(209, 211, 212);"/>
          <path class="st8" d="M663.01,348.44c-1.19,3.12-3.79,5.03-5.8,4.26-2.01-.77-2.68-3.92-1.48-7.04s3.79-5.03,5.8-4.26c2.01.77,2.68,3.92,1.48,7.04Z" style="fill: rgb(209, 211, 212);"/>
          <path class="st8" d="M664.51,349.34c-2.2,2.52-2.66,5.71-1.04,7.12,1.62,1.42,4.72.52,6.92-1.99,2.2-2.52,2.66-5.71,1.04-7.12-1.62-1.42-4.72-.52-6.92,1.99Z" style="fill: rgb(209, 211, 212);"/>
        </g>
        <g>
          <path class="st8" d="M266.04,563.59c-2.76,1.93-1.67,4.99-2.63,9.06-1.4,5.97,1.32,8.55,4.02,7.67,2.7-.88,2.94-4.74,5.45-6.32,0,0,.02,0,.02-.01,0,0,.02-.01.02-.02,2.45-1.69,6.09-.39,7.96-2.54s.57-5.66-5.48-6.71c-4.12-.72-6.51-2.92-9.37-1.14Z" style="fill: rgb(209, 211, 212);"/>
          <path class="st8" d="M257.88,565.99c2.97,1.11,4.79,3.56,4.08,5.47-.72,1.91-3.7,2.56-6.67,1.45-2.97-1.11-4.79-3.56-4.08-5.47.72-1.91,3.7-2.56,6.67-1.45Z" style="fill: rgb(209, 211, 212);"/>
          <path class="st8" d="M271.44,557.03c-.14,3.16,1.4,5.8,3.44,5.9,2.04.09,3.81-2.4,3.95-5.56s-1.4-5.8-3.44-5.9c-2.04-.09-3.81,2.4-3.95,5.56Z" style="fill: rgb(209, 211, 212);"/>
          <path class="st8" d="M260.38,556.61c2.3,2.42,2.9,5.59,1.34,7.07-1.56,1.48-4.69.72-6.99-1.7-2.3-2.42-2.9-5.59-1.34-7.07,1.56-1.48,4.69-.72,6.99,1.7Z" style="fill: rgb(209, 211, 212);"/>
          <path class="st8" d="M261.83,555.65c1.32,3.07,4,4.86,5.98,4.01,1.98-.85,2.51-4.03,1.18-7.1-1.32-3.07-4-4.86-5.98-4.01-1.98.85-2.51,4.03-1.18,7.1Z" style="fill: rgb(209, 211, 212);"/>
        </g>
      </g>
    </g>
  </g>
</svg>