<?xml version="1.0" encoding="UTF-8"?>
<svg id="Layer_1" xmlns="http://www.w3.org/2000/svg" xmlns:xlink="http://www.w3.org/1999/xlink" version="1.1" viewBox="0 0 800 800">
  <!-- Generator: Adobe Illustrator 29.0.1, SVG Export Plug-In . SVG Version: 2.1.0 Build 192)  -->
  <defs>
    <style>
      .st0 {
        fill: #f6921e;
      }

      .st1 {
        fill: url(#linear-gradient3);
      }

      .st2 {
        fill: url(#linear-gradient6);
      }

      .st3 {
        fill: url(#linear-gradient7);
      }

      .st4 {
        fill: url(#linear-gradient5);
      }

      .st5 {
        fill: url(#linear-gradient4);
      }

      .st6 {
        fill: url(#linear-gradient1);
      }

      .st6, .st7 {
        opacity: .15;
      }

      .st7 {
        fill: url(#linear-gradient2);
      }

      .st8 {
        fill: #d1d3d4;
      }

      .st9 {
        fill: #bcbec0;
      }

      .st10 {
        fill: url(#linear-gradient);
      }

      .st11, .st12 {
        opacity: .85;
      }

      .st11, .st13 {
        display: none;
      }

      .st14 {
        fill: #fff;
      }

      .st15 {
        stroke: #d1d3d4;
        stroke-width: 19px;
      }

      .st15, .st16 {
        fill: none;
        stroke-miterlimit: 10;
      }

      .st16 {
        stroke: #bcbec0;
        stroke-linecap: round;
        stroke-width: 20.51px;
      }

      .st17 {
        opacity: .5;
      }

      .st18 {
        fill: #00a79b;
      }
    </style>
    <linearGradient id="linear-gradient" x1="335.46" y1="211.95" x2="436.29" y2="312.78" gradientUnits="userSpaceOnUse">
      <stop offset=".2" stop-color="#00bbaf"/>
      <stop offset="1" stop-color="#00a79b"/>
    </linearGradient>
    <linearGradient id="linear-gradient1" x1="388.77" y1="264.11" x2="439.89" y2="315.23" gradientTransform="translate(-9.84 13.18) rotate(-1.81)" gradientUnits="userSpaceOnUse">
      <stop offset=".6" stop-color="#00bbaf" stop-opacity="0"/>
      <stop offset=".8" stop-color="#009187" stop-opacity=".48"/>
      <stop offset="1" stop-color="#00655e"/>
    </linearGradient>
    <linearGradient id="linear-gradient2" x1="360.51" y1="225.2" x2="396.66" y2="261.36" gradientUnits="userSpaceOnUse">
      <stop offset="0" stop-color="#fff"/>
      <stop offset=".21" stop-color="#fff" stop-opacity=".81"/>
      <stop offset=".69" stop-color="#fff" stop-opacity=".32"/>
      <stop offset="1" stop-color="#fff" stop-opacity="0"/>
    </linearGradient>
    <linearGradient id="linear-gradient3" x1="390.51" y1="290.78" x2="398.34" y2="298.61" gradientUnits="userSpaceOnUse">
      <stop offset="0" stop-color="#fff"/>
      <stop offset=".08" stop-color="#fff" stop-opacity=".88"/>
      <stop offset=".28" stop-color="#fff" stop-opacity=".61"/>
      <stop offset=".46" stop-color="#fff" stop-opacity=".4"/>
      <stop offset=".63" stop-color="#fff" stop-opacity=".22"/>
      <stop offset=".78" stop-color="#fff" stop-opacity=".1"/>
      <stop offset=".91" stop-color="#fff" stop-opacity=".03"/>
      <stop offset="1" stop-color="#fff" stop-opacity="0"/>
    </linearGradient>
    <linearGradient id="linear-gradient4" x1="398.17" y1="302.53" x2="416.08" y2="320.45" xlink:href="#linear-gradient3"/>
    <linearGradient id="linear-gradient5" x1="415.16" y1="287.89" x2="422.32" y2="295.05" xlink:href="#linear-gradient3"/>
    <linearGradient id="linear-gradient6" x1="402.51" y1="283.87" x2="410.16" y2="291.52" xlink:href="#linear-gradient3"/>
    <linearGradient id="linear-gradient7" x1="419.83" y1="301.07" x2="426.86" y2="308.1" xlink:href="#linear-gradient3"/>
  </defs>
  <g class="st13">
    <g>
      <path class="st10" d="M464.92,265.57c0,55.5-64.04,111.07-64.04,111.07,0,0-64.04-55.56-64.04-111.07,0-33.26,28.67-60.23,64.04-60.23s64.04,26.97,64.04,60.23Z"/>
      <g>
        <path class="st6" d="M460.86,255.45c7.37,49.2-56.46,115.19-61.16,113.34-49.53-19.56,46.85-208.85,61.16-113.34Z"/>
        <path class="st7" d="M345.94,292.5c-16.47-60.07,32.94-102.7,92.04-71.7l-92.04,71.7Z"/>
        <path class="st14" d="M367.37,282.24c-6.58,1.08-12.99-4.58-14.3-12.64-1.71-10.46,2.06-20.94,8.65-22.02,6.58-1.08,13.62,8.43,15.2,18.12,1.31,8.05-2.96,15.46-9.54,16.53Z"/>
        <path class="st14" d="M420.84,314.47c-9.44.17-13.2-3.88-19.25-3.77-6.05.11-9.66,4.31-19.1,4.48-12.35.23-21.8-14.94-10.79-25.29,13.69-12.86,17.36-28.78,28.97-28.99,11.61-.21,15.87,15.56,30.02,27.91,11.39,9.93,2.5,25.44-9.85,25.67Z"/>
        <path class="st14" d="M403.32,240.29c.66-9.8,6.76-19.93,13.42-19.48,6.66.45,11.4,10.53,10.69,21.1-.55,8.14-6.39,14.38-13.04,13.94-6.66-.45-11.61-7.41-11.06-15.55Z"/>
        <path class="st14" d="M373.23,242.9c-1.1-10.54,3.27-20.79,9.91-21.48,6.64-.69,13.11,9.2,14.12,18.98.85,8.12-3.85,15.26-10.48,15.95-6.64.69-12.7-5.33-13.55-13.45Z"/>
        <path class="st14" d="M434.74,281c-6.62-.83-11.16-8.07-10.14-16.17,1.23-9.75,7.91-19.5,14.52-18.67,6.62.83,10.77,11.17,9.45,21.68-1.02,8.1-7.21,13.99-13.83,13.16Z"/>
      </g>
      <g>
        <path class="st0" d="M395.45,303.42c-2.67-.48-4.37-3.52-3.79-6.79.76-4.25,3.62-7.77,6.3-7.29,2.67.48,4.09,5.08,3.39,9.02-.58,3.27-3.22,5.54-5.9,5.06Z"/>
        <path class="st0" d="M411.64,323.03c-3.65-1.21-4.55-3.28-6.89-4.05-2.34-.78-4.29.35-7.94-.86-4.78-1.58-6.36-8.69-.73-11.17,7-3.09,10.56-8.71,15.05-7.22,4.49,1.49,3.99,8.12,7.76,14.78,3.03,5.36-2.48,10.11-7.25,8.53Z"/>
        <path class="st0" d="M414.93,292.17c1.58-3.68,5.29-6.74,7.79-5.67,2.5,1.07,2.96,5.59,1.25,9.55-1.31,3.05-4.4,4.66-6.89,3.59-2.5-1.07-3.46-4.42-2.15-7.47Z"/>
        <path class="st0" d="M403.02,289.11c1-4.2,4.07-7.54,6.71-6.91,2.64.63,3.79,5.31,2.86,9.2-.77,3.23-3.54,5.34-6.18,4.71-2.64-.63-4.16-3.76-3.39-7Z"/>
        <path class="st0" d="M421.5,312.05c-2.43-1.21-3.2-4.61-1.71-7.58,1.79-3.58,5.67-6.42,8.1-5.21,2.43,1.21,2.63,5.75.7,9.61-1.49,2.97-4.66,4.4-7.09,3.18Z"/>
      </g>
      <g class="st17">
        <path class="st1" d="M393.15,301.27c-2.57-.46-4.2-3.4-3.64-6.56.73-4.1,3.48-7.51,6.05-7.04,2.57.46,3.93,4.91,3.26,8.71-.56,3.16-3.1,5.35-5.67,4.89Z"/>
        <path class="st5" d="M410.65,321.18c-3.51-1.17-4.37-3.17-6.62-3.92-2.25-.75-4.13.34-7.64-.83-4.59-1.53-6.11-8.39-.7-10.8,6.73-2.98,10.15-8.42,14.47-6.98,4.32,1.44,3.84,7.85,7.46,14.28,2.92,5.18-2.38,9.77-6.97,8.24Z"/>
        <path class="st4" d="M413.82,290.39c1.52-3.55,5.09-6.51,7.49-5.48,2.4,1.04,2.84,5.4,1.21,9.23-1.26,2.95-4.23,4.5-6.63,3.47-2.4-1.04-3.32-4.27-2.06-7.22Z"/>
        <path class="st2" d="M401.4,287.43c.96-4.05,3.91-7.29,6.45-6.68,2.54.61,3.64,5.13,2.75,8.89-.74,3.12-3.4,5.16-5.94,4.55-2.54-.61-4-3.64-3.26-6.76Z"/>
        <path class="st3" d="M420.13,310.58c-2.34-1.17-3.07-4.45-1.64-7.33,1.72-3.46,5.45-6.21,7.79-5.03,2.34,1.17,2.53,5.55.67,9.28-1.43,2.87-4.48,4.25-6.82,3.08Z"/>
      </g>
    </g>
    <g>
      <path class="st0" d="M94.91,487.74v-127.41h54.37c6.1,0,11.66,1.26,16.69,3.77,5.03,2.51,9.42,5.8,13.19,9.87,3.77,4.07,6.67,8.67,8.7,13.82,2.03,5.14,3.05,10.41,3.05,15.79,0,7.18-1.7,14.09-5.11,20.73-3.41,6.64-8.14,12.02-14.18,16.15-6.04,4.13-13.13,6.19-21.27,6.19h-26.02v41.09h-29.43Z"/>
      <path class="st0" d="M257.85,418.11c-6.94,0-13.22,1.11-18.84,3.32-5.63,2.21-9.69,5.47-12.2,9.78v56.53h-28.71v-93.14h26.2v17.95c3.35-6.34,7.6-11.31,12.74-14.9,5.14-3.59,10.53-5.44,16.15-5.56h2.87c.6,0,1.19.06,1.79.18v25.84Z"/>
      <path class="st0" d="M263.59,382.94v-26.2h28.71v26.2h-28.71ZM263.59,487.74v-94.21h28.71v94.21h-28.71Z"/>
      <path class="st0" d="M350.8,489.53c-8.02,0-15.14-1.27-21.35-3.81-6.22-2.54-11.52-6-15.88-10.38-4.37-4.38-7.69-9.44-9.96-15.17-2.27-5.74-3.41-11.74-3.41-18.01,0-8.96,2-17.13,6.01-24.5,4.01-7.37,9.78-13.29,17.32-17.77s16.63-6.72,27.28-6.72,19.74,2.21,27.28,6.64,13.25,10.31,17.14,17.63c3.89,7.32,5.83,15.18,5.83,23.57,0,1.65-.09,3.28-.27,4.87-.18,1.59-.33,2.98-.45,4.16h-69.63c.24,4.07,1.37,7.5,3.41,10.29,2.03,2.79,4.6,4.89,7.72,6.28,3.11,1.4,6.34,2.09,9.69,2.09,4.43,0,8.52-1.01,12.29-3.05,3.77-2.03,6.31-4.72,7.63-8.07l24.4,7c-2.39,4.91-5.74,9.18-10.05,12.83-4.31,3.65-9.42,6.58-15.34,8.79-5.92,2.21-12.47,3.32-19.65,3.32ZM330.16,432.47h40.74c-.36-3.8-1.5-7.11-3.41-9.94-1.92-2.82-4.31-5.01-7.18-6.57-2.87-1.56-6.22-2.34-10.05-2.34-3.47,0-6.7.78-9.69,2.34-2.99,1.56-5.38,3.72-7.18,6.48-1.79,2.76-2.87,6.11-3.23,10.02Z"/>
      <path class="st0" d="M498.84,487.74h-28.71v-52c0-6.11-1.23-10.54-3.68-13.31-2.45-2.76-5.54-4.14-9.24-4.14-2.63,0-5.32.69-8.07,2.08-2.75,1.39-5.27,3.3-7.54,5.73-2.27,2.43-3.95,5.21-5.02,8.33v53.31h-28.71v-93.14h25.84v15.92c2.39-3.78,5.38-6.96,8.97-9.56s7.72-4.55,12.38-5.85c4.67-1.3,9.69-1.95,15.07-1.95,6.22,0,11.22,1.06,14.98,3.19,3.77,2.12,6.64,4.93,8.61,8.41,1.97,3.48,3.32,7.29,4.04,11.42.72,4.13,1.08,8.15,1.08,12.04v59.5Z"/>
      <path class="st0" d="M506.02,441.17c0-8.98,1.79-17.1,5.38-24.36,3.59-7.26,8.49-13.02,14.71-17.27,6.22-4.25,13.4-6.38,21.53-6.38,6.58,0,12.56,1.56,17.95,4.67,5.38,3.11,9.45,7.24,12.2,12.38v-53.48h28.71v99.06c0,2.87.45,4.91,1.35,6.1.9,1.2,2.54,1.86,4.93,1.97v23.87c-5.14.96-9.27,1.43-12.38,1.43-5.02,0-9.04-1.08-12.02-3.23-2.99-2.15-4.85-5.14-5.56-8.97l-.36-4.84c-3.47,5.86-8.07,10.23-13.82,13.1-5.74,2.87-11.78,4.31-18.13,4.31s-12.41-1.21-17.86-3.63c-5.45-2.42-10.17-5.82-14.18-10.18-4.01-4.37-7.09-9.48-9.24-15.32-2.15-5.85-3.23-12.25-3.23-19.22ZM577.98,452.54v-19.24c-1.2-3.15-2.9-5.89-5.11-8.22-2.21-2.33-4.73-4.23-7.54-5.68-2.81-1.46-5.59-2.19-8.34-2.19-3.23,0-6.16.7-8.79,2.1-2.63,1.4-4.88,3.2-6.73,5.42-1.86,2.21-3.29,4.78-4.31,7.7-1.02,2.92-1.53,6.06-1.53,9.44s.57,6.47,1.7,9.27c1.14,2.8,2.69,5.25,4.67,7.35,1.97,2.1,4.36,3.76,7.18,4.98,2.81,1.23,5.83,1.84,9.06,1.84,2.03,0,4.01-.29,5.92-.87,1.91-.58,3.74-1.45,5.47-2.62,1.73-1.17,3.32-2.51,4.76-4.02,1.43-1.51,2.63-3.26,3.59-5.25Z"/>
      <path class="st0" d="M658.55,489.53c-8.02,0-15.82-1.34-23.42-4.04-7.6-2.69-14.09-6.61-19.47-11.75l10.05-17.95c5.62,4.19,11.15,7.33,16.6,9.42,5.44,2.09,10.56,3.14,15.34,3.14,3.59,0,6.43-.54,8.52-1.61,2.09-1.07,3.14-2.79,3.14-5.16,0-1.77-.63-3.12-1.88-4.07-1.26-.94-3.08-1.86-5.47-2.74-2.39-.88-5.38-1.8-8.97-2.74-7.18-2.47-13.16-4.8-17.95-6.98-4.79-2.18-8.38-4.89-10.77-8.13-2.39-3.24-3.59-7.45-3.59-12.64,0-6.25,1.61-11.7,4.84-16.36,3.23-4.65,7.74-8.28,13.55-10.87,5.8-2.59,12.77-3.89,20.91-3.89,6.46,0,12.8,1.02,19.02,3.05,6.22,2.04,12.02,5.5,17.41,10.41l-11.31,17.76c-5.27-3.71-10.02-6.4-14.27-8.07-4.25-1.67-8.35-2.51-12.29-2.51-2.04,0-3.89.24-5.56.7-1.68.47-3.02,1.23-4.04,2.29-1.02,1.06-1.52,2.52-1.52,4.4,0,1.64.51,3.02,1.52,4.14,1.02,1.12,2.63,2.06,4.85,2.82,2.21.76,4.93,1.62,8.17,2.55,7.9,2.35,14.45,4.64,19.65,6.87,5.2,2.23,9.09,5.05,11.66,8.45,2.57,3.4,3.86,7.86,3.86,13.38,0,9.39-3.47,16.76-10.41,22.1-6.94,5.34-16.33,8.01-28.17,8.01Z"/>
    </g>
    <g>
      <path class="st18" d="M102.5,515.25h3.32l12.68,31.06h-4.2l-3.48-9.1h-13.36l-3.5,9.1h-4.2l12.73-31.06ZM109.66,534.15l-5.49-14.35-5.52,14.35h11.01Z"/>
      <path class="st18" d="M132.81,546.75c-1.87,0-3.53-.46-4.99-1.39-1.46-.93-2.61-2.1-3.46-3.52v13.79h-3.85v-32.02h3.41v4.3c.9-1.39,2.08-2.51,3.54-3.37,1.46-.85,3.05-1.28,4.77-1.28,1.57,0,3.02.32,4.33.95,1.31.64,2.45,1.51,3.41,2.61.96,1.1,1.71,2.35,2.25,3.76.54,1.4.81,2.87.81,4.41,0,2.14-.43,4.11-1.29,5.91-.86,1.79-2.06,3.22-3.61,4.28s-3.32,1.58-5.34,1.58ZM131.63,543.42c1.14,0,2.17-.24,3.08-.71.92-.48,1.71-1.11,2.36-1.9.66-.79,1.16-1.7,1.51-2.71.35-1.01.53-2.05.53-3.12,0-1.12-.2-2.19-.59-3.2-.39-1.01-.95-1.9-1.66-2.68-.72-.78-1.55-1.39-2.49-1.84s-1.98-.67-3.08-.67c-.7,0-1.42.13-2.17.39s-1.45.63-2.12,1.1c-.67.48-1.24,1.02-1.71,1.62-.47.61-.77,1.25-.92,1.94v6.47c.44.98,1.02,1.87,1.75,2.68.73.81,1.57,1.45,2.54,1.92.96.47,1.95.71,2.97.71Z"/>
      <path class="st18" d="M158.53,546.75c-1.87,0-3.53-.46-4.99-1.39-1.46-.93-2.61-2.1-3.46-3.52v13.79h-3.85v-32.02h3.41v4.3c.9-1.39,2.08-2.51,3.54-3.37,1.46-.85,3.05-1.28,4.77-1.28,1.57,0,3.02.32,4.33.95,1.31.64,2.45,1.51,3.41,2.61.96,1.1,1.71,2.35,2.25,3.76.54,1.4.81,2.87.81,4.41,0,2.14-.43,4.11-1.29,5.91-.86,1.79-2.06,3.22-3.61,4.28s-3.32,1.58-5.34,1.58ZM157.35,543.42c1.14,0,2.17-.24,3.08-.71.92-.48,1.71-1.11,2.36-1.9.66-.79,1.16-1.7,1.51-2.71.35-1.01.53-2.05.53-3.12,0-1.12-.2-2.19-.59-3.2-.39-1.01-.95-1.9-1.66-2.68-.72-.78-1.55-1.39-2.49-1.84s-1.98-.67-3.08-.67c-.7,0-1.42.13-2.17.39s-1.45.63-2.12,1.1c-.67.48-1.24,1.02-1.71,1.62-.47.61-.77,1.25-.92,1.94v6.47c.44.98,1.02,1.87,1.75,2.68.73.81,1.57,1.45,2.54,1.92.96.47,1.95.71,2.97.71Z"/>
      <path class="st18" d="M171.74,537.22v-13.61h3.85v12.86c0,2.32.41,4.06,1.22,5.22.82,1.16,2.03,1.74,3.63,1.74,1.05,0,2.06-.22,3.04-.67.98-.45,1.86-1.09,2.65-1.93.79-.84,1.4-1.83,1.84-2.99v-14.22h3.85v18.34c0,.46.09.8.28,1.02.19.22.5.34.94.37v2.97c-.44.06-.78.09-1.03.11s-.49.02-.72.02c-.73,0-1.36-.22-1.88-.67-.52-.45-.8-1.01-.83-1.67l-.09-2.65c-.99,1.68-2.33,2.99-4,3.92s-3.51,1.39-5.49,1.39c-2.39,0-4.2-.8-5.42-2.41s-1.84-3.98-1.84-7.11Z"/>
      <path class="st18" d="M216.53,546.31h-3.85v-12.66c0-2.4-.37-4.15-1.12-5.27-.74-1.11-1.87-1.67-3.39-1.67-1.05,0-2.09.26-3.13.78-1.04.52-1.95,1.22-2.76,2.1-.8.88-1.38,1.89-1.73,3.05v13.67h-3.85v-22.7h3.5v4.9c.61-1.07,1.4-2,2.36-2.78.96-.78,2.06-1.39,3.28-1.82,1.22-.43,2.51-.65,3.85-.65s2.41.24,3.3.72c.89.48,1.59,1.14,2.1,2s.87,1.86,1.09,3.02c.22,1.16.33,2.42.33,3.78v13.54Z"/>
      <path class="st18" d="M232.59,545.3c-.32.15-.76.34-1.31.57-.55.23-1.2.44-1.92.61-.73.17-1.5.26-2.32.26-.93,0-1.79-.17-2.58-.5-.79-.34-1.42-.86-1.88-1.58-.47-.71-.7-1.61-.7-2.69v-15.35h-3.11v-3.02h3.11v-7.61h3.85v7.61h5.12v3.02h-5.12v14.17c.06.82.34,1.42.83,1.82.5.39,1.08.59,1.75.59.76,0,1.46-.13,2.1-.39s1.06-.45,1.27-.57l.92,3.06Z"/>
      <path class="st18" d="M232.85,539.75c0-1.45.42-2.7,1.25-3.76.83-1.06,1.98-1.88,3.43-2.46,1.46-.58,3.15-.87,5.07-.87,1.02,0,2.1.08,3.24.24,1.14.16,2.14.4,3.02.72v-1.65c0-1.73-.52-3.09-1.57-4.08-1.05-.99-2.54-1.49-4.46-1.49-1.25,0-2.46.23-3.61.68s-2.37,1.1-3.65,1.95l-1.4-2.71c1.49-1.02,2.97-1.79,4.46-2.3,1.49-.51,3.03-.76,4.64-.76,2.92,0,5.22.8,6.91,2.41s2.54,3.84,2.54,6.7v9.58c0,.46.09.8.28,1.02.19.22.5.34.94.37v2.97c-.38.06-.71.1-.98.13-.28.03-.5.04-.68.04-.9,0-1.58-.25-2.03-.74-.45-.5-.71-1.02-.77-1.58l-.09-1.44c-.99,1.28-2.29,2.28-3.89,2.97s-3.19,1.05-4.77,1.05-2.87-.31-4.07-.93c-1.2-.62-2.13-1.46-2.8-2.52-.67-1.06-1.01-2.24-1.01-3.54ZM247.72,541.35c.35-.4.63-.81.83-1.23.2-.42.31-.77.31-1.06v-2.81c-.9-.35-1.85-.61-2.84-.8-.99-.19-1.97-.28-2.93-.28-1.95,0-3.54.38-4.75,1.15-1.21.77-1.82,1.81-1.82,3.14,0,.72.2,1.42.59,2.1.39.68.98,1.23,1.75,1.67.77.43,1.73.65,2.87.65,1.2,0,2.33-.24,3.41-.72,1.08-.48,1.94-1.08,2.58-1.8Z"/>
      <path class="st18" d="M291.77,546.31h-3.85v-12.66c0-2.37-.39-4.12-1.16-5.25-.77-1.13-1.92-1.69-3.43-1.69s-2.95.56-4.2,1.67c-1.25,1.11-2.14,2.55-2.67,4.31v13.61h-3.85v-12.66c0-2.4-.38-4.15-1.14-5.27-.76-1.11-1.9-1.67-3.41-1.67s-2.91.54-4.18,1.62c-1.27,1.08-2.17,2.51-2.69,4.3v13.67h-3.85v-22.7h3.5v4.9c.93-1.68,2.14-2.97,3.63-3.89s3.16-1.37,5.03-1.37,3.41.51,4.55,1.54c1.14,1.03,1.84,2.35,2.1,3.97,1.02-1.79,2.26-3.16,3.72-4.1,1.46-.94,3.12-1.41,4.99-1.41,1.31,0,2.41.24,3.3.72.89.48,1.6,1.14,2.12,2,.52.85.9,1.86,1.14,3.02.23,1.16.35,2.42.35,3.78v13.54Z"/>
      <path class="st18" d="M306.33,546.75c-1.72,0-3.29-.31-4.7-.93s-2.64-1.48-3.67-2.56c-1.04-1.09-1.84-2.34-2.41-3.76-.57-1.42-.85-2.92-.85-4.52,0-2.14.5-4.09,1.49-5.86.99-1.77,2.37-3.18,4.13-4.25,1.76-1.07,3.78-1.61,6.06-1.61s4.31.54,6.01,1.63c1.71,1.09,3.03,2.51,3.98,4.26.95,1.75,1.42,3.64,1.42,5.67,0,.29,0,.57-.02.85-.02.28-.04.49-.07.63h-18.94c.12,1.47.53,2.77,1.25,3.91.71,1.14,1.64,2.03,2.78,2.68,1.14.65,2.36.97,3.67.97,1.4,0,2.72-.35,3.96-1.05,1.24-.7,2.09-1.62,2.56-2.76l3.32.92c-.5,1.11-1.23,2.1-2.21,2.97s-2.13,1.56-3.46,2.06c-1.33.5-2.76.74-4.31.74ZM298.63,533.62h15.57c-.12-1.47-.54-2.77-1.27-3.89-.73-1.12-1.66-2-2.8-2.64s-2.39-.95-3.76-.95-2.58.32-3.72.95c-1.14.63-2.06,1.51-2.78,2.64-.72,1.12-1.13,2.42-1.25,3.89Z"/>
      <path class="st18" d="M340.36,546.31h-3.85v-12.66c0-2.4-.37-4.15-1.12-5.27-.74-1.11-1.87-1.67-3.39-1.67-1.05,0-2.09.26-3.13.78-1.04.52-1.95,1.22-2.76,2.1-.8.88-1.38,1.89-1.73,3.05v13.67h-3.85v-22.7h3.5v4.9c.61-1.07,1.4-2,2.36-2.78.96-.78,2.06-1.39,3.28-1.82,1.22-.43,2.51-.65,3.85-.65s2.41.24,3.3.72c.89.48,1.59,1.14,2.1,2s.87,1.86,1.09,3.02c.22,1.16.33,2.42.33,3.78v13.54Z"/>
      <path class="st18" d="M356.41,545.3c-.32.15-.76.34-1.31.57-.55.23-1.2.44-1.92.61-.73.17-1.5.26-2.32.26-.93,0-1.79-.17-2.58-.5-.79-.34-1.42-.86-1.88-1.58-.47-.71-.7-1.61-.7-2.69v-15.35h-3.11v-3.02h3.11v-7.61h3.85v7.61h5.12v3.02h-5.12v14.17c.06.82.34,1.42.83,1.82.5.39,1.08.59,1.75.59.76,0,1.46-.13,2.1-.39s1.06-.45,1.27-.57l.92,3.06Z"/>
      <path class="st18" d="M368.14,546.75c-1.72,0-3.28-.31-4.68-.93-1.4-.62-2.61-1.48-3.63-2.56-1.02-1.09-1.81-2.34-2.36-3.76-.55-1.42-.83-2.91-.83-4.47s.28-3.1.83-4.52c.55-1.42,1.34-2.67,2.36-3.76,1.02-1.09,2.24-1.94,3.65-2.56,1.41-.62,2.97-.93,4.66-.93s3.28.31,4.68.93c1.4.62,2.62,1.48,3.65,2.56,1.03,1.09,1.83,2.34,2.38,3.76.55,1.42.83,2.92.83,4.52s-.28,3.05-.83,4.47c-.55,1.42-1.34,2.67-2.36,3.76-1.02,1.09-2.24,1.94-3.65,2.56-1.42.62-2.98.93-4.7.93ZM360.57,535.07c0,1.56.34,2.97,1.03,4.24.68,1.27,1.6,2.27,2.73,3.01,1.14.74,2.41,1.1,3.81,1.1s2.67-.37,3.83-1.12c1.15-.75,2.07-1.77,2.76-3.05.68-1.28,1.03-2.71,1.03-4.27s-.34-2.97-1.03-4.24c-.69-1.27-1.6-2.28-2.76-3.03-1.15-.75-2.43-1.12-3.83-1.12s-2.67.38-3.81,1.15c-1.14.76-2.05,1.78-2.73,3.05-.69,1.27-1.03,2.7-1.03,4.29Z"/>
      <path class="st18" d="M390.58,539.75c0-1.45.42-2.7,1.25-3.76.83-1.06,1.98-1.88,3.43-2.46,1.46-.58,3.15-.87,5.07-.87,1.02,0,2.1.08,3.24.24,1.14.16,2.14.4,3.02.72v-1.65c0-1.73-.52-3.09-1.57-4.08-1.05-.99-2.54-1.49-4.46-1.49-1.25,0-2.46.23-3.61.68s-2.37,1.1-3.65,1.95l-1.4-2.71c1.49-1.02,2.97-1.79,4.46-2.3,1.49-.51,3.03-.76,4.64-.76,2.92,0,5.22.8,6.91,2.41s2.54,3.84,2.54,6.7v9.58c0,.46.09.8.28,1.02.19.22.5.34.94.37v2.97c-.38.06-.71.1-.98.13-.28.03-.5.04-.68.04-.9,0-1.58-.25-2.03-.74-.45-.5-.71-1.02-.77-1.58l-.09-1.44c-.99,1.28-2.29,2.28-3.89,2.97s-3.19,1.05-4.77,1.05-2.87-.31-4.07-.93c-1.2-.62-2.13-1.46-2.8-2.52-.67-1.06-1.01-2.24-1.01-3.54ZM405.45,541.35c.35-.4.63-.81.83-1.23.2-.42.31-.77.31-1.06v-2.81c-.9-.35-1.85-.61-2.84-.8-.99-.19-1.97-.28-2.93-.28-1.95,0-3.54.38-4.75,1.15-1.21.77-1.82,1.81-1.82,3.14,0,.72.2,1.42.59,2.1.39.68.98,1.23,1.75,1.67.77.43,1.73.65,2.87.65,1.2,0,2.33-.24,3.41-.72,1.08-.48,1.94-1.08,2.58-1.8Z"/>
      <path class="st18" d="M433.35,546.75c-1.52,0-2.9-.32-4.16-.95-1.25-.64-2.33-1.5-3.24-2.58-.9-1.09-1.6-2.34-2.1-3.76-.5-1.42-.74-2.91-.74-4.47s.28-3.1.83-4.52c.55-1.42,1.32-2.66,2.3-3.73.98-1.07,2.12-1.92,3.43-2.54,1.31-.62,2.73-.93,4.24-.93,1.78,0,3.4.44,4.86,1.32,1.46.88,2.61,2,3.46,3.36v-4.34h3.41v32.02h-3.85v-13.79c-2.1,3.27-4.91,4.91-8.44,4.91ZM434.67,543.42c1.08,0,2.06-.22,2.95-.65.89-.43,1.68-1.02,2.38-1.75s1.3-1.55,1.79-2.44v-6.51c-.12-.75-.41-1.45-.87-2.1s-1.04-1.23-1.71-1.75c-.67-.52-1.39-.92-2.17-1.21-.77-.29-1.54-.43-2.3-.43-1.14,0-2.17.24-3.11.71-.93.48-1.74,1.12-2.43,1.93-.69.81-1.22,1.72-1.6,2.73-.38,1.01-.57,2.05-.57,3.12,0,1.5.33,2.89.98,4.16.66,1.27,1.55,2.29,2.69,3.05,1.14.77,2.45,1.15,3.94,1.15Z"/>
      <path class="st18" d="M450.11,537.22v-13.61h3.85v12.86c0,2.32.41,4.06,1.22,5.22.82,1.16,2.03,1.74,3.63,1.74,1.05,0,2.06-.22,3.04-.67.98-.45,1.86-1.09,2.65-1.93.79-.84,1.4-1.83,1.84-2.99v-14.22h3.85v18.34c0,.46.09.8.28,1.02.19.22.5.34.94.37v2.97c-.44.06-.78.09-1.03.11s-.49.02-.72.02c-.73,0-1.36-.22-1.88-.67-.52-.45-.8-1.01-.83-1.67l-.09-2.65c-.99,1.68-2.33,2.99-4,3.92s-3.51,1.39-5.49,1.39c-2.39,0-4.2-.8-5.42-2.41s-1.84-3.98-1.84-7.11Z"/>
      <path class="st18" d="M473.29,539.75c0-1.45.42-2.7,1.25-3.76.83-1.06,1.98-1.88,3.43-2.46,1.46-.58,3.15-.87,5.07-.87,1.02,0,2.1.08,3.24.24s2.14.4,3.02.72v-1.65c0-1.73-.53-3.09-1.57-4.08-1.05-.99-2.54-1.49-4.46-1.49-1.25,0-2.46.23-3.61.68s-2.37,1.1-3.65,1.95l-1.4-2.71c1.49-1.02,2.97-1.79,4.46-2.3,1.49-.51,3.03-.76,4.64-.76,2.92,0,5.22.8,6.91,2.41s2.54,3.84,2.54,6.7v9.58c0,.46.09.8.28,1.02.19.22.5.34.94.37v2.97c-.38.06-.71.1-.98.13-.28.03-.5.04-.68.04-.9,0-1.58-.25-2.03-.74-.45-.5-.71-1.02-.77-1.58l-.09-1.44c-.99,1.28-2.29,2.28-3.89,2.97-1.6.7-3.19,1.05-4.77,1.05s-2.87-.31-4.07-.93c-1.2-.62-2.13-1.46-2.8-2.52-.67-1.06-1.01-2.24-1.01-3.54ZM488.16,541.35c.35-.4.63-.81.83-1.23.2-.42.31-.77.31-1.06v-2.81c-.9-.35-1.85-.61-2.84-.8-.99-.19-1.97-.28-2.93-.28-1.95,0-3.54.38-4.75,1.15-1.21.77-1.82,1.81-1.82,3.14,0,.72.2,1.42.59,2.1.39.68.98,1.23,1.75,1.67.77.43,1.73.65,2.87.65,1.2,0,2.33-.24,3.41-.72,1.08-.48,1.94-1.08,2.58-1.8Z"/>
      <path class="st18" d="M509.42,545.3c-.32.15-.76.34-1.31.57-.55.23-1.2.44-1.92.61-.73.17-1.5.26-2.32.26-.93,0-1.79-.17-2.58-.5-.79-.34-1.41-.86-1.88-1.58-.47-.71-.7-1.61-.7-2.69v-15.35h-3.11v-3.02h3.11v-7.61h3.85v7.61h5.12v3.02h-5.12v14.17c.06.82.34,1.42.83,1.82s1.08.59,1.75.59c.76,0,1.46-.13,2.1-.39.64-.26,1.06-.45,1.27-.57l.92,3.06Z"/>
      <path class="st18" d="M523.28,545.3c-.32.15-.76.34-1.31.57-.55.23-1.2.44-1.92.61-.73.17-1.5.26-2.32.26-.93,0-1.79-.17-2.58-.5-.79-.34-1.41-.86-1.88-1.58-.47-.71-.7-1.61-.7-2.69v-15.35h-3.11v-3.02h3.11v-7.61h3.85v7.61h5.12v3.02h-5.12v14.17c.06.82.34,1.42.83,1.82s1.08.59,1.75.59c.76,0,1.46-.13,2.1-.39.64-.26,1.06-.45,1.27-.57l.92,3.06Z"/>
      <path class="st18" d="M537.41,526.85c-1.92.03-3.62.52-5.1,1.46s-2.52,2.25-3.13,3.91v14.09h-3.85v-22.7h3.59v5.16c.79-1.57,1.83-2.85,3.13-3.83,1.3-.98,2.66-1.52,4.09-1.64h.74c.2,0,.38.02.53.04v3.5Z"/>
      <path class="st18" d="M549.13,546.75c-1.72,0-3.28-.31-4.68-.93-1.4-.62-2.61-1.48-3.63-2.56-1.02-1.09-1.81-2.34-2.36-3.76-.55-1.42-.83-2.91-.83-4.47s.28-3.1.83-4.52c.55-1.42,1.34-2.67,2.36-3.76,1.02-1.09,2.24-1.94,3.65-2.56,1.41-.62,2.97-.93,4.66-.93s3.28.31,4.68.93c1.4.62,2.62,1.48,3.65,2.56,1.03,1.09,1.83,2.34,2.38,3.76.55,1.42.83,2.92.83,4.52s-.28,3.05-.83,4.47c-.56,1.42-1.34,2.67-2.36,3.76-1.02,1.09-2.24,1.94-3.65,2.56s-2.98.93-4.7.93ZM541.57,535.07c0,1.56.34,2.97,1.03,4.24.68,1.27,1.6,2.27,2.73,3.01,1.14.74,2.4,1.1,3.8,1.1s2.68-.37,3.83-1.12c1.15-.75,2.07-1.77,2.76-3.05s1.03-2.71,1.03-4.27-.34-2.97-1.03-4.24c-.69-1.27-1.6-2.28-2.76-3.03-1.15-.75-2.43-1.12-3.83-1.12s-2.67.38-3.8,1.15c-1.14.76-2.05,1.78-2.73,3.05-.69,1.27-1.03,2.7-1.03,4.29Z"/>
      <path class="st18" d="M571.57,543.82l14.39-17.41h-14v-2.8h18.33v2.49l-14.3,17.41h14.35v2.8h-18.76v-2.49Z"/>
      <path class="st18" d="M591.6,539.75c0-1.45.41-2.7,1.25-3.76.83-1.06,1.97-1.88,3.43-2.46,1.46-.58,3.15-.87,5.07-.87,1.02,0,2.1.08,3.24.24s2.14.4,3.02.72v-1.65c0-1.73-.53-3.09-1.57-4.08-1.05-.99-2.54-1.49-4.46-1.49-1.25,0-2.46.23-3.61.68s-2.37,1.1-3.65,1.95l-1.4-2.71c1.49-1.02,2.97-1.79,4.46-2.3,1.49-.51,3.03-.76,4.64-.76,2.92,0,5.22.8,6.91,2.41s2.54,3.84,2.54,6.7v9.58c0,.46.09.8.28,1.02.19.22.5.34.94.37v2.97c-.38.06-.71.1-.98.13-.28.03-.5.04-.68.04-.9,0-1.58-.25-2.03-.74-.45-.5-.71-1.02-.77-1.58l-.09-1.44c-.99,1.28-2.29,2.28-3.89,2.97-1.6.7-3.19,1.05-4.77,1.05s-2.87-.31-4.07-.93c-1.2-.62-2.13-1.46-2.8-2.52-.67-1.06-1.01-2.24-1.01-3.54ZM606.48,541.35c.35-.4.63-.81.83-1.23.2-.42.31-.77.31-1.06v-2.81c-.9-.35-1.85-.61-2.84-.8-.99-.19-1.97-.28-2.93-.28-1.95,0-3.54.38-4.74,1.15-1.21.77-1.82,1.81-1.82,3.14,0,.72.2,1.42.59,2.1.39.68.98,1.23,1.75,1.67s1.73.65,2.87.65c1.2,0,2.33-.24,3.41-.72,1.08-.48,1.94-1.08,2.58-1.8Z"/>
      <path class="st18" d="M650.52,546.31h-3.85v-12.66c0-2.37-.39-4.12-1.16-5.25-.77-1.13-1.92-1.69-3.43-1.69s-2.95.56-4.2,1.67c-1.25,1.11-2.14,2.55-2.67,4.31v13.61h-3.85v-12.66c0-2.4-.38-4.15-1.14-5.27-.76-1.11-1.9-1.67-3.41-1.67s-2.91.54-4.18,1.62-2.16,2.51-2.69,4.3v13.67h-3.85v-22.7h3.5v4.9c.93-1.68,2.14-2.97,3.63-3.89s3.16-1.37,5.03-1.37,3.41.51,4.55,1.54c1.14,1.03,1.84,2.35,2.1,3.97,1.02-1.79,2.26-3.16,3.72-4.1,1.46-.94,3.12-1.41,4.99-1.41,1.31,0,2.41.24,3.3.72.89.48,1.6,1.14,2.12,2,.52.85.9,1.86,1.14,3.02.23,1.16.35,2.42.35,3.78v13.54Z"/>
      <path class="st18" d="M667.28,546.75c-1.87,0-3.53-.46-4.99-1.39-1.46-.93-2.61-2.1-3.46-3.52v13.79h-3.85v-32.02h3.41v4.3c.9-1.39,2.08-2.51,3.54-3.37,1.46-.85,3.05-1.28,4.77-1.28,1.58,0,3.02.32,4.33.95,1.31.64,2.45,1.51,3.41,2.61s1.71,2.35,2.25,3.76c.54,1.4.81,2.87.81,4.41,0,2.14-.43,4.11-1.29,5.91-.86,1.79-2.06,3.22-3.61,4.28-1.54,1.06-3.32,1.58-5.33,1.58ZM666.1,543.42c1.14,0,2.16-.24,3.08-.71s1.71-1.11,2.36-1.9c.65-.79,1.16-1.7,1.51-2.71.35-1.01.52-2.05.52-3.12,0-1.12-.2-2.19-.59-3.2-.4-1.01-.95-1.9-1.66-2.68-.72-.78-1.55-1.39-2.49-1.84-.95-.45-1.98-.67-3.09-.67-.7,0-1.42.13-2.16.39s-1.45.63-2.12,1.1c-.67.48-1.24,1.02-1.71,1.62-.47.61-.77,1.25-.92,1.94v6.47c.44.98,1.02,1.87,1.75,2.68.73.81,1.57,1.45,2.54,1.92.96.47,1.95.71,2.97.71Z"/>
      <path class="st18" d="M690.81,546.75c-1.72,0-3.29-.31-4.7-.93-1.42-.62-2.64-1.48-3.68-2.56s-1.84-2.34-2.41-3.76c-.57-1.42-.85-2.92-.85-4.52,0-2.14.5-4.09,1.49-5.86.99-1.77,2.37-3.18,4.13-4.25s3.78-1.61,6.06-1.61,4.31.54,6.01,1.63c1.71,1.09,3.03,2.51,3.98,4.26.95,1.75,1.42,3.64,1.42,5.67,0,.29,0,.57-.02.85-.02.28-.04.49-.07.63h-18.94c.12,1.47.53,2.77,1.25,3.91.71,1.14,1.64,2.03,2.78,2.68s2.36.97,3.68.97c1.4,0,2.72-.35,3.96-1.05,1.24-.7,2.09-1.62,2.56-2.76l3.32.92c-.5,1.11-1.23,2.1-2.21,2.97s-2.13,1.56-3.46,2.06c-1.33.5-2.76.74-4.31.74ZM683.11,533.62h15.57c-.12-1.47-.54-2.77-1.27-3.89-.73-1.12-1.66-2-2.8-2.64s-2.39-.95-3.76-.95-2.58.32-3.72.95-2.06,1.51-2.78,2.64c-.72,1.12-1.13,2.42-1.25,3.89Z"/>
    </g>
    <g>
      <path class="st14" d="M126.64,401.78c-2.82-.5-4.61-3.71-3.99-7.16.8-4.48,3.82-8.19,6.64-7.68,2.82.5,4.31,5.35,3.57,9.51-.62,3.45-3.4,5.84-6.22,5.33Z"/>
      <path class="st14" d="M143.7,422.45c-3.85-1.27-4.79-3.45-7.26-4.27-2.47-.82-4.53.37-8.37-.91-5.04-1.67-6.7-9.16-.77-11.78,7.38-3.26,11.13-9.18,15.86-7.61,4.73,1.57,4.21,8.56,8.18,15.58,3.2,5.65-2.61,10.66-7.65,8.99Z"/>
      <path class="st14" d="M147.17,389.91c1.66-3.88,5.58-7.11,8.21-5.98,2.63,1.13,3.12,5.89,1.32,10.07-1.38,3.22-4.64,4.91-7.27,3.78-2.63-1.13-3.65-4.66-2.26-7.87Z"/>
      <path class="st14" d="M134.62,386.69c1.06-4.42,4.29-7.95,7.07-7.29,2.79.67,4,5.59,3.02,9.7-.81,3.41-3.73,5.63-6.52,4.97-2.79-.67-4.38-3.97-3.57-7.38Z"/>
      <path class="st14" d="M154.09,410.88c-2.56-1.28-3.37-4.86-1.8-7.99,1.89-3.77,5.98-6.77,8.54-5.49,2.56,1.28,2.77,6.06.74,10.13-1.57,3.13-4.91,4.64-7.48,3.36Z"/>
    </g>
  </g>
  <g class="st11">
    <path class="st9" d="M466.56,221.98s63.55-129.08,205.52-129.08c-31.86,91.32,60.3,245.16-84.95,284.08l-120.56-155.01h0Z"/>
    <path class="st9" d="M333.44,221.98s-63.55-129.08-205.51-129.08c31.86,91.32-60.3,245.16,84.95,284.08l120.56-155.01Z"/>
    <path class="st9" d="M400,213.66c120.69,0,160.21,62.71,189.52,172.07,29.3,109.36,80.34,106.14,27.44,197.76,0,0-24.58-29.59-40.7-45.71,0,0,14.37,55.76-39.64,109.77,0,0-12.94-40.75-23.94-51.75,0,0-25.42,92.28-112.68,111.29-87.26-19.01-112.68-111.29-112.68-111.29-11,11-23.93,51.75-23.93,51.75-54.02-54.02-39.64-109.77-39.64-109.77-16.12,16.12-40.7,45.71-40.7,45.71-52.9-91.62-1.86-88.4,27.44-197.76,29.3-109.36,68.83-172.07,189.52-172.07h0Z"/>
  </g>
  <g class="st13">
    <g class="st12">
      <path class="st9" d="M170.27,493.39c-41.97,4.73-80.68-33.06-86.45-84.4-7.5-66.64,19.62-131.75,61.59-136.47,41.97-4.73,83.43,57.57,90.39,119.36,5.77,51.33-23.55,96.78-65.53,101.5Z"/>
      <g>
        <path class="st9" d="M498.16,713.95c-59.72-1.87-82.23-28.72-120.53-29.92-38.31-1.2-62.45,24.18-122.17,22.31-78.18-2.46-133.14-101.33-60.23-163.27,90.6-76.97,118.82-176.47,192.29-174.16,73.48,2.31,95.39,103.38,180.99,185.88,68.87,66.39,7.82,161.62-70.35,159.16Z"/>
        <path class="st9" d="M410.76,239.5c7.25-61.76,49.01-123.86,90.95-118.94,41.95,4.93,68.76,70.16,60.94,136.76-6.02,51.31-44.9,88.92-86.85,83.99-41.95-4.92-71.07-50.5-65.05-101.81Z"/>
        <path class="st9" d="M219.73,246.56c-3.62-66.96,27.23-130.39,69.41-132.66,42.17-2.28,79.95,62.31,83.31,124.41,2.79,51.59-29.13,95.25-71.3,97.53-42.18,2.28-78.62-37.69-81.41-89.28Z"/>
        <path class="st9" d="M596.53,506.77c-41.59-7.35-68.02-54.55-59.03-105.42,10.82-61.23,56.12-120.8,97.7-113.45,41.59,7.35,64.58,74.02,52.91,140.06-8.99,50.87-49.99,86.16-91.58,78.81Z"/>
      </g>
    </g>
    <g>
      <line class="st16" x1="608.83" y1="150.15" x2="737.12" y2="150.15"/>
      <line class="st16" x1="672.97" y1="86" x2="672.97" y2="214.3"/>
    </g>
  </g>
  <g class="st13">
    <path class="st8" d="M608.12,551.19c0-3.47-.79-6.85-2.26-9.89-1.47-3.05-3.62-5.77-6.34-7.93-25.37-20.16-40.15-50.8-40.15-83.2v-102.29c0-44.01-17.84-83.85-46.68-112.69-22.54-22.53-51.78-38.35-84.49-44.19v-18.11c0-15.58-12.63-28.21-28.21-28.21s-28.21,12.63-28.21,28.21v18.17c-74.36,13.58-131.17,79.74-131.17,157.88v101.24c0,16.2-3.7,31.96-10.56,46.19-6.86,14.23-16.9,26.93-29.58,37.01-2.72,2.16-4.87,4.88-6.34,7.93-1.47,3.05-2.26,6.42-2.26,9.89,0,12.57,10.19,22.76,22.76,22.76h370.72c12.57,0,22.76-10.19,22.76-22.76Z"/>
    <path class="st8" d="M462.7,589.34h-131.99c0,36.45,29.55,66,66,66s66-29.55,66-66Z"/>
  </g>
  <g>
    <circle class="st15" cx="400" cy="384.34" r="269.53"/>
    <g>
      <path class="st8" d="M463.34,548.55c-31.95-1-43.99-15.36-64.48-16.01-20.49-.64-33.41,12.94-65.36,11.93-41.82-1.32-71.23-54.21-32.22-87.35,48.47-41.18,63.57-94.41,102.87-93.17,39.31,1.24,51.04,55.31,96.83,99.45,36.85,35.52,4.18,86.47-37.64,85.15Z"/>
      <path class="st8" d="M416.58,294.73c3.88-33.04,26.22-66.26,48.66-63.63,22.44,2.64,36.79,37.54,32.6,73.17-3.22,27.45-24.02,47.57-46.46,44.93-22.44-2.63-38.02-27.02-34.8-54.47Z"/>
      <path class="st8" d="M314.38,298.5c-1.94-35.82,14.57-69.76,37.13-70.97,22.56-1.22,42.77,33.34,44.57,66.56,1.49,27.6-15.58,50.96-38.14,52.18-22.56,1.22-42.06-20.16-43.56-47.76Z"/>
      <path class="st8" d="M515.97,437.71c-22.25-3.93-36.39-29.18-31.58-56.4,5.79-32.76,30.02-64.63,52.27-60.69,22.25,3.93,34.55,39.6,28.31,74.93-4.81,27.22-26.75,46.09-48.99,42.16Z"/>
      <path class="st8" d="M287.92,430.55c-22.45,2.53-43.16-17.69-46.25-45.15-4.01-35.65,10.5-70.49,32.95-73.01,22.45-2.53,44.63,30.8,48.36,63.86,3.09,27.46-12.6,51.78-35.06,54.3Z"/>
    </g>
  </g>
</svg>